<svg xmlns="http://www.w3.org/2000/svg" viewBox="0 0 181.47 29.88"><defs><style>.cls-1{fill:#1d1d1b;}.cls-2{fill:#252525;}</style></defs><g id="Calque_2" data-name="Calque 2"><g id="Header"><path class="cls-1" d="M9.29,20.23a13.65,13.65,0,0,0-1.86-1.55,10.84,10.84,0,0,0-1.82-1.06.72.72,0,0,1-.23-.23.67.67,0,0,1-.1-.29c0-.07,0-.12.06-.13,1-.58,1.74-1.08,2.32-1.49A15.67,15.67,0,0,0,9.4,14c.22-.21.39-.32.52-.32s.11.05.11.16a.48.48,0,0,1-.09.27,9.23,9.23,0,0,1-1.29,1.61A17.51,17.51,0,0,1,7.21,17c-.07.05-.11.09-.11.13s0,.06.11.12a13.92,13.92,0,0,1,1.4,1.24,13,13,0,0,1,1.33,1.69.24.24,0,0,1,.05.16.27.27,0,0,1,0,.16.14.14,0,0,1-.12.06A.93.93,0,0,1,9.29,20.23Zm3.8,0a15,15,0,0,0-1.86-1.55A11.3,11.3,0,0,0,9.4,17.62a.7.7,0,0,1-.22-.23.56.56,0,0,1-.1-.29c0-.07,0-.12.05-.13,1-.58,1.74-1.08,2.32-1.49A14,14,0,0,0,13.19,14c.22-.21.39-.32.52-.32s.11.05.11.16a.48.48,0,0,1-.09.27,9.71,9.71,0,0,1-1.28,1.61c-.42.4-.9.82-1.45,1.25-.07.05-.11.09-.11.13s0,.06.11.12a13.92,13.92,0,0,1,1.4,1.24,12.15,12.15,0,0,1,1.33,1.69.25.25,0,0,1,.06.16.28.28,0,0,1,0,.16.14.14,0,0,1-.12.06A.88.88,0,0,1,13.09,20.23Z"/><path class="cls-1" d="M16,20.32A.85.85,0,0,1,15.8,20a14.17,14.17,0,0,1-.16-1.5l0-.39a.21.21,0,0,1,.1-.19.48.48,0,0,1,.26-.06.26.26,0,0,1,.29.19,3.75,3.75,0,0,0,1,1.95,2.24,2.24,0,0,0,1.54.63A2.1,2.1,0,0,0,20.37,20,2.16,2.16,0,0,0,21,18.39a2.66,2.66,0,0,0-.23-1.16,2.32,2.32,0,0,0-.62-.77,12.1,12.1,0,0,0-1.18-.8l-.36-.22a16.45,16.45,0,0,1-1.39-.93,3.84,3.84,0,0,1-.86-1A2.41,2.41,0,0,1,16,12.23a3.09,3.09,0,0,1,1-2.36A3.92,3.92,0,0,1,19.74,9a5,5,0,0,1,1.88.39.69.69,0,0,1,.24.18A.59.59,0,0,1,22,9.8q.18.63.27,1a3.29,3.29,0,0,1,.09.76c0,.13-.09.2-.27.2a.82.82,0,0,1-.31-.07.31.31,0,0,1-.19-.18,4.32,4.32,0,0,0-.91-1.48,1.76,1.76,0,0,0-1.25-.48,2.2,2.2,0,0,0-1.48.49,1.93,1.93,0,0,0-.59,1.56,1.51,1.51,0,0,0,.33.93,3.81,3.81,0,0,0,.81.79q.49.36,1.38.9a14.94,14.94,0,0,1,1.37.94,3.65,3.65,0,0,1,.88,1,2.82,2.82,0,0,1,.36,1.46,3.27,3.27,0,0,1-1.08,2.56,4.12,4.12,0,0,1-2.84,1A3.85,3.85,0,0,1,16,20.32Z"/><path class="cls-1" d="M23.92,20.78a.21.21,0,0,1,.15-.19,1.66,1.66,0,0,1,.45-.13,2,2,0,0,0,1-.42,1.23,1.23,0,0,0,.32-.93V11a1.29,1.29,0,0,0-.26-.9,1.69,1.69,0,0,0-.95-.41c-.39-.07-.59-.19-.59-.36s.17-.2.52-.2,1,0,1.66,0l1.52,0,2.47,0,1.52,0c.21,0,.31.06.33.16s.07.36.15.8a6,6,0,0,1,.12,1.06c0,.18-.09.27-.25.27a.18.18,0,0,1-.13,0,.26.26,0,0,1-.07-.14c0-.06-.07-.22-.15-.47a1.14,1.14,0,0,0-.25-.52,1.51,1.51,0,0,0-1.2-.49H27.93a.76.76,0,0,0-.41.17.49.49,0,0,0-.23.41v3.81a.45.45,0,0,0,.09.28.3.3,0,0,0,.23.11h1.78a1.05,1.05,0,0,0,.7-.18,1.46,1.46,0,0,0,.34-.7q.11-.39.33-.39a.22.22,0,0,1,.15.08.29.29,0,0,1,.08.21L31,14l0,.79,0,1,0,.43c0,.2,0,.3-.16.3s-.32-.19-.41-.57a1.43,1.43,0,0,0-.3-.62.7.7,0,0,0-.53-.19H27.9a.92.92,0,0,0-.48.09c-.09.06-.13.18-.13.38v3.45a1.29,1.29,0,0,0,.27.93,1.29,1.29,0,0,0,.91.27H29.8a5.33,5.33,0,0,0,1-.07,2.22,2.22,0,0,0,.66-.23,2,2,0,0,0,.49-.5,7.16,7.16,0,0,0,.53-.89c.09-.15.17-.23.25-.23s.24.08.24.25a5.22,5.22,0,0,1-.2,1,7.23,7.23,0,0,1-.36,1.11.87.87,0,0,0,0,.12.58.58,0,0,1-.08.14.16.16,0,0,1-.12,0L29,20.93c-.83,0-1.65-.06-2.47-.06a6.81,6.81,0,0,0-.93.06L24.45,21C24.1,21,23.92,20.91,23.92,20.78Z"/><path class="cls-1" d="M33.74,20.78a.21.21,0,0,1,.14-.19,1.92,1.92,0,0,1,.45-.13c.62-.11,1-.58,1.12-1.4a69,69,0,0,0,.73-7.66c0-.28,0-.47,0-.59a2.24,2.24,0,0,0-.07-.34.65.65,0,0,0-.2-.26,1.94,1.94,0,0,0-.57-.34c-.19-.06-.45-.12-.78-.2a.52.52,0,0,1-.29-.13.31.31,0,0,1-.11-.23c0-.08.05-.13.15-.16a2.69,2.69,0,0,1,.46,0c.16,0,.61,0,1.35.07s1.19.07,1.35.07a.35.35,0,0,1,.34.29l.13.47a5.58,5.58,0,0,0,.27.91L41,18.14a.21.21,0,0,0,.23.16.19.19,0,0,0,.18-.1L45,10.83c.14-.54.25-1,.32-1.35q.06-.24.18-.24h.65c.18,0,.61,0,1.3-.09.31,0,.56-.05.75-.05s.38.06.38.18a.23.23,0,0,1-.1.2,2.56,2.56,0,0,1-.37.18c-.11,0-.25.09-.43.16l-.63.25a.7.7,0,0,0-.31.25.6.6,0,0,0-.12.36c0,1.06,0,2,.06,3s.11,2,.19,3.23c.07,1,.12,1.75.14,2.3a1.19,1.19,0,0,0,.35.86,2,2,0,0,0,1,.42,1.66,1.66,0,0,1,.45.13.21.21,0,0,1,.15.19c0,.13-.18.2-.53.2s-.82,0-1.15-.05-.7,0-1,0-.47,0-.81,0a9.75,9.75,0,0,1-1.08.05c-.34,0-.52-.07-.52-.2s.2-.27.6-.32a1,1,0,0,0,.71-.36,1.6,1.6,0,0,0,.2-.93q0-1.84-.06-3.39c0-1-.07-1.65-.08-1.85s-.05-.76-.07-1.38c0-.12-.05-.18-.11-.18s-.11.06-.18.18L40.78,21c0,.07-.06.11-.16.11s-.12,0-.16-.13q-1.24-3.67-3.31-8.54a.12.12,0,0,0-.12-.08.1.1,0,0,0-.11.08q-.33,2.4-.45,3.69c-.08.86-.12,1.85-.12,2.95a1.43,1.43,0,0,0,.31.9,1.4,1.4,0,0,0,.85.5,1.66,1.66,0,0,1,.45.13.21.21,0,0,1,.15.19c0,.13-.18.2-.52.2a8.63,8.63,0,0,1-1-.05,5.29,5.29,0,0,0-.66,0,5.06,5.06,0,0,0-.63,0l-1,.05C33.91,21,33.74,20.91,33.74,20.78Z"/><path class="cls-1" d="M50.26,20.78a.21.21,0,0,1,.14-.19,1.92,1.92,0,0,1,.45-.13,2,2,0,0,0,1-.42,1.23,1.23,0,0,0,.31-.93V11a1.29,1.29,0,0,0-.26-.9A1.65,1.65,0,0,0,51,9.71q-.6-.11-.6-.36c0-.13.18-.2.52-.2s1,0,1.66,0l1.53,0,2.46,0,1.53,0c.2,0,.31.06.32.16s.08.36.15.8a6,6,0,0,1,.12,1.06c0,.18-.08.27-.25.27a.22.22,0,0,1-.13,0,.35.35,0,0,1-.07-.14c0-.06-.07-.22-.14-.47a1.39,1.39,0,0,0-.25-.52,1.52,1.52,0,0,0-1.21-.49H54.27a.79.79,0,0,0-.42.17.52.52,0,0,0-.23.41v3.81a.4.4,0,0,0,.1.28.26.26,0,0,0,.22.11h1.78a1,1,0,0,0,.7-.18,1.46,1.46,0,0,0,.34-.7c.08-.26.18-.39.33-.39a.19.19,0,0,1,.15.08.25.25,0,0,1,.08.21l0,.46,0,.79,0,1v.43c0,.2,0,.3-.16.3s-.32-.19-.41-.57a1.24,1.24,0,0,0-.3-.62.69.69,0,0,0-.53-.19H54.23a.92.92,0,0,0-.48.09c-.09.06-.13.18-.13.38v3.45a1.25,1.25,0,0,0,.28.93,1.27,1.27,0,0,0,.91.27h1.33a5.21,5.21,0,0,0,1-.07,2.22,2.22,0,0,0,.66-.23,2,2,0,0,0,.5-.5,8.67,8.67,0,0,0,.53-.89c.08-.15.16-.23.25-.23s.23.08.23.25a4.48,4.48,0,0,1-.2,1,7.23,7.23,0,0,1-.36,1.11.87.87,0,0,0,0,.12.37.37,0,0,1-.08.14.16.16,0,0,1-.12,0l-3.16-.05q-1.25-.06-2.46-.06a6.86,6.86,0,0,0-.94.06L50.78,21C50.43,21,50.26,20.91,50.26,20.78Z"/><path class="cls-1" d="M71.05,20.89a3.07,3.07,0,0,1-.86-.83c-.09-.14-.79-1-2.09-2.51s-2.25-2.66-2.83-3.36c-1-1.13-1.53-1.79-1.69-2s-.28-.29-.38-.29-.1,0-.13.12a1.09,1.09,0,0,0,0,.26Q63,16.72,63,19a1.3,1.3,0,0,0,1.15,1.44,1.92,1.92,0,0,1,.45.13.21.21,0,0,1,.14.19c0,.13-.17.2-.52.2a8.57,8.57,0,0,1-1-.05,5.44,5.44,0,0,0-.67,0,5.06,5.06,0,0,0-.63,0c-.47,0-.8.05-1,.05-.35,0-.53-.07-.53-.2s0-.13.14-.18a3.19,3.19,0,0,1,.46-.16A1.49,1.49,0,0,0,62,19c.08-.78.16-1.83.22-3.16s.1-2.67.1-4a1.72,1.72,0,0,0-.44-1.31,3.29,3.29,0,0,0-1.34-.72l-.36-.17A.33.33,0,0,1,60,9.31a.18.18,0,0,1,.13-.19.67.67,0,0,1,.28-.06l1.26.06,1.51,0a.31.31,0,0,1,.22.07.88.88,0,0,1,.21.24c.14.2,1.16,1.45,3,3.74l4,4.89q.31.36.45.36c.11,0,.17-.13.18-.38q0-1.37,0-7.32a1,1,0,0,0-.37-.63,1.48,1.48,0,0,0-.67-.36c-.54-.09-.81-.21-.81-.35s.07-.11.23-.15a2.65,2.65,0,0,1,.5,0h1l.9,0c.38,0,.77,0,1.17,0s.52.07.52.2-.2.29-.6.36a2,2,0,0,0-.88.32,1,1,0,0,0-.25.65c0,.43,0,3.21,0,8.32a12,12,0,0,0,.07,1.37l0,.38c0,.3-.13.45-.38.45A1.57,1.57,0,0,1,71.05,20.89Z"/><path class="cls-1" d="M78.1,20.4a6.3,6.3,0,0,1-2.4-2.15,5.69,5.69,0,0,1-.91-3.17,5.36,5.36,0,0,1,1-3.1,6.68,6.68,0,0,1,2.55-2.2A7.47,7.47,0,0,1,81.73,9a10.2,10.2,0,0,1,1.52.1c.39.07,1,.19,1.68.37a.71.71,0,0,1,.37.22.7.7,0,0,1,.15.39c.1.94.15,1.63.16,2.07a.18.18,0,0,1-.08.19.35.35,0,0,1-.22.08.3.3,0,0,1-.31-.25,5.51,5.51,0,0,0-.44-1.23,2.15,2.15,0,0,0-.67-.77,3.76,3.76,0,0,0-1.09-.45,5.42,5.42,0,0,0-1.37-.16,4.41,4.41,0,0,0-2.47.72,5.08,5.08,0,0,0-1.72,1.9,5.21,5.21,0,0,0-.63,2.5,6.81,6.81,0,0,0,.63,2.87A5.72,5.72,0,0,0,79,19.75a4.11,4.11,0,0,0,2.56.85,3.78,3.78,0,0,0,2.1-.56,4.82,4.82,0,0,0,1.48-1.68.33.33,0,0,1,.16-.17.35.35,0,0,1,.2-.07.25.25,0,0,1,.18.08.25.25,0,0,1,.07.21,3.26,3.26,0,0,1-.16.78,8.75,8.75,0,0,1-.33,1,1.58,1.58,0,0,1-.21.33,1,1,0,0,1-.36.16,6.85,6.85,0,0,1-1.55.39,12.59,12.59,0,0,1-1.85.13A6.9,6.9,0,0,1,78.1,20.4Z"/><path class="cls-1" d="M87.39,20.78a.21.21,0,0,1,.15-.19,1.66,1.66,0,0,1,.45-.13A2,2,0,0,0,89,20a1.23,1.23,0,0,0,.32-.93V11a1.29,1.29,0,0,0-.26-.9,1.69,1.69,0,0,0-1-.41c-.39-.07-.59-.19-.59-.36s.17-.2.52-.2,1,0,1.65,0l1.53,0,2.47,0,1.52,0c.21,0,.31.06.33.16s.07.36.15.8a6,6,0,0,1,.12,1.06.24.24,0,0,1-.26.27.17.17,0,0,1-.12,0,.26.26,0,0,1-.07-.14,3.78,3.78,0,0,1-.15-.47,1.14,1.14,0,0,0-.25-.52,1.51,1.51,0,0,0-1.2-.49H91.4A.74.74,0,0,0,91,10a.49.49,0,0,0-.23.41v3.81a.45.45,0,0,0,.09.28.28.28,0,0,0,.23.11h1.78a1.05,1.05,0,0,0,.7-.18,1.55,1.55,0,0,0,.34-.7c.07-.26.18-.39.32-.39a.22.22,0,0,1,.16.08.29.29,0,0,1,.08.21l0,.46,0,.79,0,1,0,.43c0,.2,0,.3-.16.3s-.32-.19-.42-.57a1.33,1.33,0,0,0-.29-.62.7.7,0,0,0-.53-.19H91.37a.92.92,0,0,0-.48.09c-.09.06-.13.18-.13.38v3.45A1.29,1.29,0,0,0,91,20a1.29,1.29,0,0,0,.91.27h1.33a5.33,5.33,0,0,0,1-.07,2.22,2.22,0,0,0,.66-.23,2,2,0,0,0,.49-.5,7.16,7.16,0,0,0,.53-.89c.09-.15.17-.23.25-.23s.24.08.24.25a5.22,5.22,0,0,1-.2,1,7.23,7.23,0,0,1-.36,1.11.87.87,0,0,0,0,.12.56.56,0,0,1-.09.14.14.14,0,0,1-.11,0l-3.17-.05q-1.23-.06-2.46-.06a6.71,6.71,0,0,0-.93.06L87.92,21C87.57,21,87.39,20.91,87.39,20.78Z"/><path class="cls-1" d="M106.3,21c-1.31-.06-2.29-.09-2.91-.09-.2,0-.47,0-.81,0a9.75,9.75,0,0,1-1.08.05c-.34,0-.52-.08-.52-.23s0-.16.11-.18a3.5,3.5,0,0,1,.49-.11,1.65,1.65,0,0,0,.94-.41,1.43,1.43,0,0,0,.26-.94V11a1.29,1.29,0,0,0-.26-.9,1.65,1.65,0,0,0-.94-.41,1.6,1.6,0,0,1-.47-.12.2.2,0,0,1-.13-.2c0-.16.18-.24.52-.24l1,0,1,0c.49,0,1.11,0,1.85-.09l.69,0h.53a8.79,8.79,0,0,1,3.87.74,5,5,0,0,1,2.24,2,6,6,0,0,1,.71,2.92,6.32,6.32,0,0,1-3.13,5.43,6,6,0,0,1-3.13.85Zm3.09-1.28a4.64,4.64,0,0,0,1.69-1.89,6.15,6.15,0,0,0,.6-2.76,5.7,5.7,0,0,0-.72-2.9,5.09,5.09,0,0,0-1.88-1.89,4.82,4.82,0,0,0-2.42-.66,12.57,12.57,0,0,0-1.43.06,1.34,1.34,0,0,0-.74.28,1,1,0,0,0-.27.76v8a1.32,1.32,0,0,0,.73,1.33,4.79,4.79,0,0,0,2,.34A4.54,4.54,0,0,0,109.39,19.7Z"/><path class="cls-1" d="M114.68,20.78a.21.21,0,0,1,.14-.19,1.92,1.92,0,0,1,.45-.13,2,2,0,0,0,1-.42,1.23,1.23,0,0,0,.31-.93V11a1.24,1.24,0,0,0-.26-.9,1.65,1.65,0,0,0-.94-.41c-.4-.07-.59-.19-.59-.36s.17-.2.52-.2,1,0,1.65,0l1.53,0,2.46,0,1.53,0c.2,0,.31.06.32.16s.08.36.16.8a6.92,6.92,0,0,1,.11,1.06c0,.18-.08.27-.25.27a.22.22,0,0,1-.13,0,.58.58,0,0,1-.07-.14c0-.06-.07-.22-.14-.47a1.25,1.25,0,0,0-.25-.52A1.52,1.52,0,0,0,121,9.78h-2.35a.79.79,0,0,0-.42.17.52.52,0,0,0-.23.41v3.81a.4.4,0,0,0,.1.28.28.28,0,0,0,.22.11h1.78a1,1,0,0,0,.7-.18,1.45,1.45,0,0,0,.35-.7c.07-.26.18-.39.32-.39a.19.19,0,0,1,.15.08.25.25,0,0,1,.08.21V14l0,.79,0,1,0,.43c0,.2-.06.3-.17.3s-.31-.19-.41-.57a1.24,1.24,0,0,0-.3-.62.69.69,0,0,0-.53-.19h-1.67a.88.88,0,0,0-.47.09.42.42,0,0,0-.14.38v3.45a1.25,1.25,0,0,0,.28.93,1.29,1.29,0,0,0,.91.27h1.33a5.4,5.4,0,0,0,1-.07,2.26,2.26,0,0,0,.65-.23,2,2,0,0,0,.5-.5,8.67,8.67,0,0,0,.53-.89c.08-.15.17-.23.25-.23s.23.08.23.25a4.91,4.91,0,0,1-.19,1,10.47,10.47,0,0,1-.36,1.11.64.64,0,0,0-.06.12.37.37,0,0,1-.08.14.16.16,0,0,1-.12,0l-3.16-.05q-1.24-.06-2.46-.06a6.86,6.86,0,0,0-.94.06L115.2,21C114.85,21,114.68,20.91,114.68,20.78Z"/><path class="cls-1" d="M128.18,20.78a.21.21,0,0,1,.14-.19,1.92,1.92,0,0,1,.45-.13,2,2,0,0,0,1-.42,1.3,1.3,0,0,0,.3-.95V11.51a2.8,2.8,0,0,0-.22-1.28,1.13,1.13,0,0,0-.87-.52q-.6-.11-.6-.36c0-.13.18-.2.53-.2.51,0,.85,0,1,0h.76c.18,0,.39,0,.63,0l.54,0a6.46,6.46,0,0,1,.82-.06,5.74,5.74,0,0,1,3.31.86,2.69,2.69,0,0,1,1.24,2.34,4.78,4.78,0,0,1-.44,2.06,3.3,3.3,0,0,1-1.35,1.47,4.3,4.3,0,0,1-2.24.54,1.36,1.36,0,0,1-.58-.11c-.15-.07-.23-.15-.23-.24a.29.29,0,0,1,.1-.16.3.3,0,0,1,.19-.09l.28,0,.55,0a1.81,1.81,0,0,0,1.62-.88,4.71,4.71,0,0,0,.55-2.5,2.66,2.66,0,0,0-.81-2.1,3.21,3.21,0,0,0-2.19-.72c-.76,0-1.15.25-1.15.75V18.9A1.75,1.75,0,0,0,131.8,20a1.42,1.42,0,0,0,.93.5,1.92,1.92,0,0,1,.45.13.21.21,0,0,1,.14.19c0,.13-.17.2-.52.2a6.54,6.54,0,0,1-1-.07,4,4,0,0,0-.72-.06q-.33,0-.66,0l-.48,0a11.75,11.75,0,0,1-1.2.07C128.35,21,128.18,20.91,128.18,20.78Z"/><path class="cls-1" d="M136.16,20.92c-.1,0-.14-.1-.14-.17s.19-.3.59-.42a2.72,2.72,0,0,0,.9-.45,2.34,2.34,0,0,0,.64-.93c.64-1.46,1.19-2.79,1.67-4s1-2.68,1.7-4.47a5,5,0,0,0,.25-1l.26-.08a1.23,1.23,0,0,0,.38-.19.65.65,0,0,0,.23-.32,1.57,1.57,0,0,1,.12-.29s0,0,0,0l0,0,.06.19c0,.08,0,.14.06.2q1.34,4.18,3.2,9.6a3.06,3.06,0,0,0,.76,1.34,2.15,2.15,0,0,0,1.06.46.94.94,0,0,1,.44.17.33.33,0,0,1,.15.24c0,.12-.17.18-.52.18l-1,0c-.67,0-1.18-.07-1.53-.07l-1.89,0c-.34,0-.52-.07-.52-.21s.06-.15.17-.21a1.3,1.3,0,0,1,.42-.14c.74-.12,1.1-.39,1.1-.81a14.9,14.9,0,0,0-.7-2.91.24.24,0,0,0-.13-.16,1.48,1.48,0,0,0-.36,0h-3.39c-.13,0-.24.1-.31.32-.13.38-.29.88-.47,1.5a7.77,7.77,0,0,0-.26,1.09.82.82,0,0,0,.29.64,1.67,1.67,0,0,0,.75.38,3.72,3.72,0,0,1,.46.16.22.22,0,0,1,.13.2c0,.13-.17.2-.52.2l-.54,0-1.1,0-.67,0-.55,0c-.33,0-.65.05-.93.05A1,1,0,0,1,136.16,20.92Zm7.37-5.1a.5.5,0,0,0,.18,0s.07,0,.07-.07l0-.18-1.4-4.38c-.07-.22-.12-.33-.16-.33s-.07.1-.14.31l-1.64,4.4,0,.15c0,.06,0,.09.08.1a1,1,0,0,0,.29,0Z"/><path class="cls-1" d="M149.89,20.78a.21.21,0,0,1,.15-.19,1.66,1.66,0,0,1,.45-.13,1.45,1.45,0,0,0,1.4-1.51V16.29a1.79,1.79,0,0,0-.16-.69,5.83,5.83,0,0,0-.29-.64l-2.1-3.45c-.66-1.06-1.2-1.64-1.6-1.76a2.57,2.57,0,0,1-.45-.2c-.1-.06-.15-.13-.15-.2s.18-.2.52-.2l.83,0c.53,0,.95,0,1.28,0l.86,0,.57,0c.35,0,.53.07.53.2s-.2.26-.6.36a1.25,1.25,0,0,0-.44.17.33.33,0,0,0-.13.28,1.58,1.58,0,0,0,.23.65l1.65,3.05c.24.46.41.68.51.68a.28.28,0,0,0,.21-.13,5.46,5.46,0,0,0,.38-.55c.36-.57.76-1.25,1.19-2,.05-.1.15-.29.32-.58a1.81,1.81,0,0,0,.32-.91c0-.35-.24-.56-.73-.63a1.63,1.63,0,0,1-.4-.15c-.13-.07-.2-.14-.2-.21s.18-.2.53-.2l1.34,0c.34,0,.73,0,1.19,0l.68,0c.35,0,.52.07.52.2s-.08.15-.24.22a5,5,0,0,1-.71.23,1.5,1.5,0,0,0-.73.45,10.9,10.9,0,0,0-.85,1.19c-.64,1-1.3,2-2,3.16a3.47,3.47,0,0,0-.38.79,4,4,0,0,0-.06.83V19a1.41,1.41,0,0,0,.36,1,1.86,1.86,0,0,0,1.06.51,1.92,1.92,0,0,1,.45.13.21.21,0,0,1,.14.19c0,.13-.18.2-.52.2s-.83,0-1.15-.05-.7,0-1,0-.66,0-1.09,0-.76.05-1.21.05S149.89,20.91,149.89,20.78Z"/><path class="cls-1" d="M158.66,20.32a.85.85,0,0,1-.23-.36,14.17,14.17,0,0,1-.16-1.5l0-.39a.21.21,0,0,1,.1-.19.48.48,0,0,1,.26-.06.26.26,0,0,1,.29.19,3.75,3.75,0,0,0,1,1.95,2.24,2.24,0,0,0,1.54.63A2.1,2.1,0,0,0,163,20a2.16,2.16,0,0,0,.61-1.59,2.66,2.66,0,0,0-.23-1.16,2.2,2.2,0,0,0-.62-.77,12.1,12.1,0,0,0-1.18-.8l-.36-.22a16.45,16.45,0,0,1-1.39-.93,3.84,3.84,0,0,1-.86-1,2.41,2.41,0,0,1-.36-1.31,3.09,3.09,0,0,1,1-2.36A3.92,3.92,0,0,1,162.37,9a5,5,0,0,1,1.88.39.69.69,0,0,1,.24.18.59.59,0,0,1,.14.27q.18.63.27,1a3.29,3.29,0,0,1,.09.76c0,.13-.09.2-.27.2a.82.82,0,0,1-.31-.07.31.31,0,0,1-.19-.18,4.32,4.32,0,0,0-.91-1.48,1.76,1.76,0,0,0-1.25-.48,2.2,2.2,0,0,0-1.48.49,1.93,1.93,0,0,0-.59,1.56,1.51,1.51,0,0,0,.33.93,3.64,3.64,0,0,0,.82.79c.32.24.78.54,1.37.9a14.94,14.94,0,0,1,1.37.94,3.65,3.65,0,0,1,.88,1,2.82,2.82,0,0,1,.36,1.46A3.27,3.27,0,0,1,164,20.22a4.12,4.12,0,0,1-2.84,1A3.85,3.85,0,0,1,158.66,20.32Z"/><path class="cls-1" d="M167.17,20.55a.14.14,0,0,1-.12-.06.28.28,0,0,1-.05-.16.25.25,0,0,1,.06-.16,12.15,12.15,0,0,1,1.33-1.69,13.92,13.92,0,0,1,1.4-1.24c.07-.06.11-.1.11-.12s0-.08-.11-.13c-.55-.43-1-.85-1.45-1.25a9.71,9.71,0,0,1-1.28-1.61.48.48,0,0,1-.09-.27c0-.11,0-.16.11-.16s.3.11.52.32a14.81,14.81,0,0,0,1.74,1.46c.58.41,1.35.91,2.32,1.49,0,0,.05.06.05.13a.64.64,0,0,1-.09.29.84.84,0,0,1-.23.23,10.84,10.84,0,0,0-1.82,1.06,13.65,13.65,0,0,0-1.86,1.55A.93.93,0,0,1,167.17,20.55Zm3.79,0a.14.14,0,0,1-.12-.06.27.27,0,0,1,0-.16.3.3,0,0,1,0-.16,13,13,0,0,1,1.33-1.69,13.92,13.92,0,0,1,1.4-1.24c.08-.06.11-.1.11-.12s0-.08-.11-.13a17.51,17.51,0,0,1-1.44-1.25,9.23,9.23,0,0,1-1.29-1.61.48.48,0,0,1-.09-.27c0-.11,0-.16.11-.16s.3.11.52.32a15.67,15.67,0,0,0,1.74,1.46c.58.41,1.35.91,2.32,1.49,0,0,.06.06.06.13a.67.67,0,0,1-.1.29.72.72,0,0,1-.23.23,10.84,10.84,0,0,0-1.82,1.06,15,15,0,0,0-1.86,1.55A.93.93,0,0,1,171,20.55Z"/><path class="cls-2" d="M180.7,29.08c.05.22.15.1.13-.51l-.18-.43Z"/><path class="cls-2" d="M181,25c-.09-.71-.24-1.53-.4-1.07.17.71.1.88.3,1.63,0,.61-.06,1.06-.12,1a8.3,8.3,0,0,0,.07,1.26,10.92,10.92,0,0,0,0-2.82C181,24.74,181,25,181,25Z"/><path class="cls-2" d="M146.14.54l.39,0Z"/><path class="cls-2" d="M109.51.44a1.59,1.59,0,0,0,.41,0A1.51,1.51,0,0,0,109.51.44Z"/><path class="cls-2" d="M103.25.25h.37A2.43,2.43,0,0,0,103.25.25Z"/><path class="cls-2" d="M146.14.54l-1-.05A3.86,3.86,0,0,0,146.14.54Z"/><path class="cls-2" d="M180.6,16.86c0,.2,0,.37.05.53l0-.5Z"/><path class="cls-2" d="M162.3.4h.29l.25-.07Z"/><path class="cls-2" d="M174.69.37a.67.67,0,0,0-.48.21,1.93,1.93,0,0,1,.61-.1S174.79.42,174.69.37Z"/><path class="cls-2" d="M181.21,14.08l0,.35Z"/><path class="cls-2" d="M153.42.37s-.06,0-.11-.06S153.36.35,153.42.37Z"/><path class="cls-2" d="M166.68,28.38s0,0,0,0S166.78,28.38,166.68,28.38Z"/><path class="cls-2" d="M181.05,29.12h-.2s0,.05,0,.08Z"/><path class="cls-2" d="M91.8.06h0Z"/><path class="cls-2" d="M.24,14.94c.13-1.19.17,1.93.32.14C.5,15.25.33,13.45.24,14.94Z"/><path class="cls-2" d="M180.62,16.54v0Z"/><path class="cls-2" d="M.56,15.08h0v0Z"/><path class="cls-2" d="M65.42.15a1.15,1.15,0,0,0,.27.07S65.62.18,65.42.15Z"/><path class="cls-2" d="M85.08.36l-.49,0A4.44,4.44,0,0,0,85.08.36Z"/><path class="cls-2" d="M55.22.36a5.3,5.3,0,0,0-.71,0l.11,0A2.69,2.69,0,0,1,55.22.36Z"/><path class="cls-2" d="M44.6.36l.2,0h.33Z"/><path class="cls-2" d="M134.41,28.46a2.07,2.07,0,0,1,.49.13C134.74,28.48,136.3,28.45,134.41,28.46Z"/><path class="cls-2" d="M180.69,16.85a.64.64,0,0,1-.07-.31v.35S180.67,16.93,180.69,16.85Z"/><path class="cls-2" d="M54.79,1.53l-1.69,0Z"/><path class="cls-2" d="M58.22,28.48l.39,0A2.24,2.24,0,0,0,58.22,28.48Z"/><path class="cls-2" d="M48.09,1.53a9.23,9.23,0,0,0-1-.1.78.78,0,0,0-.19,0Z"/><path class="cls-2" d="M134.9,28.59Z"/><path class="cls-2" d="M146,28.24c-1.61,0-.76.19-1.1.3-1.92.06-.89-.14-1.54-.24-1.2.05-2.12.23-3,.22-.07,0-.24,0,0-.08-1.26.15-3.76,0-5.23.2a.68.68,0,0,1-.2-.05c.24.1.28.2.23.27a6.25,6.25,0,0,1-1.61,0,2,2,0,0,0,.69-.08l-.76.05c-.68-.18,1-.06,1-.2-1.47.06-3.19.21-4.31.16-.24-.18,2.63-.06,1.13-.22l1.74.07c-1.33-.28,1.07,0-.16-.28-2.3-.05-2.57.09-4.86,0-.52.1.17.14-.35.24-3.26.18-2.56-.45-5-.21a6,6,0,0,1-2.56.23l.58-.2c-2.23,0-1.27.29-3.6.15.41-.08,1.75-.07,1.41-.09-1.51-.16-1.07.11-2.23.11l-.24-.18-7.6.2c.15-.06.6-.11,0-.17-3.31.09-7.06,0-10.25-.13L97,28.5c-.28,0-.53-.07-.22-.1-1.24-.06-.06.1-.66.16s-.94-.09-.49-.14a83.81,83.81,0,0,1-8.56.12l.45-.05c-1.8-.06-2,.32-3.7.18l.32,0c-3.91-.07-8.23.07-11.21-.16-.57.22-3.87-.1-4.12.21-2.23-.15-1.59-.21-4.74-.31-.84,0-1.25.19-2.28.22l0-.16-1.41.17-.75-.19-1,0c.39,0,.82.07.76.12a17.94,17.94,0,0,1-3.74-.2l-3.6.14a5.73,5.73,0,0,1,1.16-.13c-1.92.17-.35-.17-2.11,0,.24,0-.12.1-.16.13a42.18,42.18,0,0,0-4.35-.06l.28-.11c-2.67,0-5.63.05-8.62.05,1.07.05.83.25,0,.27l-.35-.17c-.57.1.92.06-.25.19-1.12,0-.75-.19-.11-.25l-1.36.06c-.08-.05.24-.08.32-.15-.55.11-2.34-.17-3.15,0l-.07-.05-6.79.06c-.05.15-1,.12-1.73.24-1.79-.05-3.78-.17-5.94-.15-1.52.07-.44.12-1.13.21-.11-.13-2.26-.12-1.15-.22-2.59,0-3.3,0-6.58.14.35.05.75.08.55.12-.6,0-1.36-.05-1.27-.12h.16c-1.31.07-2.76,0-4.22,0l-2.17-.09-1.06,0c-.24,0-.19,0-.24,0H1.55v-.87c0-.5,0-1-.07-1.39v.17l-.14-3c0-1.4.1.84.18-.2-.22-3.27,0-5.17-.11-7.87.4-2.09,0-7.41.22-10.23l-.09.16A5.62,5.62,0,0,1,1.62,3.7c-.07.08-.08.79-.13.34,0-.87,0-1.75,0-2.65l3.32,0,4,.07,7.92.15c2.31,0,1.31-.49,4.23-.26l-.83.17c4.67-.21,9.55,0,14.12-.17a2.73,2.73,0,0,1-.72.1,16.86,16.86,0,0,0,3.59-.1c.71,0,.16.09.6.14,1,.08,2.43-.16,3,0,.08,0-.28,0-.45.05.63-.06,2.94,0,2.33-.13,1.72.07,3.29-.07,4.65,0,.9-.16,2.94.08,3.23-.15-.13.24,3,.19,4.09.08-.36.07.94.07.52.17,1.24,0,2.37,0,2.15-.17,2.29.29,4.59-.23,5.87.14,3.68-.13,7.09-.22,10.4-.27-.12.24-3.66,0-3.52.27,3.14-.1,5-.3,8.06-.24.81,0-.46.1-.73.14,3.14-.1,6.07,0,8.86-.11a3.31,3.31,0,0,1-.6.07c.55,0,1.28,0,1.22-.08l-.54,0C85.28,1.16,88.34,1,88.44.9c-.94.31,2.75.08,1.27.47.36,0,.82-.07.73-.14.54,0,.71.06.17.14,2-.06,1.27-.17,3-.17,0,.05-.37.07-.55.14a19.14,19.14,0,0,1,3.32-.16c-.09,0,.08.07-.37.07,2.59,0,4.42-.27,7.26-.18-.84.23,1,.08,1.12.28L106,1.29l-.61-.1c1.34,0,2.52-.14,3.67-.07l-1,.08,2.51,0-1.42-.07c1.35-.11-.15-.25,1.63-.2-.36,0,1.34,0,2,.12h0a14.8,14.8,0,0,1,2.33-.08c.26.06-.21.22,0,.26.65-.17,3.13-.05,4-.22-.27,0-.29.14-.2.16l.55-.13c.62,0,.71.06.61.15,1.86,0-.59-.25,1.62-.15-.17,0-.09,0-.45.06,2.22.05,4.29-.09,6.34,0,.6.19-1.79,0-1.1.21,3,0,6.1-.24,9-.19l-.53,0c.39-.28,2.12.14,3.56,0-.35,0-.46.15-.36.12,1.95,0,4-.07,6.94-.16l-.36.07c1.15.07,3,0,4.27.07.37-.07,1.08-.06.65-.16,3.83.41,7.31-.22,10.71.12-.41,0-1,.06-.65.06l2.9-.06a3.33,3.33,0,0,0-1-.17,12.57,12.57,0,0,1,1.9-.13c-1.3.08,0,.2.57.27-.09,0,.1-.08.05-.12,1.52.22.26-.25,2.32-.1l-.11.06c.78,0,1.49-.11,2.32-.1.35.15-.82.07-.87.19A26,26,0,0,1,171,.88l-1.7.08a13.89,13.89,0,0,0,2.14.15h-.08l2,.08-.51-.05c1.47-.36,3-.06,5-.3-1.92.22-.32.13-.46.29.5,0,1.27.09,1,.14a7,7,0,0,1,1.21,0l.6,0a2.63,2.63,0,0,0,.41-.05l0,.1a.88.88,0,0,0,0,.28c0,.09,0,.36-.1.23,0,1.22.09-.29.16-.18.17,1.86-.22,4.39,0,7.08.1,2.32.27,2.75.36,4.9-.09.72-.19-.6-.19-.6a23.79,23.79,0,0,0,0,3.16c0-.22-.09,0-.15.34a9.49,9.49,0,0,1,.12,1.76,5,5,0,0,1-.21-.88c.06,1,.12,2.08.19,3.16-.09.28-.14-.66-.2-1a25.9,25.9,0,0,0,.23,3.52l0-.77c0,.44-.12.22-.15-.1a2.91,2.91,0,0,1,.1-1.56l0,.77c.31-.79,0-3.1,0-4.65l.22.65-.18-1.59c.06-.34.18-.57.21.2.11-1.11-.07-1,0-1.94,0-.11,0-.06,0,0L181.14,13c.05.22.15-.18.12.49.13-2-.16-3.14,0-3.87l0,.16c-.08-2.7-.16-.26-.35-2.29l.4-1.36-.17-.27c0-.28,0-.83.09-.73-.11-1-.07.18-.18-.42.07-.64.06-1.5.06-2.26a8.51,8.51,0,0,1,.09-1.82c-.05,0-.07,0-.07,0-.25,0-.13.07,0,.08,0,.31,0,.67-.08.08l-.27,0c-.11-.14-.68-.13-1.15-.1a11.22,11.22,0,0,1-1.75,0c.37-.14,1.54-.07.31-.2-.74.25-2.39,0-3.42,0,0,.19-2.25.08-4,.14.11-.06-3.26-.1-4.88-.17l.05,0a15.12,15.12,0,0,1-3.19.2c.05-.11.27-.16.92-.21h-1.14a8.17,8.17,0,0,1-1.36.12l.29-.15c-1.52,0-3.06.17-5,.07-.11.14,1.55.38-.51.47-.08-.07-.16-.2.39-.23a7.14,7.14,0,0,1-1,0l.82-.12c-.89,0-.46.1-1.17.09,0-.1-.53-.07-.43-.16a8.47,8.47,0,0,0,.89,0,14.76,14.76,0,0,1-2.09-.16c.07.06,0,.14-.58.15-1.52,0-.52-.12-1.41-.18-.36.07-1.33,0-1.36.16a2.14,2.14,0,0,1-.7-.12c-.78.07-3.66,0-2.78.19h.08c-2.58.16-5.35-.09-7.9,0V.51c-1.52.06-3.39,0-4.48.15-.45,0-1.07-.1-.87-.16a22.13,22.13,0,0,1-3,0c1.17-.09-.41-.08,1.2-.07a22.53,22.53,0,0,0-3.48,0c.55-.14-1.14-.17-1.86-.13l1.06.1c-.81,0-1.52,0-2.24,0l.39-.17c-3.1-.22-5.59.36-7.94,0-.82.12,1.68.09.94.23-1.42,0-2.91-.27-3.35-.27-2-.1-1.82.25-3.87.19.27.06.51.23-1,.29s-1.76-.27-.86-.32c.34,0,.51,0,.5,0,.46,0,1.06,0,.5-.12l-.19.06c-.71-.06-2.67,0-2.21-.16-1.08.06-.46.11.34.14-1.83-.09-2.86,0-4.74-.07.3,0,.57.11.28.11a19.84,19.84,0,0,0-3.09.15c-1.06-.1.38-.23-1.5-.15-1.15-.06-.25-.17.21-.22a36.53,36.53,0,0,1-4.19-.1l.91,0c-.54,0-1,0-1.44,0l.52.12a3.82,3.82,0,0,1-1-.07c-.55.08.42.21-.67.32a14.63,14.63,0,0,1-2.4-.1C93.51.36,91,.14,92.92.11c-.36,0-.81,0-1.34,0-.08,0,.08,0,.22,0-2.13-.15-1,.19-3.18.19.28-.1-.52-.18-.88-.16.89,0,.43.15-.39.23a20,20,0,0,0-2.27,0l.84,0a12.38,12.38,0,0,1-2,.11c-.08-.08.9,0,.54-.08-1.09.16-2.47-.18-4-.06-.71-.07-.07-.18-.69-.22-1.71.12-1.85-.13-3.65,0,.52.12.61.09-.66.22l3-.09-1.9.18c.89,0,1.88-.08,2.42-.06-.9.11-.81.07-.38.18-1.23-.19-2.43.11-3.84,0l0-.31C72.66.08,71,.38,68.26.3l.88.06c-.37.12-1.7,0-2.59.06.08-.1-.48-.14-.86-.2a15,15,0,0,0-2.26.2L62.19.28C60,.22,59.65.58,57.52.54c.64-.11-.33-.19,1.1-.27a4.88,4.88,0,0,0-1.37.06c-.41-.07-2,.14-2.63,0a4.22,4.22,0,0,1-1.21.14c-.08,0,0,0,0,0s-1.26.07-.56.19c-2.2-.33-6.15,0-8.06-.26L39.94.47c.1,0,0,0,.28,0-2-.1-1.2.3-3.42.19C35.66.45,38,.53,37.27.46,37,.12,34.59.51,33.09.31l.36,0c-1.14-.12-2.78.13-4.65.1,0,0,.09,0,0,0-1.28.18-3.69.24-5.49.28.56-.13.82-.07.47-.2-.8,0,.24.22-1.37.25A8.31,8.31,0,0,1,20.59.39H22.1a15.88,15.88,0,0,0-2.76,0l.1-.09c-2.32,0-2.35.24-4.85.22l.26.07c-1.36.2-1.14-.12-2.5,0L11.93.38c-.9,0-3.15.21-4.76.25.91-.16,2.8-.24,4-.33-.89,0-3,0-3.5.12a9.15,9.15,0,0,1,1.17,0A31.15,31.15,0,0,1,4.5.62C4.6.49,4.14.43,3.43.4L2.21.38.43.36c0,.36,0,.71,0,1l0,.41v.31a5.74,5.74,0,0,1-.12.95C.42,6.22.21,9.31.23,13c.32-1.3,0,1.07.34.84a9,9,0,0,1,0,1.26L.37,17.67c-.1.61-.07-.82-.15-.74A9.41,9.41,0,0,1,0,19c.12-.25.17.65.12,1.72l.15-1.5c.17,2.61-.27,2.26-.1,4.89l-.1-.83c0,.61,0,1.69,0,2.8s.05,2,.14,3.65c.32,0,.58,0,.8-.07s.93.13-.14.15H2.51l1.28,0,2.6-.08c1.7-.06,3.32-.1,4.58,0l-.25.08a10.21,10.21,0,0,1,1.8-.07s-.24.08,0,.09a19.22,19.22,0,0,1,2.4-.09l-.68.08c3.15.11,4.83-.21,7.47-.27,0,.24,2.47.31,3.71.35l0,0c3.66,0,6.23-.19,9.62-.28,2.11.25,7.14.1,10.53.25-.52,0,.08-.19.69-.21.79,0,2.2-.16,2.07,0h-.28a17.41,17.41,0,0,0,3.5.16l.22-.28c3.33.4,8.74-.15,10.56.21.81-.07,1.8-.07,2.6-.14l0,.15c2.23,0,3.34.06,6.1,0l-.56.1c1.56,0,2-.43,3.4-.44l.43.23c2.72,0,5.46.19,8.14,0,0,0-.12.09-.56.1,1.28,0,4.94.15,4.48-.15,0,.2,2.8,0,4.27-.07l-.23.15a16.71,16.71,0,0,1,3-.3c.41,0,.36.12-.18.08,1.36.08,1.06-.14,2.71-.06l-.61.1a8.19,8.19,0,0,0,2.06-.15,11.71,11.71,0,0,1,2.87.17,5.83,5.83,0,0,1,1.79-.15c.11.05-.19.08-.34.09,2.34.1,3.49-.17,5.1,0,0,.05.14.07.27.09-1.86,0-3.36,0-3.22,0s1.5.16.31.35a43,43,0,0,1,4.74-.26l.19,0h-.15a9.28,9.28,0,0,0,.93,0c.47,0,.77,0,1.22,0a17,17,0,0,0,2.47.07c-.06-.15.93-.13,0-.25.12,0-.14,0-.64,0l-.32,0h-1.81a8.28,8.28,0,0,1,2-.06c.39-.1.81-.2,1-.24,1,.21,3,.32,3.28.45a66.93,66.93,0,0,0,6.85-.34,2.31,2.31,0,0,1,1,.13c-.37,0-.82,0-1,.06a32.84,32.84,0,0,0,4.18-.22c1.64.08-.93.18,1.33.14l-.3.06c4.44.32,7.22-.49,12.14-.09a3.11,3.11,0,0,1-.58-.07c5.62.17,11.57-.17,17.11.11a12.85,12.85,0,0,0,2.71-.16l.34.16,1.64-.19c2.33-.13,4,.4,7,.14l-.38-.11a24.92,24.92,0,0,1,3.17.06,1.83,1.83,0,0,1,.77-.05l0,.08,2.6-.14c2,.06-.32.33,2.63.35a11.58,11.58,0,0,0,2.7-.3,3.38,3.38,0,0,1-1.16-.14l1,0c.19-.25,1-.5-1.5-.67l-1.71.15-.56-.12h1.45a6.54,6.54,0,0,0-1.92.06,2,2,0,0,0-.72-.13l-1.68.23c-.2-.1.75-.19-.37-.24-.79.11.75.21-.55.28a3.66,3.66,0,0,0-1.54-.1c-.14-.07.07-.11.45-.14-.86.08-2.27,0-2.71.17-.85-.14-2.89,0-2.8-.2a18.65,18.65,0,0,1-2.3.19c1.44-.28-2.94,0-2.56-.31-1.06.25-3.84.11-5.72.25a2.08,2.08,0,0,1,.48-.05c-1.06,0-1.37-.1-2.05-.14a13.45,13.45,0,0,1-2.68.38c-1.3-.2.79-.24.38-.44.07.17-2.25.17-1.81.31a4.71,4.71,0,0,1-1.37-.23c-.17.26-.92,0-1.75.2-1.43-.13-.37-.24-1.95-.16C144.61,28.33,146,28.24,146,28.24Zm-37.55.45h.77Zm-3.16,0h1.37c.11.06,0,.11-.33.11C106.52,28.76,105.78,28.73,105.31,28.69Zm6.68,1a2.06,2.06,0,0,1-.74,0l.87,0,.06,0A.57.57,0,0,1,112,29.72Z"/><path class="cls-2" d="M112.88,29.52h.21l-.3,0-.18.05Z"/><path class="cls-2" d="M146.59.57h-.06l.14,0Z"/><polygon class="cls-2" points="61.73 28.4 61.74 28.44 62.02 28.41 61.73 28.4"/><path class="cls-2" d="M164,1.08l.23,0Z"/><path class="cls-2" d="M171.48,1.11l1.06,0Z"/><path class="cls-2" d="M177.25,1.18a.21.21,0,0,0,.12-.06h0Z"/><path class="cls-2" d="M85.47,1.36h-.22C84.73,1.39,85.08,1.38,85.47,1.36Z"/><path class="cls-2" d="M112.79,1l-.88.07C112.39,1.09,112.77,1.09,112.79,1Z"/><path class="cls-2" d="M55,1.54h0Z"/><path class="cls-2" d="M110.64,1.08a10.72,10.72,0,0,0,1.27,0C111.51,1.07,111,1.05,110.64,1.08Z"/><path class="cls-2" d="M180.59,22v.28s0,0,0,0Z"/><path class="cls-2" d="M180.61,22.32v.3A2.12,2.12,0,0,0,180.61,22.32Z"/><path class="cls-2" d="M180.66,23.27l0-.65A3.09,3.09,0,0,0,180.66,23.27Z"/><path class="cls-2" d="M180.66,14.36l-.06-.08S180.63,14.35,180.66,14.36Z"/><path class="cls-2" d="M180.64,12c0,.55-.11,1.39-.08,2.16l0,.08C180.52,13.91,180.73,12.57,180.64,12Z"/><path class="cls-2" d="M181.31,2.35l0,1.94c0-.34.13-.78.14.1C181.59,1.94,181.29,4.9,181.31,2.35Z"/><path class="cls-2" d="M176.58.45c1,0,0-.09,0-.12C176,.38,175.8.4,176.58.45Z"/><path class="cls-2" d="M133,.45l.1-.14C132.28.33,133.08.36,133,.45Z"/><polygon class="cls-2" points="124.64 1.15 125.43 1.23 125.8 1.11 124.64 1.15"/><polygon class="cls-2" points="119.72 0.18 120.07 0.16 118.73 0.21 119.72 0.18"/><path class="cls-2" d="M46.49.23l.24.17C47.28.37,47.39.18,46.49.23Z"/><path class="cls-2" d="M14.88.4A6.41,6.41,0,0,0,13.09.34C13.81.36,14.51.42,14.88.4Z"/><polygon class="cls-2" points="53.35 29.74 52.72 29.8 53.91 29.75 53.35 29.74"/></g></g></svg>