<svg xmlns="http://www.w3.org/2000/svg" viewBox="0 0 181.47 29.88"><defs><style>.cls-1{fill:#252525;}.cls-2{fill:#1d1d1b;}</style></defs><g id="Calque_2" data-name="Calque 2"><g id="Header"><path class="cls-1" d="M180.7,29.08c.05.22.15.1.13-.51l-.18-.43Z"/><path class="cls-1" d="M181,25c-.09-.71-.24-1.53-.4-1.07.17.71.1.88.3,1.63,0,.61-.06,1.06-.12,1a8.3,8.3,0,0,0,.07,1.26,10.92,10.92,0,0,0,0-2.82C181,24.74,181,25,181,25Z"/><path class="cls-1" d="M146.14.54l.39,0Z"/><path class="cls-1" d="M109.51.44a1.59,1.59,0,0,0,.41,0A1.51,1.51,0,0,0,109.51.44Z"/><path class="cls-1" d="M103.25.25h.37A2.43,2.43,0,0,0,103.25.25Z"/><path class="cls-1" d="M146.14.54l-1-.05A3.86,3.86,0,0,0,146.14.54Z"/><path class="cls-1" d="M180.6,16.86c0,.2,0,.37.05.53l0-.5Z"/><path class="cls-1" d="M162.3.4h.29l.25-.07Z"/><path class="cls-1" d="M174.69.37a.67.67,0,0,0-.48.21,1.93,1.93,0,0,1,.61-.1S174.79.42,174.69.37Z"/><path class="cls-1" d="M181.21,14.08l0,.35Z"/><path class="cls-1" d="M153.42.37s-.06,0-.11-.06S153.36.35,153.42.37Z"/><path class="cls-1" d="M166.68,28.38s0,0,0,0S166.78,28.38,166.68,28.38Z"/><path class="cls-1" d="M181.05,29.12h-.2s0,.05,0,.08Z"/><path class="cls-1" d="M91.8.06h0Z"/><path class="cls-1" d="M.24,14.94c.13-1.19.17,1.93.32.14C.5,15.25.33,13.45.24,14.94Z"/><path class="cls-1" d="M180.62,16.54v0Z"/><path class="cls-1" d="M.56,15.08h0v0Z"/><path class="cls-1" d="M65.42.15a1.15,1.15,0,0,0,.27.07S65.62.18,65.42.15Z"/><path class="cls-1" d="M85.08.36l-.49,0A4.44,4.44,0,0,0,85.08.36Z"/><path class="cls-1" d="M55.22.36a5.3,5.3,0,0,0-.71,0l.11,0A2.69,2.69,0,0,1,55.22.36Z"/><path class="cls-1" d="M44.6.36l.2,0h.33Z"/><path class="cls-1" d="M134.41,28.46a2.07,2.07,0,0,1,.49.13C134.74,28.48,136.3,28.45,134.41,28.46Z"/><path class="cls-1" d="M180.69,16.85a.64.64,0,0,1-.07-.31v.35S180.67,16.93,180.69,16.85Z"/><path class="cls-1" d="M54.79,1.53l-1.69,0Z"/><path class="cls-1" d="M58.22,28.48l.39,0A2.24,2.24,0,0,0,58.22,28.48Z"/><path class="cls-1" d="M48.09,1.53a9.23,9.23,0,0,0-1-.1.78.78,0,0,0-.19,0Z"/><path class="cls-1" d="M134.9,28.59Z"/><path class="cls-1" d="M146,28.24c-1.61,0-.76.19-1.1.3-1.92.06-.89-.14-1.54-.24-1.2.05-2.12.23-3,.22-.07,0-.24,0,0-.08-1.26.15-3.76,0-5.23.2a.68.68,0,0,1-.2-.05c.24.1.28.2.23.27a6.25,6.25,0,0,1-1.61,0,2,2,0,0,0,.69-.08l-.76.05c-.68-.18,1-.06,1-.2-1.47.06-3.19.21-4.31.16-.24-.18,2.63-.06,1.13-.22l1.74.07c-1.33-.28,1.07,0-.16-.28-2.3-.05-2.57.09-4.86,0-.52.1.17.14-.35.24-3.26.18-2.56-.45-5-.21a6,6,0,0,1-2.56.23l.58-.2c-2.23,0-1.27.29-3.6.15.41-.08,1.75-.07,1.41-.09-1.51-.16-1.07.11-2.23.11l-.24-.18-7.6.2c.15-.06.6-.11,0-.17-3.31.09-7.06,0-10.25-.13L97,28.5c-.28,0-.53-.07-.22-.1-1.24-.06-.06.1-.66.16s-.94-.09-.49-.14a83.81,83.81,0,0,1-8.56.12l.45-.05c-1.8-.06-2,.32-3.7.18l.32,0c-3.91-.07-8.23.07-11.21-.16-.57.22-3.87-.1-4.12.21-2.23-.15-1.59-.21-4.74-.31-.84,0-1.25.19-2.28.22l0-.16-1.41.17-.75-.19-1,0c.39,0,.82.07.76.12a17.94,17.94,0,0,1-3.74-.2l-3.6.14a5.73,5.73,0,0,1,1.16-.13c-1.92.17-.35-.17-2.11,0,.24,0-.12.1-.16.13a42.18,42.18,0,0,0-4.35-.06l.28-.11c-2.67,0-5.63.05-8.62.05,1.07.05.83.25,0,.27l-.35-.17c-.57.1.92.06-.25.19-1.12,0-.75-.19-.11-.25l-1.36.06c-.08-.05.24-.08.32-.15-.55.11-2.34-.17-3.15,0l-.07-.05-6.79.06c-.05.15-1,.12-1.73.24-1.79-.05-3.78-.17-5.94-.15-1.52.07-.44.12-1.13.21-.11-.13-2.26-.12-1.15-.22-2.59,0-3.3,0-6.58.14.35.05.75.08.55.12-.6,0-1.36-.05-1.27-.12h.16c-1.31.07-2.76,0-4.22,0l-2.17-.09-1.06,0c-.24,0-.19,0-.24,0H1.55v-.87c0-.5,0-1-.07-1.39v.17l-.14-3c0-1.4.1.84.18-.2-.22-3.27,0-5.17-.11-7.87.4-2.09,0-7.41.22-10.23l-.09.16A5.62,5.62,0,0,1,1.62,3.7c-.07.08-.08.79-.13.34,0-.87,0-1.75,0-2.65l3.32,0,4,.07,7.92.15c2.31,0,1.31-.49,4.23-.26l-.83.17c4.67-.21,9.55,0,14.12-.17a2.73,2.73,0,0,1-.72.1,16.86,16.86,0,0,0,3.59-.1c.71,0,.16.09.6.14,1,.08,2.43-.16,3,0,.08,0-.28,0-.45.05.63-.06,2.94,0,2.33-.13,1.72.07,3.29-.07,4.65,0,.9-.16,2.94.08,3.23-.15-.13.24,3,.19,4.09.08-.36.07.94.07.52.17,1.24,0,2.37,0,2.15-.17,2.29.29,4.59-.23,5.87.14,3.68-.13,7.09-.22,10.4-.27-.12.24-3.66,0-3.52.27,3.14-.1,5-.3,8.06-.24.81,0-.46.1-.73.14,3.14-.1,6.07,0,8.86-.11a3.31,3.31,0,0,1-.6.07c.55,0,1.28,0,1.22-.08l-.54,0C85.28,1.16,88.34,1,88.44.9c-.94.31,2.75.08,1.27.47.36,0,.82-.07.73-.14.54,0,.71.06.17.14,2-.06,1.27-.17,3-.17,0,.05-.37.07-.55.14a19.14,19.14,0,0,1,3.32-.16c-.09,0,.08.07-.37.07,2.59,0,4.42-.27,7.26-.18-.84.23,1,.08,1.12.28L106,1.29l-.61-.1c1.34,0,2.52-.14,3.67-.07l-1,.08,2.51,0-1.42-.07c1.35-.11-.15-.25,1.63-.2-.36,0,1.34,0,2,.12h0a14.8,14.8,0,0,1,2.33-.08c.26.06-.21.22,0,.26.65-.17,3.13-.05,4-.22-.27,0-.29.14-.2.16l.55-.13c.62,0,.71.06.61.15,1.86,0-.59-.25,1.62-.15-.17,0-.09,0-.45.06,2.22.05,4.29-.09,6.34,0,.6.19-1.79,0-1.1.21,3,0,6.1-.24,9-.19l-.53,0c.39-.28,2.12.14,3.56,0-.35,0-.46.15-.36.12,1.95,0,4-.07,6.94-.16l-.36.07c1.15.07,3,0,4.27.07.37-.07,1.08-.06.65-.16,3.83.41,7.31-.22,10.71.12-.41,0-1,.06-.65.06l2.9-.06a3.33,3.33,0,0,0-1-.17,12.57,12.57,0,0,1,1.9-.13c-1.3.08,0,.2.57.27-.09,0,.1-.08.05-.12,1.52.22.26-.25,2.32-.1l-.11.06c.78,0,1.49-.11,2.32-.1.35.15-.82.07-.87.19A26,26,0,0,1,171,.88l-1.7.08a13.89,13.89,0,0,0,2.14.15h-.08l2,.08-.51-.05c1.47-.36,3-.06,5-.3-1.92.22-.32.13-.46.29.5,0,1.27.09,1,.14a7,7,0,0,1,1.21,0l.6,0a2.63,2.63,0,0,0,.41-.05l0,.1a.88.88,0,0,0,0,.28c0,.09,0,.36-.1.23,0,1.22.09-.29.16-.18.17,1.86-.22,4.39,0,7.08.1,2.32.27,2.75.36,4.9-.09.72-.19-.6-.19-.6a23.79,23.79,0,0,0,0,3.16c0-.22-.09,0-.15.34a9.49,9.49,0,0,1,.12,1.76,5,5,0,0,1-.21-.88c.06,1,.12,2.08.19,3.16-.09.28-.14-.66-.2-1a25.9,25.9,0,0,0,.23,3.52l0-.77c0,.44-.12.22-.15-.1a2.91,2.91,0,0,1,.1-1.56l0,.77c.31-.79,0-3.1,0-4.65l.22.65-.18-1.59c.06-.34.18-.57.21.2.11-1.11-.07-1,0-1.94,0-.11,0-.06,0,0L181.14,13c.05.22.15-.18.12.49.13-2-.16-3.14,0-3.87l0,.16c-.08-2.7-.16-.26-.35-2.29l.4-1.36-.17-.27c0-.28,0-.83.09-.73-.11-1-.07.18-.18-.42.07-.64.06-1.5.06-2.26a8.51,8.51,0,0,1,.09-1.82c-.05,0-.07,0-.07,0-.25,0-.13.07,0,.08,0,.31,0,.67-.08.08l-.27,0c-.11-.14-.68-.13-1.15-.1a11.22,11.22,0,0,1-1.75,0c.37-.14,1.54-.07.31-.2-.74.25-2.39,0-3.42,0,0,.19-2.25.08-4,.14.11-.06-3.26-.1-4.88-.17l.05,0a15.12,15.12,0,0,1-3.19.2c.05-.11.27-.16.92-.21h-1.14a8.17,8.17,0,0,1-1.36.12l.29-.15c-1.52,0-3.06.17-5,.07-.11.14,1.55.38-.51.47-.08-.07-.16-.2.39-.23a7.14,7.14,0,0,1-1,0l.82-.12c-.89,0-.46.1-1.17.09,0-.1-.53-.07-.43-.16a8.47,8.47,0,0,0,.89,0,14.76,14.76,0,0,1-2.09-.16c.07.06,0,.14-.58.15-1.52,0-.52-.12-1.41-.18-.36.07-1.33,0-1.36.16a2.14,2.14,0,0,1-.7-.12c-.78.07-3.66,0-2.78.19h.08c-2.58.16-5.35-.09-7.9,0V.51c-1.52.06-3.39,0-4.48.15-.45,0-1.07-.1-.87-.16a22.13,22.13,0,0,1-3,0c1.17-.09-.41-.08,1.2-.07a22.53,22.53,0,0,0-3.48,0c.55-.14-1.14-.17-1.86-.13l1.06.1c-.81,0-1.52,0-2.24,0l.39-.17c-3.1-.22-5.59.36-7.94,0-.82.12,1.68.09.94.23-1.42,0-2.91-.27-3.35-.27-2-.1-1.82.25-3.87.19.27.06.51.23-1,.29s-1.76-.27-.86-.32c.34,0,.51,0,.5,0,.46,0,1.06,0,.5-.12l-.19.06c-.71-.06-2.67,0-2.21-.16-1.08.06-.46.11.34.14-1.83-.09-2.86,0-4.74-.07.3,0,.57.11.28.11a19.84,19.84,0,0,0-3.09.15c-1.06-.1.38-.23-1.5-.15-1.15-.06-.25-.17.21-.22a36.53,36.53,0,0,1-4.19-.1l.91,0c-.54,0-1,0-1.44,0l.52.12a3.82,3.82,0,0,1-1-.07c-.55.08.42.21-.67.32a14.63,14.63,0,0,1-2.4-.1C93.51.36,91,.14,92.92.11c-.36,0-.81,0-1.34,0-.08,0,.08,0,.22,0-2.13-.15-1,.19-3.18.19.28-.1-.52-.18-.88-.16.89,0,.43.15-.39.23a20,20,0,0,0-2.27,0l.84,0a12.38,12.38,0,0,1-2,.11c-.08-.08.9,0,.54-.08-1.09.16-2.47-.18-4-.06-.71-.07-.07-.18-.69-.22-1.71.12-1.85-.13-3.65,0,.52.12.61.09-.66.22l3-.09-1.9.18c.89,0,1.88-.08,2.42-.06-.9.11-.81.07-.38.18-1.23-.19-2.43.11-3.84,0l0-.31C72.66.08,71,.38,68.26.3l.88.06c-.37.12-1.7,0-2.59.06.08-.1-.48-.14-.86-.2a15,15,0,0,0-2.26.2L62.19.28C60,.22,59.65.58,57.52.54c.64-.11-.33-.19,1.1-.27a4.88,4.88,0,0,0-1.37.06c-.41-.07-2,.14-2.63,0a4.22,4.22,0,0,1-1.21.14c-.08,0,0,0,0,0s-1.26.07-.56.19c-2.2-.33-6.15,0-8.06-.26L39.94.47c.1,0,0,0,.28,0-2-.1-1.2.3-3.42.19C35.66.45,38,.53,37.27.46,37,.12,34.59.51,33.09.31l.36,0c-1.14-.12-2.78.13-4.65.1,0,0,.09,0,0,0-1.28.18-3.69.24-5.49.28.56-.13.82-.07.47-.2-.8,0,.24.22-1.37.25A8.31,8.31,0,0,1,20.59.39H22.1a15.88,15.88,0,0,0-2.76,0l.1-.09c-2.32,0-2.35.24-4.85.22l.26.07c-1.36.2-1.14-.12-2.5,0L11.93.38c-.9,0-3.15.21-4.76.25.91-.16,2.8-.24,4-.33-.89,0-3,0-3.5.12a9.15,9.15,0,0,1,1.17,0A31.15,31.15,0,0,1,4.5.62C4.6.49,4.14.43,3.43.4L2.21.38.43.36c0,.36,0,.71,0,1l0,.41v.31a5.74,5.74,0,0,1-.12.95C.42,6.22.21,9.31.23,13c.32-1.3,0,1.07.34.84a9,9,0,0,1,0,1.26L.37,17.67c-.1.61-.07-.82-.15-.74A9.41,9.41,0,0,1,0,19c.12-.25.17.65.12,1.72l.15-1.5c.17,2.61-.27,2.26-.1,4.89l-.1-.83c0,.61,0,1.69,0,2.8s.05,2,.14,3.65c.32,0,.58,0,.8-.07s.93.13-.14.15H2.51l1.28,0,2.6-.08c1.7-.06,3.32-.1,4.58,0l-.25.08a10.21,10.21,0,0,1,1.8-.07s-.24.08,0,.09a19.22,19.22,0,0,1,2.4-.09l-.68.08c3.15.11,4.83-.21,7.47-.27,0,.24,2.47.31,3.71.35l0,0c3.66,0,6.23-.19,9.62-.28,2.11.25,7.14.1,10.53.25-.52,0,.08-.19.69-.21.79,0,2.2-.16,2.07,0h-.28a17.41,17.41,0,0,0,3.5.16l.22-.28c3.33.4,8.74-.15,10.56.21.81-.07,1.8-.07,2.6-.14l0,.15c2.23,0,3.34.06,6.1,0l-.56.1c1.56,0,2-.43,3.4-.44l.43.23c2.72,0,5.46.19,8.14,0,0,0-.12.09-.56.1,1.28,0,4.94.15,4.48-.15,0,.2,2.8,0,4.27-.07l-.23.15a16.71,16.71,0,0,1,3-.3c.41,0,.36.12-.18.08,1.36.08,1.06-.14,2.71-.06l-.61.1a8.19,8.19,0,0,0,2.06-.15,11.71,11.71,0,0,1,2.87.17,5.83,5.83,0,0,1,1.79-.15c.11.05-.19.08-.34.09,2.34.1,3.49-.17,5.1,0,0,.05.14.07.27.09-1.86,0-3.36,0-3.22,0s1.5.16.31.35a43,43,0,0,1,4.74-.26l.19,0h-.15a9.28,9.28,0,0,0,.93,0c.47,0,.77,0,1.22,0a17,17,0,0,0,2.47.07c-.06-.15.93-.13,0-.25.12,0-.14,0-.64,0l-.32,0h-1.81a8.28,8.28,0,0,1,2-.06c.39-.1.81-.2,1-.24,1,.21,3,.32,3.28.45a66.93,66.93,0,0,0,6.85-.34,2.31,2.31,0,0,1,1,.13c-.37,0-.82,0-1,.06a32.84,32.84,0,0,0,4.18-.22c1.64.08-.93.18,1.33.14l-.3.06c4.44.32,7.22-.49,12.14-.09a3.11,3.11,0,0,1-.58-.07c5.62.17,11.57-.17,17.11.11a12.85,12.85,0,0,0,2.71-.16l.34.16,1.64-.19c2.33-.13,4,.4,7,.14l-.38-.11a24.92,24.92,0,0,1,3.17.06,1.83,1.83,0,0,1,.77-.05l0,.08,2.6-.14c2,.06-.32.33,2.63.35a11.58,11.58,0,0,0,2.7-.3,3.38,3.38,0,0,1-1.16-.14l1,0c.19-.25,1-.5-1.5-.67l-1.71.15-.56-.12h1.45a6.54,6.54,0,0,0-1.92.06,2,2,0,0,0-.72-.13l-1.68.23c-.2-.1.75-.19-.37-.24-.79.11.75.21-.55.28a3.66,3.66,0,0,0-1.54-.1c-.14-.07.07-.11.45-.14-.86.08-2.27,0-2.71.17-.85-.14-2.89,0-2.8-.2a18.65,18.65,0,0,1-2.3.19c1.44-.28-2.94,0-2.56-.31-1.06.25-3.84.11-5.72.25a2.08,2.08,0,0,1,.48-.05c-1.06,0-1.37-.1-2.05-.14a13.45,13.45,0,0,1-2.68.38c-1.3-.2.79-.24.38-.44.07.17-2.25.17-1.81.31a4.71,4.71,0,0,1-1.37-.23c-.17.26-.92,0-1.75.2-1.43-.13-.37-.24-1.95-.16C144.61,28.33,146,28.24,146,28.24Zm-37.55.45h.77Zm-3.16,0h1.37c.11.06,0,.11-.33.11C106.52,28.76,105.78,28.73,105.31,28.69Zm6.68,1a2.06,2.06,0,0,1-.74,0l.87,0,.06,0A.57.57,0,0,1,112,29.72Z"/><path class="cls-1" d="M112.88,29.52h.21l-.3,0-.18.05Z"/><path class="cls-1" d="M146.59.57h-.06l.14,0Z"/><polygon class="cls-1" points="61.73 28.4 61.74 28.44 62.02 28.41 61.73 28.4"/><path class="cls-1" d="M164,1.08l.23,0Z"/><path class="cls-1" d="M171.48,1.11l1.06,0Z"/><path class="cls-1" d="M177.25,1.18a.21.21,0,0,0,.12-.06h0Z"/><path class="cls-1" d="M85.47,1.36h-.22C84.73,1.39,85.08,1.38,85.47,1.36Z"/><path class="cls-1" d="M112.79,1l-.88.07C112.39,1.09,112.77,1.09,112.79,1Z"/><path class="cls-1" d="M55,1.54h0Z"/><path class="cls-1" d="M110.64,1.08a10.72,10.72,0,0,0,1.27,0C111.51,1.07,111,1.05,110.64,1.08Z"/><path class="cls-1" d="M180.59,22v.28s0,0,0,0Z"/><path class="cls-1" d="M180.61,22.32v.3A2.12,2.12,0,0,0,180.61,22.32Z"/><path class="cls-1" d="M180.66,23.27l0-.65A3.09,3.09,0,0,0,180.66,23.27Z"/><path class="cls-1" d="M180.66,14.36l-.06-.08S180.63,14.35,180.66,14.36Z"/><path class="cls-1" d="M180.64,12c0,.55-.11,1.39-.08,2.16l0,.08C180.52,13.91,180.73,12.57,180.64,12Z"/><path class="cls-1" d="M181.31,2.35l0,1.94c0-.34.13-.78.14.1C181.59,1.94,181.29,4.9,181.31,2.35Z"/><path class="cls-1" d="M176.58.45c1,0,0-.09,0-.12C176,.38,175.8.4,176.58.45Z"/><path class="cls-1" d="M133,.45l.1-.14C132.28.33,133.08.36,133,.45Z"/><polygon class="cls-1" points="124.64 1.15 125.43 1.23 125.8 1.11 124.64 1.15"/><polygon class="cls-1" points="119.72 0.18 120.07 0.16 118.73 0.21 119.72 0.18"/><path class="cls-1" d="M46.49.23l.24.17C47.28.37,47.39.18,46.49.23Z"/><path class="cls-1" d="M14.88.4A6.41,6.41,0,0,0,13.09.34C13.81.36,14.51.42,14.88.4Z"/><polygon class="cls-1" points="53.35 29.74 52.72 29.8 53.91 29.75 53.35 29.74"/><path class="cls-2" d="M9.75,19.86A13.5,13.5,0,0,0,8,18.4a10.14,10.14,0,0,0-1.74-1A.64.64,0,0,1,6,17.17.6.6,0,0,1,6,16.89c0-.07,0-.11,0-.12.92-.55,1.65-1,2.2-1.41A14.39,14.39,0,0,0,9.86,14a.87.87,0,0,1,.49-.31c.07,0,.1.06.1.16a.43.43,0,0,1-.08.25A9.17,9.17,0,0,1,9.15,15.6a16.08,16.08,0,0,1-1.38,1.19c-.06.05-.1.09-.1.12s0,.06.1.12a11.66,11.66,0,0,1,1.34,1.18,10.89,10.89,0,0,1,1.26,1.6.3.3,0,0,1,.05.16.23.23,0,0,1,0,.14.14.14,0,0,1-.11.06A.84.84,0,0,1,9.75,19.86Zm3.61,0a14.28,14.28,0,0,0-1.77-1.46,10.48,10.48,0,0,0-1.73-1,.77.77,0,0,1-.22-.22.6.6,0,0,1-.09-.28c0-.07,0-.11,0-.12.92-.55,1.66-1,2.2-1.41A14.39,14.39,0,0,0,13.46,14c.21-.2.37-.31.5-.31s.1.06.1.16a.45.45,0,0,1-.09.25,9.17,9.17,0,0,1-1.22,1.53,17.5,17.5,0,0,1-1.37,1.19c-.07.05-.11.09-.11.12s0,.06.11.12a12.46,12.46,0,0,1,1.33,1.18A10.89,10.89,0,0,1,14,19.81.24.24,0,0,1,14,20a.23.23,0,0,1,0,.14.13.13,0,0,1-.11.06A.8.8,0,0,1,13.36,19.86Z"/><path class="cls-2" d="M16.16,20a.72.72,0,0,1-.22-.34,12.73,12.73,0,0,1-.16-1.42v-.38a.2.2,0,0,1,.09-.17.44.44,0,0,1,.25-.06.25.25,0,0,1,.27.18,3.65,3.65,0,0,0,1,1.85,2.09,2.09,0,0,0,1.46.6,2,2,0,0,0,1.46-.58,2,2,0,0,0,.58-1.51,2.54,2.54,0,0,0-.21-1.1,2.09,2.09,0,0,0-.59-.73,9.74,9.74,0,0,0-1.13-.76l-.34-.21a15.07,15.07,0,0,1-1.31-.89,3.47,3.47,0,0,1-.82-.92,2.28,2.28,0,0,1-.34-1.25A2.9,2.9,0,0,1,17,10a3.71,3.71,0,0,1,2.65-.87,4.74,4.74,0,0,1,1.79.37.69.69,0,0,1,.22.17.6.6,0,0,1,.14.26c.11.4.2.72.25,1a3.1,3.1,0,0,1,.09.73c0,.12-.09.19-.26.19a.82.82,0,0,1-.3-.07.31.31,0,0,1-.17-.17,4,4,0,0,0-.87-1.4,1.64,1.64,0,0,0-1.18-.46,2.07,2.07,0,0,0-1.41.47,1.81,1.81,0,0,0-.56,1.47,1.42,1.42,0,0,0,.31.89,3.29,3.29,0,0,0,.78.75c.31.23.74.52,1.3.86a11.87,11.87,0,0,1,1.3.89A3.44,3.44,0,0,1,22,16a2.67,2.67,0,0,1,.34,1.38,3.09,3.09,0,0,1-1,2.44,3.93,3.93,0,0,1-2.69.91A3.59,3.59,0,0,1,16.16,20Z"/><path class="cls-2" d="M23.66,20.39a.19.19,0,0,1,.13-.18,1.42,1.42,0,0,1,.43-.12,1.87,1.87,0,0,0,1-.41,1.14,1.14,0,0,0,.3-.88V11.12a1.25,1.25,0,0,0-.24-.86,1.64,1.64,0,0,0-.9-.39c-.38-.07-.57-.18-.57-.34s.17-.19.5-.19,1,0,1.57,0l1.45,0,2.34,0,1.45,0c.2,0,.3.06.31.16s.07.34.15.75a6.26,6.26,0,0,1,.11,1c0,.17-.08.25-.24.25a.17.17,0,0,1-.12,0,.35.35,0,0,1-.07-.14c0-.05-.07-.2-.14-.44a1.11,1.11,0,0,0-.23-.5,1.5,1.5,0,0,0-1.15-.46H27.46a.77.77,0,0,0-.39.16.47.47,0,0,0-.22.39v3.62a.39.39,0,0,0,.09.26.28.28,0,0,0,.22.11h1.69a.94.94,0,0,0,.66-.17,1.33,1.33,0,0,0,.33-.66c.07-.25.17-.38.31-.38a.23.23,0,0,1,.14.08.28.28,0,0,1,.08.2l0,.44,0,.75v.91l0,.41c0,.19-.05.29-.15.29s-.31-.19-.4-.55a1.2,1.2,0,0,0-.28-.59A.68.68,0,0,0,29,15H27.43a.8.8,0,0,0-.45.09c-.09.05-.13.17-.13.35v3.28a1.23,1.23,0,0,0,.26.89,1.24,1.24,0,0,0,.87.26h1.26a4.76,4.76,0,0,0,.93-.07,2,2,0,0,0,.62-.22,1.9,1.9,0,0,0,.47-.47,7.23,7.23,0,0,0,.51-.85c.08-.15.16-.22.24-.22s.22.08.22.24a4.42,4.42,0,0,1-.19.93,7.22,7.22,0,0,1-.34,1.05.87.87,0,0,0-.05.12.49.49,0,0,1-.08.13.14.14,0,0,1-.11,0l-3,0c-.78,0-1.56-.05-2.34-.05a8,8,0,0,0-.88.05l-1.08,0C23.82,20.58,23.66,20.52,23.66,20.39Z"/><path class="cls-2" d="M33,20.39a.2.2,0,0,1,.14-.18,1.34,1.34,0,0,1,.42-.12c.6-.11,1-.55,1.06-1.34a64.76,64.76,0,0,0,.7-7.27c0-.26,0-.45,0-.57s0-.23-.06-.31a.57.57,0,0,0-.2-.25,1.4,1.4,0,0,0-.54-.32,7.6,7.6,0,0,0-.74-.19.56.56,0,0,1-.28-.13.3.3,0,0,1-.1-.21c0-.08.05-.13.15-.16a2.24,2.24,0,0,1,.43,0c.15,0,.58,0,1.28.07l1.28.07a.34.34,0,0,1,.33.27l.12.44a6.62,6.62,0,0,0,.26.87l2.69,6.85a.22.22,0,0,0,.23.16.18.18,0,0,0,.17-.11l3.36-7c.14-.51.24-.94.31-1.28,0-.15.09-.22.17-.22h.61q.26,0,1.23-.09c.3,0,.54-.05.72-.05s.36.06.36.17a.21.21,0,0,1-.1.19,1.4,1.4,0,0,1-.35.17l-.4.16a6.23,6.23,0,0,0-.6.24.64.64,0,0,0-.3.23.56.56,0,0,0-.11.35c0,1,0,1.94.06,2.81s.1,1.91.18,3.08c.06.93.11,1.66.13,2.18a1,1,0,0,0,.33.81,1.87,1.87,0,0,0,1,.41,1.33,1.33,0,0,1,.43.12.2.2,0,0,1,.14.18c0,.13-.17.19-.5.19s-.78,0-1.09,0l-.91,0-.76,0a9,9,0,0,1-1,0c-.33,0-.49-.06-.49-.19s.18-.26.56-.3a.91.91,0,0,0,.68-.35,1.53,1.53,0,0,0,.19-.88c0-1.17,0-2.24-.06-3.22s-.07-1.57-.08-1.75,0-.73-.06-1.32c0-.11-.05-.17-.11-.17s-.1.06-.17.17l-3.93,8c0,.07-.06.1-.15.1a.16.16,0,0,1-.15-.12q-1.18-3.49-3.15-8.11a.12.12,0,0,0-.11-.08.1.1,0,0,0-.11.08c-.2,1.52-.34,2.68-.42,3.5s-.12,1.76-.12,2.8a1.39,1.39,0,0,0,.29.86,1.34,1.34,0,0,0,.82.48,1.34,1.34,0,0,1,.42.12.2.2,0,0,1,.14.18c0,.13-.17.19-.5.19a7.75,7.75,0,0,1-1,0l-.63,0-.6,0c-.44,0-.76,0-1,0S33,20.52,33,20.39Z"/><path class="cls-2" d="M48.67,20.39a.2.2,0,0,1,.14-.18,1.33,1.33,0,0,1,.43-.12,1.87,1.87,0,0,0,1-.41,1.14,1.14,0,0,0,.3-.88V11.12a1.2,1.2,0,0,0-.25-.86,1.57,1.57,0,0,0-.89-.39c-.38-.07-.57-.18-.57-.34s.17-.19.5-.19,1,0,1.57,0l1.45,0,2.34,0,1.45,0c.2,0,.3.06.31.16s.07.34.15.75a6.26,6.26,0,0,1,.11,1c0,.17-.08.25-.24.25a.17.17,0,0,1-.12,0,.26.26,0,0,1-.07-.14c0-.05-.07-.2-.14-.44a1.22,1.22,0,0,0-.24-.5,1.46,1.46,0,0,0-1.14-.46H52.48a.77.77,0,0,0-.39.16.47.47,0,0,0-.22.39v3.62a.39.39,0,0,0,.09.26.26.26,0,0,0,.21.11h1.7a1,1,0,0,0,.66-.17,1.33,1.33,0,0,0,.33-.66c.06-.25.17-.38.3-.38a.22.22,0,0,1,.15.08.28.28,0,0,1,.08.2l0,.44,0,.75,0,.91,0,.41c0,.19,0,.29-.15.29s-.31-.19-.4-.55a1.3,1.3,0,0,0-.28-.59A.68.68,0,0,0,54,15H52.45a.8.8,0,0,0-.45.09c-.09.05-.13.17-.13.35v3.28a1.23,1.23,0,0,0,.26.89,1.23,1.23,0,0,0,.86.26h1.27a4.89,4.89,0,0,0,.93-.07,2.05,2.05,0,0,0,.62-.22,1.9,1.9,0,0,0,.47-.47,8.94,8.94,0,0,0,.51-.85c.08-.15.16-.22.24-.22s.22.08.22.24a5.22,5.22,0,0,1-.19.93,8.72,8.72,0,0,1-.34,1.05.87.87,0,0,0,0,.12.49.49,0,0,1-.08.13.15.15,0,0,1-.11,0l-3,0c-.78,0-1.56-.05-2.34-.05a7.89,7.89,0,0,0-.88.05l-1.08,0C48.84,20.58,48.67,20.52,48.67,20.39Z"/><path class="cls-2" d="M68.42,20.5a3.18,3.18,0,0,1-.81-.79c-.09-.14-.75-.93-2-2.39l-2.69-3.19c-.91-1.07-1.44-1.71-1.6-1.9S61.06,12,61,12s-.1,0-.12.11a.9.9,0,0,0,0,.25q-.09,4.22-.09,6.4a1.25,1.25,0,0,0,1.09,1.37,1.33,1.33,0,0,1,.43.12.2.2,0,0,1,.14.18c0,.13-.17.19-.5.19a7.75,7.75,0,0,1-1,0l-.63,0-.6,0c-.44,0-.76,0-1,0s-.49-.06-.49-.19,0-.12.13-.17a3.22,3.22,0,0,1,.43-.15,1.42,1.42,0,0,0,1-1.4q.12-1.11.21-3c.07-1.26.1-2.53.1-3.83a1.67,1.67,0,0,0-.42-1.25,3.2,3.2,0,0,0-1.27-.68,2.52,2.52,0,0,1-.34-.16c-.13-.08-.19-.16-.19-.25A.18.18,0,0,1,58,9.31a.75.75,0,0,1,.26-.05l1.2.05,1.43,0a.33.33,0,0,1,.21.06,1,1,0,0,1,.2.23c.14.2,1.1,1.38,2.89,3.56L68,17.83c.2.23.34.34.43.34s.16-.12.17-.36c0-.86,0-3.18,0-6.95a.89.89,0,0,0-.36-.59,1.32,1.32,0,0,0-.64-.35c-.51-.09-.76-.2-.76-.34s.07-.1.22-.13a1.86,1.86,0,0,1,.48,0h1l.85,0c.37,0,.74,0,1.11,0s.5.07.5.19-.19.27-.56.34a1.88,1.88,0,0,0-.84.31.89.89,0,0,0-.24.62q0,.62,0,7.9c0,.46,0,.89.06,1.3l0,.36c0,.28-.12.43-.36.43A1.62,1.62,0,0,1,68.42,20.5Z"/><path class="cls-2" d="M75.13,20a5.91,5.91,0,0,1-2.28-2A5.33,5.33,0,0,1,72,15a5.16,5.16,0,0,1,.9-3,6.28,6.28,0,0,1,2.43-2.09,7.15,7.15,0,0,1,3.26-.77,8.08,8.08,0,0,1,1.44.1c.37.06.9.18,1.6.35a.66.66,0,0,1,.35.2.78.78,0,0,1,.14.38c.09.89.14,1.54.16,2a.19.19,0,0,1-.08.18.32.32,0,0,1-.21.08.28.28,0,0,1-.29-.24A5.91,5.91,0,0,0,81.27,11a2.24,2.24,0,0,0-.64-.73,3.53,3.53,0,0,0-1-.42,4.93,4.93,0,0,0-1.3-.16,4.12,4.12,0,0,0-2.34.69,4.74,4.74,0,0,0-1.64,1.8,5,5,0,0,0-.6,2.38,6.42,6.42,0,0,0,.6,2.72A5.48,5.48,0,0,0,76,19.41a3.94,3.94,0,0,0,2.44.81,3.52,3.52,0,0,0,2-.54,4.4,4.4,0,0,0,1.4-1.59.41.41,0,0,1,.16-.16.38.38,0,0,1,.19-.06.27.27,0,0,1,.17.06.33.33,0,0,1,.07.21,3.53,3.53,0,0,1-.16.74,7,7,0,0,1-.31.92,1.62,1.62,0,0,1-.2.3,1,1,0,0,1-.34.16,6.32,6.32,0,0,1-1.47.36,11.49,11.49,0,0,1-1.76.13A6.56,6.56,0,0,1,75.13,20Z"/><path class="cls-2" d="M84,20.39a.19.19,0,0,1,.13-.18,1.42,1.42,0,0,1,.43-.12,1.83,1.83,0,0,0,1-.41,1.14,1.14,0,0,0,.3-.88V11.12a1.25,1.25,0,0,0-.24-.86,1.64,1.64,0,0,0-.9-.39c-.38-.07-.56-.18-.56-.34s.16-.19.49-.19,1,0,1.57,0l1.45,0,2.34,0,1.46,0c.19,0,.29.06.3.16s.07.34.15.75a6.26,6.26,0,0,1,.11,1c0,.17-.08.25-.24.25a.17.17,0,0,1-.12,0,.35.35,0,0,1-.07-.14,4.08,4.08,0,0,1-.13-.44,1.22,1.22,0,0,0-.24-.5A1.5,1.5,0,0,0,90,9.94H87.76a.77.77,0,0,0-.39.16.47.47,0,0,0-.22.39v3.62a.39.39,0,0,0,.09.26.28.28,0,0,0,.22.11h1.69a.94.94,0,0,0,.66-.17,1.33,1.33,0,0,0,.33-.66c.07-.25.17-.38.31-.38a.23.23,0,0,1,.14.08.28.28,0,0,1,.08.2l0,.44,0,.75v.91l0,.41c0,.19-.05.29-.15.29s-.3-.19-.4-.55a1.2,1.2,0,0,0-.28-.59.68.68,0,0,0-.5-.18H87.73a.8.8,0,0,0-.45.09c-.09.05-.13.17-.13.35v3.28a1.23,1.23,0,0,0,.26.89,1.24,1.24,0,0,0,.87.26h1.26a4.76,4.76,0,0,0,.93-.07,2,2,0,0,0,.62-.22,1.75,1.75,0,0,0,.47-.47,7.23,7.23,0,0,0,.51-.85c.08-.15.16-.22.24-.22s.22.08.22.24a4.42,4.42,0,0,1-.19.93A7.22,7.22,0,0,1,92,20.29a.87.87,0,0,0,0,.12.32.32,0,0,1-.08.13.14.14,0,0,1-.11,0l-3,0c-.79,0-1.57-.05-2.34-.05a8.08,8.08,0,0,0-.89.05l-1.08,0C84.12,20.58,84,20.52,84,20.39Z"/><path class="cls-2" d="M94,20a.8.8,0,0,1-.22-.34,11.28,11.28,0,0,1-.15-1.42l0-.38a.2.2,0,0,1,.09-.17.49.49,0,0,1,.25-.06.24.24,0,0,1,.27.18,3.65,3.65,0,0,0,1,1.85,2.11,2.11,0,0,0,1.46.6,2,2,0,0,0,1.47-.58,2,2,0,0,0,.58-1.51,2.54,2.54,0,0,0-.21-1.1,2.21,2.21,0,0,0-.59-.73,10.71,10.71,0,0,0-1.13-.76l-.34-.21a14,14,0,0,1-1.32-.89,3.47,3.47,0,0,1-.82-.92A2.28,2.28,0,0,1,94,12.26,2.94,2.94,0,0,1,94.9,10a3.73,3.73,0,0,1,2.65-.87,4.7,4.7,0,0,1,1.79.37.72.72,0,0,1,.23.17.71.71,0,0,1,.13.26c.12.4.2.72.26,1a3.71,3.71,0,0,1,.08.73c0,.12-.08.19-.25.19a.82.82,0,0,1-.3-.07c-.1,0-.16-.1-.18-.17a4,4,0,0,0-.86-1.4,1.66,1.66,0,0,0-1.19-.46,2.07,2.07,0,0,0-1.41.47,1.81,1.81,0,0,0-.55,1.47,1.47,1.47,0,0,0,.3.89,3.72,3.72,0,0,0,.78.75c.31.23.75.52,1.31.86a12.65,12.65,0,0,1,1.29.89,3.44,3.44,0,0,1,.84,1,2.67,2.67,0,0,1,.34,1.38,3.11,3.11,0,0,1-1,2.44,3.94,3.94,0,0,1-2.7.91A3.59,3.59,0,0,1,94,20Z"/><path class="cls-2" d="M109.86,20.58c-1.25-.06-2.17-.08-2.76-.08l-.77,0a8.89,8.89,0,0,1-1,0c-.33,0-.49-.07-.49-.22s0-.15.1-.17a4.13,4.13,0,0,1,.46-.1,1.58,1.58,0,0,0,.9-.4,1.33,1.33,0,0,0,.25-.89V11.12a1.24,1.24,0,0,0-.25-.86,1.64,1.64,0,0,0-.9-.39,1.5,1.5,0,0,1-.44-.11.2.2,0,0,1-.12-.19c0-.15.16-.23.49-.23l1,0,.92,0c.47,0,1,0,1.76-.09l.66,0,.5,0a8.39,8.39,0,0,1,3.67.71,4.69,4.69,0,0,1,2.13,1.93,5.63,5.63,0,0,1,.67,2.78,5.87,5.87,0,0,1-.8,3,6,6,0,0,1-2.17,2.17,5.72,5.72,0,0,1-3,.81Zm2.93-1.21a4.33,4.33,0,0,0,1.61-1.8A5.86,5.86,0,0,0,115,15a5.42,5.42,0,0,0-.68-2.75,4.79,4.79,0,0,0-1.79-1.81,4.64,4.64,0,0,0-2.3-.62c-.6,0-1,0-1.35.05a1.28,1.28,0,0,0-.71.28.88.88,0,0,0-.26.71v7.62a1.24,1.24,0,0,0,.69,1.26,4.41,4.41,0,0,0,1.87.33A4.35,4.35,0,0,0,112.79,19.37Z"/><path class="cls-2" d="M117.82,20.39a.2.2,0,0,1,.14-.18,1.34,1.34,0,0,1,.42-.12,1.87,1.87,0,0,0,1-.41,1.14,1.14,0,0,0,.3-.88V11.12a1.2,1.2,0,0,0-.25-.86,1.58,1.58,0,0,0-.9-.39c-.37-.07-.56-.18-.56-.34s.17-.19.5-.19,1,0,1.57,0l1.45,0,2.34,0,1.45,0c.19,0,.3.06.31.16s.07.34.14.75a5.29,5.29,0,0,1,.11,1c0,.17-.08.25-.24.25a.21.21,0,0,1-.12,0,.38.38,0,0,1-.06-.14,3.29,3.29,0,0,1-.14-.44,1.22,1.22,0,0,0-.24-.5,1.46,1.46,0,0,0-1.14-.46h-2.24a.74.74,0,0,0-.39.16.48.48,0,0,0-.23.39v3.62a.4.4,0,0,0,.1.26.25.25,0,0,0,.21.11H123a1,1,0,0,0,.67-.17,1.43,1.43,0,0,0,.32-.66c.07-.25.17-.38.31-.38s.09,0,.15.08a.27.27,0,0,1,.07.2V14l0,.75,0,.91,0,.41c0,.19-.06.29-.16.29s-.3-.19-.39-.55a1.3,1.3,0,0,0-.28-.59.69.69,0,0,0-.51-.18H121.6a.86.86,0,0,0-.46.09.4.4,0,0,0-.13.35v3.28a1.18,1.18,0,0,0,.27.89,1.21,1.21,0,0,0,.86.26h1.27a4.89,4.89,0,0,0,.93-.07,2.05,2.05,0,0,0,.62-.22,1.9,1.9,0,0,0,.47-.47,7.4,7.4,0,0,0,.5-.85c.08-.15.16-.22.24-.22s.22.08.22.24a4.89,4.89,0,0,1-.18.93,8.72,8.72,0,0,1-.34,1.05.64.64,0,0,0-.06.12.5.5,0,0,1-.07.13.15.15,0,0,1-.11,0l-3,0c-.79,0-1.57-.05-2.34-.05a8.22,8.22,0,0,0-.89.05l-1.07,0C118,20.58,117.82,20.52,117.82,20.39Z"/><path class="cls-2" d="M130.65,20.39a.19.19,0,0,1,.13-.18,1.42,1.42,0,0,1,.43-.12,1.87,1.87,0,0,0,1-.41,1.19,1.19,0,0,0,.29-.89V11.58a2.5,2.5,0,0,0-.22-1.21,1.06,1.06,0,0,0-.82-.5c-.38-.07-.57-.18-.57-.34s.17-.19.5-.19c.49,0,.81,0,1,0H133c.17,0,.37,0,.6,0l.51,0c.3,0,.56-.05.79-.05a5.45,5.45,0,0,1,3.14.81,2.57,2.57,0,0,1,1.18,2.23,4.43,4.43,0,0,1-.42,1.95,3.26,3.26,0,0,1-1.28,1.4,4.15,4.15,0,0,1-2.13.51,1.39,1.39,0,0,1-.55-.1c-.15-.07-.22-.15-.22-.23s0-.09.1-.15a.26.26,0,0,1,.18-.09l.26,0,.52,0a1.71,1.71,0,0,0,1.54-.84,4.47,4.47,0,0,0,.53-2.37,2.52,2.52,0,0,0-.78-2,3,3,0,0,0-2.07-.68c-.73,0-1.1.24-1.1.71V18.6a1.66,1.66,0,0,0,.27,1,1.35,1.35,0,0,0,.88.48,1.34,1.34,0,0,1,.42.12.19.19,0,0,1,.14.18c0,.13-.16.19-.49.19a5.9,5.9,0,0,1-1-.07,4.86,4.86,0,0,0-.69-.05l-.62,0-.45,0a10.75,10.75,0,0,1-1.15.07C130.81,20.58,130.65,20.52,130.65,20.39Z"/><path class="cls-2" d="M138.23,20.52c-.09,0-.14-.09-.14-.16s.19-.28.57-.39a2.73,2.73,0,0,0,.85-.44,2.17,2.17,0,0,0,.61-.88c.61-1.39,1.13-2.65,1.58-3.78s1-2.55,1.62-4.25a5.07,5.07,0,0,0,.24-1l.24-.07a1.16,1.16,0,0,0,.37-.18.75.75,0,0,0,.22-.31,1.38,1.38,0,0,1,.11-.27s0,0,0,0a.05.05,0,0,1,0,0l.06.19.06.19q1.26,4,3,9.12a3,3,0,0,0,.72,1.27,2.08,2.08,0,0,0,1,.44.92.92,0,0,1,.41.16.29.29,0,0,1,.15.23c0,.11-.17.17-.5.17l-.92,0c-.64-.05-1.12-.07-1.45-.07l-1.79,0c-.33,0-.5-.07-.5-.21s.06-.13.16-.2a1.17,1.17,0,0,1,.41-.12c.69-.12,1-.37,1-.77a13.89,13.89,0,0,0-.67-2.77.18.18,0,0,0-.13-.15.85.85,0,0,0-.33,0h-3.23c-.12,0-.22.11-.29.31-.12.37-.27.84-.44,1.43a6.94,6.94,0,0,0-.26,1,.81.81,0,0,0,.28.61,1.55,1.55,0,0,0,.71.36,2.24,2.24,0,0,1,.44.16.22.22,0,0,1,.13.19c0,.12-.17.18-.5.18h-.51l-1,0-.64,0-.52,0c-.32,0-.62,0-.89,0A.9.9,0,0,1,138.23,20.52Zm7-4.84.17,0s.07,0,.07-.07l0-.17-1.34-4.16C144,11.05,144,11,144,11s-.07.1-.14.29l-1.55,4.18,0,.14c0,.06,0,.09.07.1l.28,0Z"/><path class="cls-2" d="M151.28,20.39a.19.19,0,0,1,.13-.18,1.42,1.42,0,0,1,.43-.12,1.38,1.38,0,0,0,1.33-1.44V16.12a1.91,1.91,0,0,0-.14-.65,3.91,3.91,0,0,0-.29-.61l-2-3.28c-.63-1-1.14-1.56-1.52-1.67a2,2,0,0,1-.43-.19c-.09-.06-.14-.12-.14-.19s.17-.19.5-.19l.78,0c.5,0,.91,0,1.22,0l.82,0,.54,0c.33,0,.5.06.5.19s-.19.25-.57.34a1.28,1.28,0,0,0-.41.16.31.31,0,0,0-.13.27,1.33,1.33,0,0,0,.22.61l1.57,2.91c.23.43.39.64.48.64a.26.26,0,0,0,.2-.12c.07-.09.19-.26.36-.52.34-.55.72-1.19,1.13-1.92l.31-.54a1.87,1.87,0,0,0,.3-.87c0-.33-.23-.53-.7-.6a1.4,1.4,0,0,1-.37-.14c-.13-.07-.19-.14-.19-.2s.17-.19.5-.19l1.28,0c.32,0,.69,0,1.12,0l.65,0c.33,0,.5.07.5.19s-.08.14-.23.21a6.93,6.93,0,0,1-.68.22,1.47,1.47,0,0,0-.69.43,8.8,8.8,0,0,0-.81,1.12c-.6.94-1.23,1.94-1.9,3a3.34,3.34,0,0,0-.36.75,3.62,3.62,0,0,0-.06.79v2.59a1.3,1.3,0,0,0,.35,1,1.78,1.78,0,0,0,1,.49,1.34,1.34,0,0,1,.42.12.19.19,0,0,1,.14.18c0,.13-.16.19-.49.19s-.79,0-1.1,0l-.9,0-1,0c-.35,0-.73,0-1.15,0S151.28,20.52,151.28,20.39Z"/><path class="cls-2" d="M159.61,20a.72.72,0,0,1-.22-.34,12.73,12.73,0,0,1-.16-1.42v-.38a.2.2,0,0,1,.09-.17.46.46,0,0,1,.25-.06.24.24,0,0,1,.27.18,3.65,3.65,0,0,0,1,1.85,2.11,2.11,0,0,0,1.46.6,2,2,0,0,0,1.47-.58,2,2,0,0,0,.58-1.51,2.4,2.4,0,0,0-.22-1.1,2.09,2.09,0,0,0-.59-.73,10.38,10.38,0,0,0-1.12-.76l-.34-.21a14,14,0,0,1-1.32-.89,3.47,3.47,0,0,1-.82-.92,2.28,2.28,0,0,1-.34-1.25,2.94,2.94,0,0,1,.92-2.23,3.73,3.73,0,0,1,2.65-.87,4.7,4.7,0,0,1,1.79.37.6.6,0,0,1,.22.17.6.6,0,0,1,.14.26c.11.4.2.72.26,1a3.71,3.71,0,0,1,.08.73c0,.12-.08.19-.25.19a.73.73,0,0,1-.3-.07c-.1,0-.16-.1-.18-.17a3.83,3.83,0,0,0-.87-1.4,1.64,1.64,0,0,0-1.18-.46,2.07,2.07,0,0,0-1.41.47,1.81,1.81,0,0,0-.56,1.47,1.48,1.48,0,0,0,.31.89,3.72,3.72,0,0,0,.78.75c.31.23.75.52,1.3.86a11.87,11.87,0,0,1,1.3.89,3.44,3.44,0,0,1,.84,1,2.67,2.67,0,0,1,.34,1.38,3.11,3.11,0,0,1-1,2.44,4,4,0,0,1-2.7.91A3.59,3.59,0,0,1,159.61,20Z"/><path class="cls-2" d="M167.69,20.17a.11.11,0,0,1-.11-.06.24.24,0,0,1-.05-.14.25.25,0,0,1,.06-.16,10.89,10.89,0,0,1,1.26-1.6A11.55,11.55,0,0,1,170.18,17c.07-.06.1-.1.1-.12s0-.07-.1-.12a17.5,17.5,0,0,1-1.37-1.19,8.68,8.68,0,0,1-1.22-1.53.45.45,0,0,1-.09-.25c0-.1,0-.16.1-.16s.29.11.5.31a15.23,15.23,0,0,0,1.65,1.39c.55.38,1.29.86,2.21,1.41,0,0,0,.05,0,.12a.53.53,0,0,1-.1.28.64.64,0,0,1-.21.22,10.48,10.48,0,0,0-1.73,1,14.28,14.28,0,0,0-1.77,1.46A.82.82,0,0,1,167.69,20.17Zm3.6,0a.14.14,0,0,1-.11-.06.23.23,0,0,1,0-.14.24.24,0,0,1,.05-.16,10.89,10.89,0,0,1,1.26-1.6A12.46,12.46,0,0,1,173.78,17c.07-.06.11-.1.11-.12s0-.07-.11-.12a17.5,17.5,0,0,1-1.37-1.19,9.17,9.17,0,0,1-1.22-1.53.45.45,0,0,1-.09-.25c0-.1,0-.16.11-.16a.87.87,0,0,1,.49.31,14.39,14.39,0,0,0,1.66,1.39c.54.38,1.28.86,2.2,1.41,0,0,.05.05.05.12a.6.6,0,0,1-.09.28.66.66,0,0,1-.22.22,10.48,10.48,0,0,0-1.73,1,14.28,14.28,0,0,0-1.77,1.46A.8.8,0,0,1,171.29,20.17Z"/></g></g></svg>