<svg xmlns="http://www.w3.org/2000/svg" viewBox="0 0 414.86 502.7"><defs><style>.cls-1{fill:#222221;}.cls-2{fill:#abcb8f;}</style></defs><g id="Calque_2" data-name="Calque 2"><g id="Calque_1-2" data-name="Calque 1"><path d="M136.67,198.11a9.79,9.79,0,0,1-1-5.46,7.39,7.39,0,0,0-.37-3.31c-.77-1.88-.43-3.8-.49-5.69a13.57,13.57,0,0,1,.58-5.68,5.37,5.37,0,0,0,.26-1.89,9.63,9.63,0,0,1,.53-2.8,27.64,27.64,0,0,1,4.62-9.37,13.59,13.59,0,0,0,1.85-3.34,24,24,0,0,1,3.81-6.08c1.31-1.59,2.87-3,4.33-4.44a2.62,2.62,0,0,1,.77-.56c4.15-1.76,7.59-4.69,11.51-6.87,1-.56,2.17.06,3.27.17a5.11,5.11,0,0,0,3.22-.62c2.49-1.44,5.06-2.7,7.68-3.89a36.63,36.63,0,0,0,7.48-5.13,9.22,9.22,0,0,0,2.32-3c.79-1.57,1.67-3.09,2.42-4.68a7.89,7.89,0,0,0,.87-2.71,19.17,19.17,0,0,1,1.77-6.44c.66-1.47.75-3.11,1.3-4.6a11.23,11.23,0,0,0,1-4.13,2.53,2.53,0,0,1,.18-.94c1.35-3.23,2.4-6.61,4.4-9.54a8.54,8.54,0,0,1,3.33-3.36c3.21-2.86,6.91-5.09,10.29-7.74a42.39,42.39,0,0,0,5.94-6.83c1.49-2.46,2.72-5.08,4.63-7.26a2.4,2.4,0,0,0,.52-.8c1-3,3.23-5.11,4.87-7.64A36.14,36.14,0,0,0,229.94,54a18.16,18.16,0,0,1,.37-1.87,2.73,2.73,0,0,0-.11-1.37,3.81,3.81,0,0,1,.31-3.66c.31-.56.59-1.14.9-1.73-.22-1.39-.83-2.8-.43-4.22.64-2.29.62-4.76,2-6.86a11.39,11.39,0,0,0,1.23-2.59A20.31,20.31,0,0,1,236,27.87a10.52,10.52,0,0,1,3.76-4.26,6.6,6.6,0,0,0,1.4-1.3,5.69,5.69,0,0,1,2.39-1.5,7.58,7.58,0,0,0,2-1.28,3.11,3.11,0,0,1,2.27-.52l1.61.12c1-.57,2-1.28,3.2-1.82,2.57-1.21,5.43-1.85,7.64-3.79,1.58-.06,2.6-1.1,3.67-2.07a1,1,0,0,1,.39-.27c2.12-.68,3.58-2.7,5.92-2.94,1.7-.88,3.46-1.68,4.25-3.32a25.37,25.37,0,0,0,4.39-1.32,17,17,0,0,1,5-1.62,5.75,5.75,0,0,1,1.88-.12,4.16,4.16,0,0,0,2.32,0c1.36-.47,2.85.16,4.24-.53A31.09,31.09,0,0,1,295.85,0a25.93,25.93,0,0,1,6.95,2A17.65,17.65,0,0,1,306,5.59c2.78,3.9,5.48,7.85,8.56,11.54a14,14,0,0,1,2.85,4.4,3.93,3.93,0,0,0,1.47,1.85q2.46,1.92,4.95,3.79a6.25,6.25,0,0,0,4,1.35,9.36,9.36,0,0,1,4.24.6,7.45,7.45,0,0,0,2.34.36,23.92,23.92,0,0,1,3.81.25c2.51.63,5,.52,7.56.72A22.5,22.5,0,0,1,356.53,34c2.14,1.4,4.35,2.69,6.45,4.14a32.76,32.76,0,0,1,7.57,6.57c.88,1.14,1.88,2.18,2.74,3.33a17.71,17.71,0,0,0,6.59,5.4,8,8,0,0,1,2,1.32c1.86,1.74,3.65,3.56,5.48,5.33a23,23,0,0,0,2.13,1.94,11.93,11.93,0,0,1,4.45,7.67,50.85,50.85,0,0,1,.94,5.63c.08.94.27,1.88.43,2.94-.39.93-.87,1.93-1.24,3s-.47,1.84-.71,2.8c-.86.76-1.73,1.46-2.51,2.26a24.94,24.94,0,0,0-1.69,2.06c-.33.15-.47.23-.62.28-1,.39-2.33,0-3.15.93A20.66,20.66,0,0,0,383.79,92c-3,1.74-6,3.51-8.38,6.2-1.55.79-3.07,1.67-4.68,2.33a4,4,0,0,0-2.15,1.76,5,5,0,0,1-1.29,1.38,4.14,4.14,0,0,0-1.38,1.89,2.47,2.47,0,0,1-1.84,1.38,13.66,13.66,0,0,1-1.43.2,2.35,2.35,0,0,0-1.72.7c-1.11,1.39-2.93,1.85-4,3.33s-2.65,2.26-3.71,3.68c-.38.5-1,.79-1.42,1.27-1.39,1.72-3.37,2.93-4.29,5.07a3.55,3.55,0,0,1-1.12,1.53c-1.34.91-2.18,2.31-3.41,3.3a9.51,9.51,0,0,0-3.34,4c-.2.54-.84.94-1.33,1.33a25.11,25.11,0,0,1-2.32,1.66,8.78,8.78,0,0,0-3.41,3.85,6.12,6.12,0,0,1-.72.91,35.38,35.38,0,0,1-8.42,1.11,34.19,34.19,0,0,0-4.27,2,45.51,45.51,0,0,1-4.5,2.58c-1.55.75-1.1,1.69.13,2.45.27.17.55.32.83.48.69.4,1.37.82,2.07,1.19a43.81,43.81,0,0,1,6.5,4.91,6.2,6.2,0,0,1,2.54,4.45,5.7,5.7,0,0,0,.67,1.75c.32.72.69,1.43,1,2.08l-.51,2.54c.32.46.67,1,1,1.5a3.65,3.65,0,0,1,.74,2.23c0,1.12.06,2.24,0,3.35a7.74,7.74,0,0,0,1.27,4.54,63.33,63.33,0,0,0,6.35,8.38c1.29,1.41,2.57,2.85,3.83,4.29a20.92,20.92,0,0,1,3,4.33c.65,1.27,1.3,2.57,2.06,3.78s1.65,2.36,2.28,3.25c.79,1.67-.1,3.18.57,4.55a15.86,15.86,0,0,1,.78,2.26c.55,1.8,1.69,3.51.76,5.53a1.58,1.58,0,0,0,.11.94,36.6,36.6,0,0,1,1.15,5.62,42.38,42.38,0,0,0,1.21,5.13c-.22,1.4-.38,2.83-.68,4.23a2.79,2.79,0,0,0,0,1.38,13.35,13.35,0,0,1,.27,5.23A7.27,7.27,0,0,0,353,238a2.58,2.58,0,0,1-.08,1.85,20.23,20.23,0,0,0-.4,5.21,13.09,13.09,0,0,0,.47,2.82c.35,1.55.74,3.1,1.07,4.44l-.46,2.1a25.11,25.11,0,0,0,1.05,2.67,7.77,7.77,0,0,1,1,4.15,8.39,8.39,0,0,0,.46,3.3,1.52,1.52,0,0,1,.1.93,4.76,4.76,0,0,0,.13,3.41,6.09,6.09,0,0,1-1.87,3.08c-1.28,1.23-1.78,3-3.22,4.1-.53.41-.48,1.14-.64,1.76a2.24,2.24,0,0,1-.61,1.24,4.63,4.63,0,0,0-2.2,3.47.87.87,0,0,1-.19.44,19.71,19.71,0,0,0-2,3.26c-.61.91-1.26,1.81-1.87,2.73a9.79,9.79,0,0,1-2.19,1.85c-.62,1.92-1.15,3.95-2.81,5.38a15.37,15.37,0,0,1-2.18,4.17,22,22,0,0,1-2.55,2.78c-.16,1-.24,1.89-.48,2.79-.62,2.36-.65,2.35-2.81,4.47a38.29,38.29,0,0,1-.87,5.49c-.46,1.45-.06,1.94,1.25,2.61s2.8.59,4.19.94a6.24,6.24,0,0,0,2.32,0c1.9-.2,3.82-.15,5.73-.17,1.75,0,3.5,0,5.25,0a7.85,7.85,0,0,0,1.87-.3,24,24,0,0,0,5.23-2.34c1.71-.1,2.89-1.16,4.18-2.12,1.8-1.32,3.74-2.44,5.83-3.79l4.08,0c1.28,0,2.56,0,3.83-.06a7.75,7.75,0,0,1,4.93,1.57,13,13,0,0,1,2.54,2.18c1.53,1.84,2.91,3.8,4.35,5.71.94,2.84,2.73,5.46,2.07,8.69a2.49,2.49,0,0,0,.24,1.38,6.47,6.47,0,0,1,.45,3.28,3.71,3.71,0,0,0,.22,1.88,4.06,4.06,0,0,1,0,3.24,3.87,3.87,0,0,0,.58,3.64,5.15,5.15,0,0,1,1.31,4,2.61,2.61,0,0,0,.43,1.33c.28.58.65,1.1,1,1.66s.79,1.39,1.12,2.12a10.3,10.3,0,0,1,1,4.15c0,1.59.32,3.17.49,4.75-.58,2,.25,3.76.91,5.55.44,1.19.8,2.42,1.31,3.58s1.82,1.76,2.71,2.67c2.35,2.4,4.64,4.84,7.21,7a8.44,8.44,0,0,1,2.93,4.28,5.59,5.59,0,0,0,1.23,2c.72.86,1.57,1.6,2.33,2.42a3,3,0,0,1,.59,3.91,2.79,2.79,0,0,0-.21,1.85c.41,1.85,1,3.68,1.45,5.49l-.88,2.27c0,1.57.76,3.06.32,4.72-.22.86.24,1.87.31,2.82a2.41,2.41,0,0,1-.19,1.37,3,3,0,0,0,.05,3.17,9,9,0,0,1,.48,1.42,18.35,18.35,0,0,0-.88,1.64,2.28,2.28,0,0,0-.3,1.37c.8,2.68-.06,5.41.26,8.1a4.25,4.25,0,0,1-.43,2.33c-1.62,3-1.75,6.45-2.79,9.62.26,1-.37,1.86-.46,2.8a6.65,6.65,0,0,1-2.07,4.2,8.89,8.89,0,0,0-.91,1.38c0,.62,0,1.41,0,2.2a5.5,5.5,0,0,1-.93,2.7c-.58.91-1.62,1.41-2,2.6a10.77,10.77,0,0,1-1.83,2.76,5.36,5.36,0,0,1-1,1c-1.13.88-2.28,1.73-3.34,2.53l-1.45,3.73c-.49.34-1,.71-1.54,1.05a5.07,5.07,0,0,0-2.4,3.42,12.39,12.39,0,0,1-.78,2.13c-2.65,1.41-3.09,1.8-4.68,4.1-.29,1.4-1.57,1.94-2.43,2.85s-1.34,2.19-2.73,2.58a2,2,0,0,0-1.1.89c-.89,1.51-2.61,1.77-3.9,2.69a4.79,4.79,0,0,1-2.26.68,89,89,0,0,0-9.88,1.81,7.49,7.49,0,0,1-3.79-.1,3.45,3.45,0,0,0-1.86-.19,21.39,21.39,0,0,1-8.08.53,7.11,7.11,0,0,0-2.84.31c-2.75.95-5.65,1.06-8.47,1.62a8.31,8.31,0,0,1-2.39.06,57.57,57.57,0,0,0-6.79.19l-1.35,1.27a5.17,5.17,0,0,1-2.53,1.3c-.62.15-1.27.17-1.9.27a11.34,11.34,0,0,0-6,2.68,10.56,10.56,0,0,1-1.33.88l-4.62.35a7,7,0,0,1-4.34,1.85,39.57,39.57,0,0,1-7.34,2.13,17.23,17.23,0,0,1-2.83.47c-2.43,0-4.69,1-7.07,1.25a2.3,2.3,0,0,0-1.27.59,4.73,4.73,0,0,1-3.5,1.27,51.46,51.46,0,0,1-5.27,0c-2.55-.17-5.11-.16-7.82-.24-.56-.41-1.16-.92-1.81-1.36-1.05-.71-2.35-1.07-3-2.27-.59-1-.23-2.2-.49-3.29a2.26,2.26,0,0,0-1.44-1.72,2.38,2.38,0,0,1-1.51-2.25c0-.64-.06-1.28-.09-1.73-.58-1.6-2.09-2.19-2.92-3.6,0-.46-.09-1.09-.14-1.72s.09-1.4-.22-1.86c-.95-1.42-.5-3.14-1.18-4.61a4.62,4.62,0,0,1,.11-3.73,10.78,10.78,0,0,0,.44-1.36,2.3,2.3,0,0,0-.26-1.85c-.67-1.08-1.4-2.13-2.15-3.25-.2-1.35-.41-2.76-.63-4.17a3.21,3.21,0,0,0-1.48-2.38,11.62,11.62,0,0,1-4.9-6.28c-.69-.12-1.3-.25-1.92-.32a3.25,3.25,0,0,1-2.1-1c-.77-.79-1.68-1.45-2.47-2.23a5.92,5.92,0,0,0-3.22-1.92,5.15,5.15,0,0,1-1.67-.9c-.81-.5-1.62-1-2.42-1.55s-1.29-.93-2.26-1.64l-.85-1.78c-.1-.12-.19-.28-.32-.34-1-.49-2-1-3.12-1.49a27,27,0,0,0-1.75-3.25,29.39,29.39,0,0,0-2.57-2.79c-.22-.77-.44-1.53-.68-2.4a10,10,0,0,1-1.41-1.16,1.88,1.88,0,0,1-.54-1.27,14.55,14.55,0,0,0,.34-4.27c-.2-1.26-.19-2.55-.28-3.92a12.49,12.49,0,0,1-1.17-1.37,4,4,0,0,1-.44-1.33,1.5,1.5,0,0,1,.07-.94c.73-1.4-.15-2.46-.72-3.66.2-1.2.44-2.44.62-3.7a1.65,1.65,0,0,0-1.14-1.87,15.27,15.27,0,0,1-5-2.72,8.24,8.24,0,0,1-2.47-2.84,20.41,20.41,0,0,0-2.57-4.55.86.86,0,0,1-.18-.44,4.09,4.09,0,0,0-2.12-2.95,24.05,24.05,0,0,0-.72-5.33,22.1,22.1,0,0,1-.27-5.22c0-.78.47-1.55.49-2.33s-.46-1.53-.41-2.28a26.13,26.13,0,0,1,.66-3.44c-.33-.74-.71-1.6-1-2.37-.09-2.89,2.39-4.53,3.19-7.4,0-1.5.06-3.42.08-5.33a19.22,19.22,0,0,1,.93-5.66c-1.52-2.34-.85-5-1.26-7.65-2-2-3.1-4.66-4.24-7.25a27.66,27.66,0,0,0-3.84-6.57,16.94,16.94,0,0,1-1-1.65c-1.28.48-2.44.93-3.62,1.34s-2.13.68-3.19,1-2.39.89-3.59,1.32a10.2,10.2,0,0,1-2.27.74c-2.29.25-4.25,1.34-6.28,2.25a59.31,59.31,0,0,1-6.51,2.92,13.7,13.7,0,0,1-3.74.78,11.85,11.85,0,0,0-2.38.22,36.29,36.29,0,0,0-3.64,1.11,15.38,15.38,0,0,0-1.68.81c-.67.95-1.27,1.9-2,2.75-1.09,1.32-2.75,2.2-3,4.12a34.31,34.31,0,0,1-5.71,5.93c-3.69,1.36-7.69,1.37-11.68,1.52-.79,0-1.59,0-2.39,0-.41,0-.87.66-.72,1l1.4,3c-.28,1.73.52,3.07,1.52,4.38a7.32,7.32,0,0,1,1.58,4.43c0,1.59.19,3.18.33,4.77a17,17,0,0,0,.4,2.35c.28,1.09.64,2.15,1,3.43-.16.74-.39,1.66-.54,2.59a12.55,12.55,0,0,0-.3,2.85A8.1,8.1,0,0,1,143.4,395a2.68,2.68,0,0,0-.49,1.27,2.83,2.83,0,0,1-1.15,2,6.26,6.26,0,0,0-1.16.84c-1.84,2.25-4.54,3.47-6.58,5.48-1.15.3-1.7,1.44-2.71,1.92s-2.07.82-3.08,1.29a7.83,7.83,0,0,0-2,1.2,8.12,8.12,0,0,1-2.89,1.6,34.2,34.2,0,0,0-4.73,2.27c-1.79,1-3.34,2.42-5.37,3a3.67,3.67,0,0,0-1.59,1.05,9,9,0,0,1-3.6,2.29,4,4,0,0,0-1.07.89c-.35.3-.65.8-1,.9a30.51,30.51,0,0,0-4.89,1.89c-1.45.64-2.93,1.26-4.43,1.79A20.5,20.5,0,0,1,90,425.83c-5,.05-9.92-.25-14.87.19a3.74,3.74,0,0,1-1.42-.06c-2.44-.8-5-1-7.47-1.63A67.84,67.84,0,0,0,55,422a12.5,12.5,0,0,1-5-1.61c-1.55-.84-3.12-1.62-4.94-2.56a1.3,1.3,0,0,1-.42-.48c-.51-1.17-1.92-1.75-2-3.19a10.29,10.29,0,0,1,.44-3.31,2.22,2.22,0,0,0,.12-.94c-.77-3.31,1.13-5.84,2.58-8.45.61-1.09,1.43-2.09,2-3.26a10.34,10.34,0,0,1,3.27-4.06,8.46,8.46,0,0,0,1.25-1.41,3.65,3.65,0,0,0,.87-2.18c.14-1.9-.23-3.85.6-5.68a1.19,1.19,0,0,0-.08-.92,6.8,6.8,0,0,1-.56-3.74,7.65,7.65,0,0,1,0-1c.23-1.77-1-3.42-.48-5.2a19.54,19.54,0,0,0,.37-4.76,2.53,2.53,0,0,1,0-.48c.29-1.34-.72-2.47-.65-3.73s.47-2.49.62-3.75a2.44,2.44,0,0,0-.31-1.38,2.63,2.63,0,0,1,.27-2.72c.55-1,1.27-1.84,1.87-2.77.87-1.34,1.65-2.74,2.57-4a5.74,5.74,0,0,1,3.88-2.6c1.88-.26,3.68-1,5.67-.65a3.49,3.49,0,0,0,2.73-.7,11.13,11.13,0,0,1,7.15-2.19c.48,0,1-.09,1.38-.13a2.24,2.24,0,0,0,.74-2.62,23.21,23.21,0,0,1-1-3.16,7.9,7.9,0,0,0-2.66-5c-1.48-1.27-2.33-3-3.51-4.54a2.2,2.2,0,0,1-.45-1.33c0-1.5-1.64-1.94-1.94-3.19-.25-1,.18-2.26-.72-3.19a2.85,2.85,0,0,1-.38-.81c0-1.48,0-2.91,0-4.34a2.66,2.66,0,0,1,.23-1.4c1.34-2,.45-3.65-.6-5.33a4.32,4.32,0,0,1-.21-.47,10.42,10.42,0,0,1,1-5.09,9.1,9.1,0,0,0,.73-3.71,13.63,13.63,0,0,1,1-6.1,5.78,5.78,0,0,0,.21-4.21,4.66,4.66,0,0,1,.08-3.27,6.14,6.14,0,0,0,.36-.89c.39-1.7.67-3.44,1.18-5.12s1.81-3,2.09-4.81a2.74,2.74,0,0,1,.58-1.3c1-1.28,1-3,2-4.31A25.13,25.13,0,0,0,80,264,46.16,46.16,0,0,1,83,257.48c1.56-2.61,2.74-5.41,4.23-8.05A29.67,29.67,0,0,1,92,242.86a7,7,0,0,1,4.57-2.38,3.75,3.75,0,0,0,2.55-1.15,2.24,2.24,0,0,1,1.24-.63,4.91,4.91,0,0,0,2.58-1.09,37,37,0,0,1,7.1-4.82,23.08,23.08,0,0,0,7.55-6.52,14.54,14.54,0,0,1,4.51-4.22,9.8,9.8,0,0,0,1.8-1.57,12.93,12.93,0,0,1,1.44-1.24c.8-.52,1.65-1,2.47-1.43.93-1.7,2.74-2.62,3.76-4.3a23.78,23.78,0,0,0,2.15-4.24c.48-1.35,1.23-2.6,1-4.11C135.32,203,135.91,200.86,136.67,198.11Zm211.12-95.75a2.41,2.41,0,0,0,.94-.06c2.11-1.06,3.74-3,6.26-3.34.27,0,.51-.34.76-.55a15.57,15.57,0,0,0,2.16-1.88,8.59,8.59,0,0,1,3-2.25c.72-.35,1.4-.76,2.12-1.17a8.67,8.67,0,0,0,.94-1,7.49,7.49,0,0,1,4-3.27,45,45,0,0,1,7.78-4.65,2.55,2.55,0,0,0,.8-.51c1.79-2,4.15-3.51,5.56-5.7.26-1.26.44-2.36.73-3.43a2.74,2.74,0,0,0,.14-1.85,15.69,15.69,0,0,1-1.94-2.06,14.75,14.75,0,0,1-1.15-2.47c-1.53-.83-3-1.5-3.77-3.05-.26-.49-1-.78-1.5-1.1a15.67,15.67,0,0,0-3.33-1.81c-1.57-.45-2.18-1.83-3.24-2.74-1.78-1.56-3.17-3.55-5.1-5a3.34,3.34,0,0,1-.6-.73c-1.19-1.69-2.69-3.12-3.6-4.45-1.2-.69-2.23-1-2.8-1.66a10.54,10.54,0,0,0-3.8-2.76,15.84,15.84,0,0,1-3.27-2,3.94,3.94,0,0,0-1.75-.68,5.6,5.6,0,0,1-2.26-.68,3.87,3.87,0,0,0-2.3-.54,14.84,14.84,0,0,1-5.22-.43,10.65,10.65,0,0,1-5.12-.64,3.9,3.9,0,0,0-1.41-.13,23.46,23.46,0,0,1-8.94-1.35c-.18-.07-.47.18-.75.3.42.28.79.69,1.22.77,2.33.45,4.47,1.5,6.92,1.7s4.74.31,7.1.6a15.59,15.59,0,0,1,7.92,3,45,45,0,0,1,5.47,4.65c2,2.09,4,4.14,5.86,6.31a11.1,11.1,0,0,0,5.61,3.44c.91.26,1.79.66,2.7.95a14.12,14.12,0,0,1,8.29,6.8,9.2,9.2,0,0,1,1.62,5.38c-.06.8,0,1.6-.09,2.4a5.08,5.08,0,0,1-.95,2.65,49.24,49.24,0,0,1-6,7.38,30.35,30.35,0,0,0-2.72,3.33c-.51.62-1,1.26-1.54,1.83a52.56,52.56,0,0,1-8,6.81c-1.45,1-2.94,1.93-4.37,2.94a20.13,20.13,0,0,0-2.19,1.84c-.18.18-.14.58-.2.88-.46,0-1-.07-1.37.16-3,2-6.35,3.65-9.11,6.08a56.53,56.53,0,0,0-6.74,4.51,10.13,10.13,0,0,1-2.05,1.21,19.27,19.27,0,0,0-3.73,2.11,6,6,0,0,1-1.66.94c-2.82.7-5.08,2.61-7.81,3.52a8,8,0,0,0-1.68.9c-.93.61-1.85,1.25-2.74,1.91a21,21,0,0,0-3,2.35c-.8.85-1.93,1.11-2.73,1.88s-1.79,1.81-2.68,2.72a9.61,9.61,0,0,0-1.95,2.68c-.95,2-2.06,3.95-3,5.76-.05,1.1-.13,2-.11,3,0,.14.58.45.72.38,1.37-.74,3-1.05,4-2.45,1.45-2.14,3.53-3.67,5.26-5.54a11.42,11.42,0,0,1,5.67-3.34,33,33,0,0,1,5-1.26,16.68,16.68,0,0,0,3.27-.68,8.55,8.55,0,0,0,2.55-1.26,20,20,0,0,0,3.51-3.23,17.81,17.81,0,0,1,3.11-2.91,53.42,53.42,0,0,0,8.14-8c1.3-1.6,2.44-3.33,3.64-5a14.74,14.74,0,0,1,3.89-4.14A3,3,0,0,0,347.79,102.36ZM96.63,347.22c-.14,4.16-.14,4.16.66,7.54.19.77.43,1.53.59,2.3a13.47,13.47,0,0,1,.35,2.35,15.16,15.16,0,0,1-.77,4.69,10.1,10.1,0,0,1-3.8,5.34A17.31,17.31,0,0,1,83,373.05c-1.92,0-3.84,0-5.75,0a5.34,5.34,0,0,0-3.49,1.4,7.94,7.94,0,0,0-2.33,3c-.37.87-.72,1.75-1,2.37-.07,2.84.1,5.39-.08,7.94s-1,5-.9,7.38c-.45,1.07-.86,1.93-1.19,2.82s-1.16,1.53-.87,2.59a3.67,3.67,0,0,0,2.32.35c3.52,0,7,0,10.55-.08a42.21,42.21,0,0,0,4.77-.39,55.67,55.67,0,0,1,13.83,0,12.42,12.42,0,0,0,3.5-2.43c1.2-1.06,2.41-2.11,3.56-3.21a88.06,88.06,0,0,0,8.22-8.73c2.69-3.37,5.32-6.79,8.29-9.93a11,11,0,0,0,2.45-4.07,3.74,3.74,0,0,0,0-1.88,4.64,4.64,0,0,0-.79-1.72c-1.14-1.53-2.37-3-3.55-4.53a7.67,7.67,0,0,1-1-1.59c-.57-1.32-1.06-2.68-1.55-4a4,4,0,0,1-.28-1.39c.2-5.71,1.36-11.08,5.5-15.38.56-.57,1.07-1.19,1.46-1.61a29.38,29.38,0,0,1,9.54-3.68c2.19-.46,4.35-1.09,6.56-1.41a23.55,23.55,0,0,0,8-3,47.13,47.13,0,0,0,6.84-4.4c4.68-3.75,10.07-6.09,15.63-8.12,2.1-.76,4.25-1.36,6.3-2.22a59.06,59.06,0,0,1,10.51-3.23c2-.44,4.1-.53,6.16-.77,3.78.55,7.62.32,11.41,1.25s11,3.08,14.91,5a25.58,25.58,0,0,1,10.77,9.88,21.16,21.16,0,0,1,2.66,9.1,4.36,4.36,0,0,1-.73,2.74,3,3,0,0,1-1.95,1.25,3.76,3.76,0,0,0-1.31.57c-1.77,1.34-2.83,2.12-1.6,4.77a19,19,0,0,0,3,4.9,17.52,17.52,0,0,1,2.46,3.52,55.61,55.61,0,0,1,4.32,9.56,24.79,24.79,0,0,1,1.34,7c0,1.91-.11,3.82-.2,5.73a2.41,2.41,0,0,1-.24.91c-.89,2.05-1.26,4.27-2.3,6.28a30.43,30.43,0,0,0-1.6,4.5c-1.68,5.26.35,13.12,4.36,16.32a15.41,15.41,0,0,1,4.17,5.77,12.26,12.26,0,0,1,1.46,5.48c0,2.06.26,4.13.41,6.28.49.93,1,1.94,1.56,2.89a6.75,6.75,0,0,0,1.52,1.83c3.18,2.4,6.2,5.07,9.84,6.79a45.84,45.84,0,0,1,5.74,3.47,29.12,29.12,0,0,1,3.42,2.61,21.7,21.7,0,0,1,4.57,5.51,66.62,66.62,0,0,1,4.59,8.93c1.46,3.88,2.87,7.79,4.18,11.73s3.43,7.88,4.78,12a4.1,4.1,0,0,0,3.3,2.73,56.36,56.36,0,0,0,6.75-4.27,40.86,40.86,0,0,1,11.15-5.42c3.34-1.05,6.62-2.29,10-3.37a28.55,28.55,0,0,1,4.63-1.17c3.79-.57,7.45-1.7,11.23-2.28a51.14,51.14,0,0,0,5.58-1.27,29.66,29.66,0,0,1,5.71-.52,2.7,2.7,0,0,0,1-.11c1.83-.84,3.77-.54,5.67-.62s3.84-.12,5.76-.07a19.66,19.66,0,0,0,6.53-1.34,9.77,9.77,0,0,0,4.09-2.42c1.32-1.38,2.73-2.69,3.93-4.18a92.53,92.53,0,0,1,8.41-9.18,43.79,43.79,0,0,0,8.37-11,72.41,72.41,0,0,0,5.61-13.2,22.47,22.47,0,0,0,.52-2.33,15.19,15.19,0,0,1,.41-2.35c.82-2.28.83-4.71,1.27-7.06a16.66,16.66,0,0,0-.11-4.28,35.47,35.47,0,0,1-.46-3.8c.1-2.63-.81-5-1.52-7.46a8.73,8.73,0,0,0-5.91-6.38,17.91,17.91,0,0,1-3.84-1.92,7.18,7.18,0,0,1-3.35-3.91,20.85,20.85,0,0,0-1.05-2.12,11.68,11.68,0,0,1-.71-1.77c-1.61-5.86-2.08-11.91-2.76-17.92-.36-3.15-.37-6.32-1-9.47a75.89,75.89,0,0,0-2.93-10.1,9,9,0,0,0-4-4.63,6.14,6.14,0,0,0-3.19-.87,17.75,17.75,0,0,0-7,1.56c-1.77.72-3.49,1.57-5.26,2.3a19.82,19.82,0,0,1-4.49,1.62c-4.09.62-8,2.35-12.17,2.34a3.08,3.08,0,0,0-.94.19,14,14,0,0,1-4.26.53,32.3,32.3,0,0,0-5.72.54,31.27,31.27,0,0,1-6.69.48,7.43,7.43,0,0,1-1.9-.17,34.66,34.66,0,0,1-6.72-2.46,6.2,6.2,0,0,1-2.7-2.64,67.16,67.16,0,0,1-3.82-9.29,5.65,5.65,0,0,1-.3-1.4,36.78,36.78,0,0,1,.23-9.55A69.9,69.9,0,0,1,309,302a46.09,46.09,0,0,1,7.27-11.23,29.39,29.39,0,0,0,2-2.69q6.39-9,12.49-18.16a16.48,16.48,0,0,0,3.09-8.05,15.19,15.19,0,0,0-2-6.22,31.18,31.18,0,0,1-2.49-5.69,28.62,28.62,0,0,1-1.88-13.62c.28-2.53.16-5.11.87-7.6a13.33,13.33,0,0,0,.21-2.38c.09-1,.16-1.91.31-2.85a27.46,27.46,0,0,0-.21-11.38c-.84-3.22-1.22-6.57-2.83-9.56a7.62,7.62,0,0,0-1.05-1.58c-2.3-2.43-4.55-4.92-7-7.2a21.49,21.49,0,0,1-3.52-3.88c-1-1.47-2.16-2.74-3-4.32a43.13,43.13,0,0,1-3.92-11.24c-.63-3-.9-6-2-8.86a10.91,10.91,0,0,0-.54-1,11.68,11.68,0,0,0-2.74-2.37,1.66,1.66,0,0,0-.46,0,1.78,1.78,0,0,0-.47.07,42.1,42.1,0,0,1-15,2.89,15.6,15.6,0,0,1-7.9-1.62c-.7-.37-1.44-.66-2.35-1.08-.46-.83-1.06-1.76-1.52-2.77a5,5,0,0,1,.12-4.61c.46-.85.87-1.71,1.34-2.55a11.81,11.81,0,0,1,8.24-6c1.09-.23,2.16-.57,3.23-.88a9.23,9.23,0,0,0,3.48-1.91,31.72,31.72,0,0,0,1.93-5.22,25.29,25.29,0,0,1,2-5.36,21.46,21.46,0,0,1,5-6.95,54.7,54.7,0,0,1,15.83-10.61c3.24-1.37,6.24-3.22,9.35-4.84,4.69-2.45,8.89-5.64,13.23-8.62,4.07-2.8,8-5.84,12.11-8.58A45.31,45.31,0,0,0,359.12,86c2.24-2.49,4.49-5,6.72-7.48a14.33,14.33,0,0,0,3-5.56l-1.34-4.39a13.44,13.44,0,0,0-6-3.94c-.91-.26-1.78-.67-2.68-1a15.37,15.37,0,0,1-6-3.71c-1.1-1.14-2.38-2.07-3.41-3.33a74.87,74.87,0,0,0-5.4-5.44,23.35,23.35,0,0,0-3.77-2.93,8.18,8.18,0,0,0-4.93-1.57c-3.37.15-6.64-.75-10-.95a11.27,11.27,0,0,1-1.86-.47c-3.9-1-7.34-3.06-11-4.64a11.2,11.2,0,0,1-2.82-1.78,13.36,13.36,0,0,1-3.31-4c-1-2-2-4-3-5.94a25.47,25.47,0,0,0-2.47-1.58,15.62,15.62,0,0,0-2.7-.92,33.22,33.22,0,0,1-8.34-3.5c-.42-.24-.79-.56-1.2-.79a4.06,4.06,0,0,0-2.78-.4,4.85,4.85,0,0,0-2.21.87c-1.26,1-2.55,1.94-3.73,3-2.13,1.92-4.2,3.92-6.27,5.9s-3.8,3.9-5.86,5.65C265.5,39,264,41.42,262,43.5c-1.53,1.62-2.76,3.51-4.15,5.26A9.38,9.38,0,0,0,256,54.1c0,.39.38,1.08.71,1.11a10.26,10.26,0,0,0,1.9.14c2.46-.22,4.74.63,7.05,1.2a4.47,4.47,0,0,1,1.68.89c3.33,2.68,5.78,5.91,6.34,10a8.62,8.62,0,0,1-4.15,6,12.9,12.9,0,0,1-4.34,2,10.72,10.72,0,0,0-6.55,4.5,35,35,0,0,0-3.36,4.66c-2.1,4-5.05,7.35-7.22,11.29-2.61,4.75-6,9-8.75,13.72-.24.41-.65.71-.91,1.11-2.32,3.44-5.22,6.43-7.73,9.72a16.42,16.42,0,0,1-2.62,2.78c-.85.71-1.46,1.68-2.27,2.45s-2,1.6-2.88,2.51a22.78,22.78,0,0,1-3.65,3.06c-1.59,1.07-3.26,2-4.87,3-3.87,2.44-4.57,1.9-4.88,7.39,0,.16,0,.32,0,.48a7.91,7.91,0,0,1-3,5.79c-1.53,1.17-2.85,2.55-4.39,3.69-1.28.95-2.54,1.94-3.82,2.89q-4.41,3.28-8.7,6.74a62,62,0,0,1-9,6.29A27.77,27.77,0,0,1,167,171.41c-1.11,0-2.22.18-3,.25-2.46,1.4-2.69,3.36-2.21,5.56a6.41,6.41,0,0,0,.25.93c.8,2.28.83,4.71,1.22,7.06a8,8,0,0,1,0,2.39,46.92,46.92,0,0,1-.9,4.7c-.64,2.47-1.23,5-3.27,6.8-.58,1.5-1.87,2.56-2.42,4.11a18.84,18.84,0,0,0-.63,9.9c1,1.7.7,3.74,1.42,5.54a7.24,7.24,0,0,1,.36,2.33c.1,3.56-1,6.47-4.1,8.63-2.38,1.65-5,2.74-7.52,4.14a20,20,0,0,0-4.27,3c-4.48,4.31-9.06,8.52-13.69,12.67a19.55,19.55,0,0,0-2.06,2c-2,2.47-4.5,4.52-6.72,6.81s-5,4-7.33,6.16c-1.67.66-2.71,2.19-4.24,3.08s-2.92,1.95-4.36,2.95c-.53.37-1,.81-1.5,1.2-2.46,1.94-3.48,5.28-3.54,8,0,1,.21,1.9.22,2.86a21.53,21.53,0,0,1-1.05,7.52,18.37,18.37,0,0,1-3.64,6.13A71,71,0,0,0,88,304.3a15.23,15.23,0,0,0-.47,5.24c.2,2-.06,4.15.9,6.1a4.85,4.85,0,0,1,.27,1.88,5.63,5.63,0,0,0,1,2.68,10.78,10.78,0,0,0,1.39,1.95c2,2.08,3.44,4.6,5.22,6.85a18.31,18.31,0,0,1,3,5.94,8.69,8.69,0,0,1,.35,4.24,13.41,13.41,0,0,1-1.11,4.11C97.82,344.55,97.26,345.88,96.63,347.22Zm-16.17-31.1c.3,1.4,1.26,2.61,1.21,4.11a4.66,4.66,0,0,0,1.49,3.42c.66.69,1.35,1.36,2,2.08a6.28,6.28,0,0,1,1.65,2.88,4.13,4.13,0,0,0,1.23,2c.67.68,1.35,1.36,2,2.09a2.8,2.8,0,0,1,.71,2.22c-.4,2.53.24,5.07-.1,7.61a8.73,8.73,0,0,0,.28,4.72c.11-.05.31-.07.34-.16,1-2.52,2-5,2.89-7.57a3.29,3.29,0,0,0,.14-1.88c-.79-2.76-1.63-5.51-3.7-7.68-1-1-1.91-2.15-2.81-3.27a23.81,23.81,0,0,1-4.87-10.28c-.31-1.57-.47-3.16-.79-4.72a12.41,12.41,0,0,1,.68-7,27.82,27.82,0,0,1,5.67-9.89,36.66,36.66,0,0,0,2.4-3,13.19,13.19,0,0,0,2.31-6.7c-.64-2.24-.06-4.46.19-6.66a15.81,15.81,0,0,1,7-12c.27-.17.53-.36.79-.54,4-2.68,7.76-5.61,11.5-8.61a133.44,133.44,0,0,0,11.24-10.42c2-2,4-4.14,6.14-6,1.68-1.48,3.25-3.07,4.89-4.59a46.76,46.76,0,0,1,12.57-8.64c.59-.26,1.12-.62,1.71-.87a5.64,5.64,0,0,0,3.43-4.3c.07-.31.09-.63.15-1.11a95,95,0,0,1-2.24-11.09,14.6,14.6,0,0,1,1.86-9.23,20,20,0,0,1,2.16-3.15,20.41,20.41,0,0,0,2.85-5.5c0-2.52,1.56-4.93.58-7.52a27.64,27.64,0,0,0-1-6.62,8.9,8.9,0,0,1,.37-5.19,6.73,6.73,0,0,1,3.14-4.07c.82-.47,1.68-.89,2.3-1.21,1.4-.07,2.52-.15,3.64-.19a23.08,23.08,0,0,0,11.32-3.38c2.31-1.41,4.61-2.87,6.78-4.51,4.33-3.27,8.56-6.67,12.83-10,1.39-1.09,2.75-2.19,4.12-3.3,2.09-1.69,3.47-3.74,3.26-6.58a2.46,2.46,0,0,1,0-.47,8.5,8.5,0,0,1,4.37-7c.69-.4,1.44-.7,2.14-1.08a40.86,40.86,0,0,0,6.76-4.52A88.91,88.91,0,0,0,231,113.26,161.7,161.7,0,0,0,242.8,95.81c3.55-6.08,7.78-11.71,11.59-17.61.44-.67,1-1.27,1.44-1.92a10.54,10.54,0,0,1,4.48-3.5,18.54,18.54,0,0,1,2.69-1,22.09,22.09,0,0,0,4.33-2,2.15,2.15,0,0,0,.74-.59,2.82,2.82,0,0,0,.8-2.19c-.44-2.28-1.89-4-3.33-5.63l-3.72-2c-1.16,0-2.12,0-3.08,0-1.11,0-2.24-.06-3.35-.21a4.56,4.56,0,0,1-4.16-4,7,7,0,0,1,.11-2.36,21.29,21.29,0,0,1,4-8.08,91.64,91.64,0,0,1,6.47-7.71c5-5.41,10.56-10.23,15.79-15.4A29.45,29.45,0,0,1,284,17.41a4.41,4.41,0,0,1,1.83-.49,7.61,7.61,0,0,1,4.61,1c1,.58,2,1.05,2.94,1.62a38.52,38.52,0,0,0,7,3,8,8,0,0,0,2.36.16.47.47,0,0,0,.35-.29c.06-.29.16-.68,0-.87a6.79,6.79,0,0,0-1-1c-.34-.33-.91-.64-.95-1-.22-1.73-1.49-2.71-2.52-3.89a5.23,5.23,0,0,1-.77-1.73c-.16-.45-.16-.94-.29-1.4-.2-.71-1.24-1.4-1.87-1.15a10.82,10.82,0,0,1-4.66.86c-3.31-.17-6.21,1.3-9.19,2.38a4.79,4.79,0,0,0-1.9,1.41,6.29,6.29,0,0,1-3.17,2c-1.21.35-2.38.88-3.6,1.34-.56.53-1.1,1.13-1.72,1.62a6.27,6.27,0,0,1-2.72.83,3.23,3.23,0,0,0-1.89,1.39c-.27.39-.55.77-.81,1.13l-4.53,2.15c-2.59-.14-5.16.84-8.11,1.35a8.33,8.33,0,0,1-5,3.06,2.33,2.33,0,0,0-1.7,1.57,42.88,42.88,0,0,1-2.59,5.59,6.52,6.52,0,0,0-.48,2.31c-.07.63.23,1.35,0,1.9a6.76,6.76,0,0,0,.26,4.56c-.58,1.93-1.13,3.75-1.68,5.56,0,2.74-.95,5.36-1,8.06a9.44,9.44,0,0,1-1.36,4.94,5.47,5.47,0,0,0-.59,2.29,4.82,4.82,0,0,1-.81,2.2q-1.55,2.43-3,4.92a4.75,4.75,0,0,1-2,1.93,1.76,1.76,0,0,0-.85,1.08c-.37,2.1-2.11,3.56-2.57,5.61a2,2,0,0,1-.88,1.08c-1.33.76-1.51,2.42-2.7,3.29A3.67,3.67,0,0,0,225.7,89a21.26,21.26,0,0,0-1.39,2.51c-.47,1.19-1.86,1.2-2.5,2.11-1.7,2.43-4.71,3.23-6.63,5.38-.29.32-.89.34-1.31.56a3.25,3.25,0,0,0-1.18.76c-1.27,1.7-3.1,2.75-4.58,4.19a9.88,9.88,0,0,0-.82,1v2.1c-.37.48-.77,1-1.15,1.48a5.41,5.41,0,0,0-1.27,4,5.58,5.58,0,0,1-.45,2.81A61.9,61.9,0,0,0,201.6,123a9.24,9.24,0,0,1-1.72,2.85,21.7,21.7,0,0,1-1.91,2c-.45,1.3-.86,2.5-1.24,3.59-1.41,1.68-2.8,3.22-4.07,4.87a6.53,6.53,0,0,1-2.09,1.89,8.54,8.54,0,0,0-2.26,1.73c-1.26,1.45-2.39,3-4.54,3.14-.12,0-.27.19-.34.32a4,4,0,0,1-2.27,1.63c-1.63.63-3.25,1.3-4.88,2-1.38,1.39-3.32,1.86-4.9,2.93a10.83,10.83,0,0,0-2.21,1.8,9.22,9.22,0,0,1-5.69,3.27,13.69,13.69,0,0,0-1.45.41,4.78,4.78,0,0,1-2,1.88c-1.17.47-2.28,1.08-3.4,1.63a16.76,16.76,0,0,0-1.52,3,3.24,3.24,0,0,1-1.6,2.21,3,3,0,0,0-1.31,1.94c-.22.77-.39,1.54-.62,2.49-2.4,1.83-3.76,4.51-4.76,7.4a12.07,12.07,0,0,1,0,5.7,4.12,4.12,0,0,0,.14,2.79,2.44,2.44,0,0,1,.26,1.4c-.29,1.79.33,3.47.5,5.21-.72,1.87-.1,3.8-.22,5.7a10.4,10.4,0,0,0,0,3.34c.53,2,.61,3.73-.73,5.42a2.22,2.22,0,0,0-.35,1.36c0,1.62-.83,3-.79,4.7a3.18,3.18,0,0,1-1.66,2.76,5.51,5.51,0,0,0-2.57,3.81,3.58,3.58,0,0,1-1.11,2,3.06,3.06,0,0,0-.87,1.1,9.93,9.93,0,0,1-2.58,3.38,14.89,14.89,0,0,1-5.69,4.1l-1.64.67a7,7,0,0,1-3.74,4.32,2.15,2.15,0,0,0-1.4,1.21,4.23,4.23,0,0,1-2.31,2.28,3,3,0,0,0-1.75,2.15,1.92,1.92,0,0,1-1.19,1.39,6.71,6.71,0,0,1-1.32.58,17,17,0,0,0-7.16,3.62,18.36,18.36,0,0,1-3.19,2.11c-1.68.91-3.43,1.69-4.79,2.35-1.82,1.42-2.68,3.18-4,4.51-1.51,1.48-2.2,3.49-3.37,5.19a5.94,5.94,0,0,0-.91,2.17,5.29,5.29,0,0,1-.68,1.76,17.57,17.57,0,0,0-2.3,4.68,2.57,2.57,0,0,1-1.11,1.51,3.45,3.45,0,0,0-1.79,3.16,9.2,9.2,0,0,1-2.08,5.73,29.44,29.44,0,0,0-1.68,2.64,4.73,4.73,0,0,1,0,1.67c-.81,2.3-.72,4.7-.89,7.08a4.75,4.75,0,0,1-.22,1.88c-.81,1.35-.51,2.78-.55,4.19s-.13,2.87-.2,4.15l-1.43,2.05A101.28,101.28,0,0,1,80.46,316.12ZM339.84,213.61a9.17,9.17,0,0,1-1.41-2.19c-.42-1.51-.41-3.14-1.61-4.39a2.24,2.24,0,0,1-.32-1.37,22.79,22.79,0,0,0-1.7-6.93,5.82,5.82,0,0,0-2.17-3.07,3.66,3.66,0,0,1-1-1,23.1,23.1,0,0,0-1.37-2.5c-.57-.72-1.7-.92-2-2-1.25-1.18-1.89-3-3.69-3.62a1.18,1.18,0,0,1-.58-.72,4.74,4.74,0,0,0-2.11-2.51,3.35,3.35,0,0,1-.94-1c-.91-1.5-1.78-3-2.77-4.71a9.72,9.72,0,0,1-.19-2.18,13.21,13.21,0,0,0-1.07-6c-.72-2.11-1.8-4.09-1.64-6.41A2.43,2.43,0,0,0,315,162c-.39-1-.79-2.06-1.19-3.1-1.85-2.07-4.58-2.79-6.77-4.35a2.87,2.87,0,0,0-1.37-.39c-.79-.07-1.59-.06-2.39-.06l-6.72.07a5.44,5.44,0,0,1-3.45-1.48,2.82,2.82,0,0,1-.93-2.14c0-.53-.33-.85-1-1.27-1.83.88-4.05,1.12-6.17,1.86a8,8,0,0,0-5.42,6.13,2.19,2.19,0,0,0,.9,2.07,3.8,3.8,0,0,0,.84.45c5,1.39,6.77,1.39,11.76,0,.31-.08.6-.21.9-.31a45.35,45.35,0,0,1,9-2.1c.49.18,1.1.37,1.68.62a10.57,10.57,0,0,1,5.66,5.59,16.64,16.64,0,0,1,1.38,4.06c.3,1.73.56,3.47.94,5.18.55,2.49,1.18,5,1.78,7.44,1.45,1.74,1.86,4,3.12,5.89a24.8,24.8,0,0,0,4.17,4.62c2.05,1.79,3.84,3.84,5.74,5.78a21.82,21.82,0,0,1,3.9,6c2,4.15,3.2,11.36,3.12,15.36-.1,4.64-.62,9.24-1.14,13.85-.86,2.63-.68,5.37-.73,8.08a25.11,25.11,0,0,0,1.84,9.34,39,39,0,0,0,3,6.52,13,13,0,0,1,1.63,6.44,6.06,6.06,0,0,1-.48,2.32,40.89,40.89,0,0,1-4.62,8.87c-3.1,4.27-5.71,8.86-8.87,13.09-2.28,3.07-4.76,6-6.89,9.19a58.88,58.88,0,0,0-6.88,13.62c-.2.61-.4,1.22-.63,1.81-.56,1.49-1.26,2.95-1.7,4.48s-.74,3.41-1.09,5.13a15.13,15.13,0,0,0-.26,6.17c.89,4.22,1.91,8.42,4.46,11.93a10.84,10.84,0,0,0,6,1.72,70.32,70.32,0,0,0,12-.71,20.59,20.59,0,0,1,3.33-.27,37.46,37.46,0,0,0,9-1.4,52.74,52.74,0,0,0,10.37-3.63,42,42,0,0,1,6.75-2.4,39.13,39.13,0,0,1,5.65-.9,3.85,3.85,0,0,1,.94.12,15.08,15.08,0,0,1,7.25,3.49c.62.49,1.1,1.18,2,1.33.35-1.51.71-3,1.06-4.55a38.71,38.71,0,0,1-1.87-4.88,7.17,7.17,0,0,0-2.68-3.85,3.55,3.55,0,0,0-1-.39c-3.2,1.17-6.57,2.18-9.2,4.69a1.25,1.25,0,0,1-.39.27c-2.12.67-3.91,2.21-6.25,2.3a4.58,4.58,0,0,0-1.83.52,5.61,5.61,0,0,1-2.78.59c-3.35-.07-6.7.07-10.06.09-2.37,0-4.79-.31-7.14.44a3,3,0,0,1-2.33-.31c-2.27-1.28-4.93-1.2-7.29-2.14a9.86,9.86,0,0,1-4.34-1.36c-.73-1.05-1.31-2-2-2.85-.9-1.07-.5-2.48-1.12-3.6a3.45,3.45,0,0,0-.25-.41,2.73,2.73,0,0,1-.35-2.73,28.47,28.47,0,0,0,.94-3.2,25.77,25.77,0,0,1,2.39-6.25,15.36,15.36,0,0,0,1.6-4,11.88,11.88,0,0,1,2.36-4.67,8.64,8.64,0,0,0,2.06-4.26,5,5,0,0,1,.91-2.19c2.09-2.82,3.47-6.11,5.92-8.71a10.55,10.55,0,0,0,1.73-2.85A57.49,57.49,0,0,1,338,274a66.71,66.71,0,0,0,4.61-7.75c-.2-1.34-.48-2.58-.54-3.83a6.68,6.68,0,0,0-.93-3.65,2.84,2.84,0,0,1-.33-1.38c0-.63.08-1.28.05-1.91-.1-1.75-.09-3.5-1.24-5a3.13,3.13,0,0,1-.09-2.79,5.35,5.35,0,0,0-.09-4.19,3.55,3.55,0,0,1-.06-1.87c.13-1.27.35-2.53.52-3.72-1.46-3.92-.81-7.6.88-11.17a6.14,6.14,0,0,1-.16-5.13,4.61,4.61,0,0,0-.43-4.56,12.67,12.67,0,0,1-.62-1.21C339.64,215.14,339.72,214.51,339.84,213.61ZM401,409.74a4.52,4.52,0,0,0-.49,1.28,20.87,20.87,0,0,0,.13,2.36c-1.06,1.67-.93,3.68-1.55,5.5s-.92,3.71-1.38,5.56a5.65,5.65,0,0,1-.4,1.38c-1.26,2.39-1.92,5.06-3.33,7.4-.9,1.49-1.53,3.15-2.36,4.69-1.13,2.1-1.94,4.4-3.8,6a9.46,9.46,0,0,1-3.5,3.84,3.54,3.54,0,0,0-1,1,33.36,33.36,0,0,1-3.16,3.56,74.61,74.61,0,0,0-6,6.85,21.39,21.39,0,0,1-14.4,8.55,24.86,24.86,0,0,1-3.34.21l-9.59.21a7.72,7.72,0,0,0-2.37.18,20.53,20.53,0,0,1-4.24.71,33.66,33.66,0,0,0-4.67,1c-2.92.85-6,1-8.93,1.67-6.2,1.48-12.19,3.67-18.33,5.37a10.55,10.55,0,0,0-2.65,1.08c-3.4,2.06-7.2,3.46-10.17,6.22a3.45,3.45,0,0,1-.78.55,10.69,10.69,0,0,1-3.59,1.26c-1.59.09-3.19.07-4.79,0a3.86,3.86,0,0,1-2.19-.89,8.28,8.28,0,0,1-2.53-2.83c-.43-.85-.86-1.71-1.25-2.58A189.27,189.27,0,0,1,273,461.29c-.71-2.11-1.57-4.17-2.26-6.29a23.48,23.48,0,0,0-2.82-5.48,28,28,0,0,0-6.53-7,48.52,48.52,0,0,0-5.8-3.3,41.65,41.65,0,0,1-4.58-2.56,96.45,96.45,0,0,1-7.67-6.47,7.26,7.26,0,0,1-1.39-1.93c-1.42-2.57-1.63-5.47-2.18-8.27.65-2-.28-3.76-.62-5.61a4.54,4.54,0,0,0-.69-1.25.69.69,0,0,0-1.14-.14,2.17,2.17,0,0,0-.77,1.68,44.22,44.22,0,0,0,.57,5.69,36.46,36.46,0,0,1,.52,6.06,36.31,36.31,0,0,1,2,3.37c1.46,3.19,4.17,5.17,6.8,7.24a1.7,1.7,0,0,0,.88.34,5.58,5.58,0,0,1,3.29,1.81,6.77,6.77,0,0,0,2.16,1.86c2.33.88,4,2.64,5.61,4.39a21.88,21.88,0,0,0,4.67,4.08,8.23,8.23,0,0,1,2.65,2.73,54.86,54.86,0,0,1,3,4.91,22.11,22.11,0,0,0,2.28,3.65,4.74,4.74,0,0,1,.85,4.52,4.57,4.57,0,0,0-.1,2.35,13.43,13.43,0,0,0,1.25,4.1,8.35,8.35,0,0,1,1.11,4.13c0,2.76,1,5.29,1.77,7.87a4.81,4.81,0,0,0,.83,1.7,34.35,34.35,0,0,1,2.73,4.5,5.39,5.39,0,0,0,1,1,31,31,0,0,1,12.4-1.84l3.65-1.82c1.53.25,2.77-.64,4.09-1.12a21.84,21.84,0,0,1,5.58-1.11c.8-.07,1.59-.09,2.33-.13.35-.15.66-.25.94-.4.83-.48,1.66-.95,2.47-1.46s1.87.15,2.8,0c1.56-.3,3.11-.64,4.72-1l2.07-2a4.51,4.51,0,0,1,3.41-1.46,3.85,3.85,0,0,0,1.82-.47c1.13-.58,2.2-1.26,3.34-1.92,1.85-.17,3.74-.66,5.65-.06,2-.24,4.2.16,6.11-.73a7.59,7.59,0,0,1,4.19-.56c1.26.13,2.53.23,3.8.31a1.62,1.62,0,0,0,.89-.2,6,6,0,0,1,3.27-.43c1.74.07,3.5.25,5.17-.6a4.2,4.2,0,0,1,1.89-.21c1.91,0,3.84,0,5.75.16a5.7,5.7,0,0,0,4-1.26c.89-.67,1.75-1.39,2.62-2.09a7,7,0,0,1,1.51-1.14,7.78,7.78,0,0,0,3-2.37c.42-.48.86-1,1.28-1.43,2.39-2.77,5.1-5.3,6.55-8.78a3.21,3.21,0,0,1,.83-1.16,12.17,12.17,0,0,0,2.7-3.92,5.65,5.65,0,0,1,2.29-2.36,7.29,7.29,0,0,0,2.55-2.12c1.24-2,2.85-3.92,2.8-6.49a6.75,6.75,0,0,1,.82-3.21c.42-.85.82-1.71,1.14-2.4-.3-1.14-.54-2.05-.75-2.83.33-.92.62-1.66.87-2.42a32.21,32.21,0,0,0,1.46-5.51c.26-1.89.36-3.81.53-5.71,1.21-2,.06-4.08.33-6.1a15.42,15.42,0,0,0,.18-1.91A3.44,3.44,0,0,0,401,409.74ZM222.44,344.61c.18-.12.38-.17.44-.29,1.13-2.39,2.68-4.32,5.34-5.16.3-.1.55-.79.58-1.22.17-2.16-.7-4-1.66-5.89-2.44-4.75-6-8.22-11.14-9.84-1.83-.57-3.64-1.18-5.45-1.78A60.36,60.36,0,0,0,198,317.69a18.63,18.63,0,0,0-3.34,0,45.27,45.27,0,0,0-6.18.66,54.67,54.67,0,0,0-5.89,1.92c-1.2.41-2.41.82-3.61,1.26a53.7,53.7,0,0,1-6.28,2.29,28.16,28.16,0,0,0-7.43,3.18,66.67,66.67,0,0,0-10.8,7,18.4,18.4,0,0,1-7.6,3.82,73,73,0,0,1-7.9,1.84,11.89,11.89,0,0,0-1.84.49c-2.13.67-4.23,1.44-6.38,2a6.92,6.92,0,0,0-3.26,1.9,22.71,22.71,0,0,0-2.75,3.3,8.89,8.89,0,0,0-1.27,3.07,23.46,23.46,0,0,0-.07,8.56,1.42,1.42,0,0,0,1.32,1.12,2.47,2.47,0,0,0,.24-.91c-.26-2.28.46-4.41.9-6.59a7.81,7.81,0,0,1,1.93-3.79,2.74,2.74,0,0,1,1.2-.7,11.06,11.06,0,0,1,1.42-.08c2-.24,3.75.76,5.71.89l2.12-.74c2,.24,3.86.52,5.76.67a3.3,3.3,0,0,0,3.28-1.57c1.46-2.51,3.72-4.35,5.4-6.67a4.49,4.49,0,0,1,2.67-1.92,4.51,4.51,0,0,0,2.35-1.52,26.49,26.49,0,0,1,2.48-2.25,9,9,0,0,1,6.61-2.24,3.77,3.77,0,0,0,2.72-.66,2,2,0,0,1,.85-.41,9.41,9.41,0,0,0,2.34-.15c.84-.34,1.47-1.19,2.3-1.57a15.75,15.75,0,0,1,3.18-.95,18.6,18.6,0,0,1,2.3-.22,10.74,10.74,0,0,1,7.93-3,4.33,4.33,0,0,0,3-1.22,16.2,16.2,0,0,1,3.82-2.33c.61-.06.92-.11,1.24-.11.48,0,1,0,1.44,0a38.55,38.55,0,0,0,4.3,0,18.26,18.26,0,0,0,3.09-.85c3.5,1.66,6.06,4.33,8.84,6.69a11.51,11.51,0,0,1,1.79,2.24c.45.64.77,1.39,1.25,2,1,1.31,1.73,2.59,1.4,4.37-.18.95.57,1.79,1.11,2.57a18.73,18.73,0,0,1,1.67,2.33A24.14,24.14,0,0,1,222.44,344.61ZM93.27,413.88a10.5,10.5,0,0,1,4.18-3.55,14.69,14.69,0,0,0,3.61-2.3,10.46,10.46,0,0,1,4-2.43c.42-.14.74-.59,1.1-.9.61-.51,1.19-1.07,1.83-1.54a3.24,3.24,0,0,1,3.12-.72,1.52,1.52,0,0,0,1.37-.21c.53-.34,1.27-.51,1.61-1a6.38,6.38,0,0,1,3.61-2.16c.75-.24,1.59-.15,2.23-.71,1.64-1.5,3.31-3,5-4.43a1.9,1.9,0,0,1,.81-.48c2.22-.34,3.56-2,5.14-3.33a1.72,1.72,0,0,0,.64-1.22c-.3-2.73.49-5.38.45-8.25a15.39,15.39,0,0,1-2-5.71c0-.17-.41-.27-.62-.4-1.78,2.28-3.53,4.54-5.31,6.77s-3.89,4.66-5.75,7.06a88.29,88.29,0,0,1-15,14.72,8.55,8.55,0,0,1-3.41,1.66l-2.44.56a20,20,0,0,0-8.93.07,15.34,15.34,0,0,1-3.33.26,34.76,34.76,0,0,0-3.83.13c-1.89.3-3.74.85-5.63.06a22.8,22.8,0,0,0-3.81.26c-2.53.62-5.09.37-7.63.53a11.08,11.08,0,0,1-3.77-.58c-1-.3-2-1.05-3.15-.74a7,7,0,0,0-1,2.65,1.38,1.38,0,0,0,.85,1.53,14.32,14.32,0,0,0,2.25.79,24.46,24.46,0,0,1,2.77.71c1.35.42,2.59,1.26,4.1,1.18s3,1.4,4.62.52c.78.15,1.57.27,2.34.45,1.08.26,2.15.56,3.25.85a9.35,9.35,0,0,1,3.74-.51c1.1.14,2.19.29,3.29.49s2.27-.26,3.29,0A13.11,13.11,0,0,0,93.27,413.88ZM91,350.46a1.61,1.61,0,0,0-1.71.57c-.42.45-.62,1.1-1,1.59a2.42,2.42,0,0,1-1.08.89c-3.38.9-6.7,2.1-10.24,2.23a17.58,17.58,0,0,0-5.6,1.15c-1.19.45-2.4.87-3.58,1.33a4.58,4.58,0,0,0-1.26.66,1.38,1.38,0,0,0-.42.82c-.15.93.36,1.82,0,2.82a11.29,11.29,0,0,0-.57,3.28c-.07,1.57.62,3.08.42,4.72a7.83,7.83,0,0,0,.66,2.75c0,.14.19.25.3.38.81-.23,1.17-1,1.76-1.5a13.4,13.4,0,0,1,2.22-1.79,14.56,14.56,0,0,1,7.26-2.08c1.59,0,3.19,0,4.79,0a14.63,14.63,0,0,0,4.67-.83,7.14,7.14,0,0,0,3.82-2.7c.38-.52.68-1.08,1.07-1.72,0-2.62.56-5.32-.76-7.92a6.41,6.41,0,0,1-.27-2.35A4.25,4.25,0,0,0,91,350.46Zm134.65,46.36c1,.64,1.92,1.26,2.86,1.85.12.08.38.12.46.05s.51-.48.47-.67a7.66,7.66,0,0,1,0-4.22,6.3,6.3,0,0,0,.18-1.9,16.22,16.22,0,0,1,1.5-6,54,54,0,0,0,2.12-5.32,20.52,20.52,0,0,0,1.21-6.53c0-1.47-.63-2.79-.76-4.21-.32-3.73-2.42-6.87-3.48-10.35a3.19,3.19,0,0,0-.76-1.21,20.56,20.56,0,0,1-2.66-3.95c-.07-.1-.37-.19-.43-.13-.21.16-.51.41-.5.62.18,3.18.37,6.36-.76,9.44a4.78,4.78,0,0,0-.19,1.42,31.39,31.39,0,0,1-1.49,7c-.24.92-.49,1.84-.8,2.74a10.45,10.45,0,0,0,0,5.63,5,5,0,0,1-.13,3.24,2.58,2.58,0,0,0,0,2.3,5.29,5.29,0,0,1,.4,2.33c0,1.11.11,2.22.16,3.07C223.94,393.64,224.68,395.05,225.61,396.82Zm176.49,1.65a5.13,5.13,0,0,1-.72-3.26,5.84,5.84,0,0,0-.48-3.27c-.43-1-.72-2.11-1.14-3.14a2.3,2.3,0,0,0-.82-1.13,5.16,5.16,0,0,1-2.19-2.45c-.66-1.33-1.51-2.45-3.17-2.62a1.53,1.53,0,0,1-.8-.49,16.33,16.33,0,0,0-5.31-3.18,3.2,3.2,0,0,1-2.32-2.76,7.91,7.91,0,0,0-1.43-3,1.84,1.84,0,0,0-.35-.33c-.3-.29-.56-.34-.73-.11a.72.72,0,0,0-.18.42c.11,2.27,1.32,4.24,1.82,6.41a4.74,4.74,0,0,0,.64,1.27,7.58,7.58,0,0,0,4.82,3.67,10.56,10.56,0,0,1,5.49,3.67,17.83,17.83,0,0,1,4.39,9.92c.23,2.23.8,4.37,1.14,6.56,0,.12.21.22.32.33.71-1,.34-2.17.54-3.25S402,399.54,402.1,398.47Zm-20.45-34.69a7.13,7.13,0,0,0-.21,1.35,22.81,22.81,0,0,0,.3,2.31.38.38,0,0,0,.29.21.76.76,0,0,0,.44-.13,2.09,2.09,0,0,0,.65-2.12A1.71,1.71,0,0,0,381.65,363.78ZM315.21,35.26l-.73.36c.24.14.47.39.72.4s.48-.21.72-.33Zm4.05,2.31c-.37-.17-.59-.13-.58.1,0,0,.27.08.41.08S319.2,37.64,319.26,37.57Z"/><path d="M312.73,38.08l10,3.38a2.52,2.52,0,0,0,3.07-1.75,2.57,2.57,0,0,0-1.74-3.08l-10-3.37A2.51,2.51,0,0,0,311,35a2.56,2.56,0,0,0,1.74,3.07Z"/><path class="cls-1" d="M161.86,290.9a.21.21,0,0,1-.1-.18.3.3,0,0,1,.1-.23.72.72,0,0,1,.27-.15,2.3,2.3,0,0,0,.9-.41,1,1,0,0,0,.24-.74v-8.25a1.14,1.14,0,0,0-.23-.81,2.19,2.19,0,0,0-.94-.38c-.25-.06-.38-.18-.38-.37a.23.23,0,0,1,.11-.2.41.41,0,0,1,.25-.07c.44,0,.9,0,1.37.05l1.2,0,1.3,0,1.4,0c.22,0,.33.09.33.26a.32.32,0,0,1-.09.24.71.71,0,0,1-.29.13,3,3,0,0,0-1,.44,1,1,0,0,0-.25.75V289a1,1,0,0,0,.22.72,1,1,0,0,0,.75.22h1.84a1.83,1.83,0,0,0,1.28-.49,4.75,4.75,0,0,0,1-1.42,2.2,2.2,0,0,1,.27-.46.29.29,0,0,1,.22-.12.22.22,0,0,1,.19.12.53.53,0,0,1,.06.24.41.41,0,0,1,0,.16.64.64,0,0,0,0,.2c-.18.65-.31,1.12-.37,1.41a7.58,7.58,0,0,0-.16,1c0,.23-.12.35-.28.35l-2.07,0-4.18-.05c-.46,0-.94,0-1.44.05l-1.12,0A.44.44,0,0,1,161.86,290.9Z"/><path class="cls-1" d="M173,290.65a1.54,1.54,0,0,1-.54-1.18,1.43,1.43,0,0,1,.37-1,3.32,3.32,0,0,1,1.16-.75l1.6-.7a1.11,1.11,0,0,0,.44-.29.87.87,0,0,0,.08-.47l0-1a1.41,1.41,0,0,0-.18-.82.67.67,0,0,0-.59-.28,1.13,1.13,0,0,0-.46.1,1.06,1.06,0,0,0-.37.22.57.57,0,0,0-.11.38,2.46,2.46,0,0,0,0,.26,2.46,2.46,0,0,1,0,.26c0,.12-.2.27-.61.45a2.54,2.54,0,0,1-1,.27.3.3,0,0,1-.23-.11.4.4,0,0,1-.09-.27.93.93,0,0,1,.2-.55,3.57,3.57,0,0,1,.65-.65,6.44,6.44,0,0,1,1.58-1,3.7,3.7,0,0,1,1.48-.4,2,2,0,0,1,1.53.62,2.24,2.24,0,0,1,.55,1.65l-.09,3.63a1.33,1.33,0,0,0,.15.71.46.46,0,0,0,.39.28.84.84,0,0,0,.6-.23.13.13,0,0,1,.11,0,.2.2,0,0,1,.15.06.19.19,0,0,1,.06.13.89.89,0,0,1-.32.56,2.08,2.08,0,0,1-1.51.67,1.65,1.65,0,0,1-.92-.25,2.47,2.47,0,0,1-.76-.78h0a4.73,4.73,0,0,1-1.07.79,2.25,2.25,0,0,1-1,.24A1.81,1.81,0,0,1,173,290.65Zm2.91-.94a.83.83,0,0,0,.13-.47l.05-1.3c0-.19-.06-.29-.18-.29a.43.43,0,0,0-.21.08,2.28,2.28,0,0,0-.8.54,1.24,1.24,0,0,0-.23.81,1,1,0,0,0,.2.68.63.63,0,0,0,.47.22A.71.71,0,0,0,175.9,289.71Z"/><path class="cls-1" d="M185.89,291.09a3.16,3.16,0,0,1,.06-.57l0-.56a.4.4,0,0,0,0-.2,4,4,0,0,1-1.27,1,3.45,3.45,0,0,1-1.58.39,1.73,1.73,0,0,1-1.41-.72,2.86,2.86,0,0,1-.57-1.81v-3.37a1.21,1.21,0,0,0-.16-.69.82.82,0,0,0-.56-.32.27.27,0,0,1-.18-.1.3.3,0,0,1-.09-.24.26.26,0,0,1,.27-.3,12.48,12.48,0,0,0,2.61-.44l.19,0,.19,0a.21.21,0,0,1,.24.25,7.09,7.09,0,0,0-.15,1.39v3.46a1.61,1.61,0,0,0,.31,1,1,1,0,0,0,.79.41,1.51,1.51,0,0,0,1.1-.39,1.11,1.11,0,0,0,.25-.41,2,2,0,0,0,.11-.71v-2.9a1,1,0,0,0-.27-.71,1.11,1.11,0,0,0-.7-.29.64.64,0,0,1-.33-.11.37.37,0,0,1-.11-.29.32.32,0,0,1,.13-.27.52.52,0,0,1,.31-.09l1.94-.14a7.14,7.14,0,0,0,1.08-.19l.23,0c.18,0,.27.07.27.22a1.25,1.25,0,0,1-.07.27c0,.14-.05.35-.08.63a5.83,5.83,0,0,0,0,.63V289c0,.46.1.69.32.69l.5,0a.36.36,0,0,1,.26.09.3.3,0,0,1,.09.23.41.41,0,0,1-.07.27.3.3,0,0,1-.24.11,9.12,9.12,0,0,0-2.75.72l-.21.07a.69.69,0,0,1-.26,0Q185.89,291.27,185.89,291.09Z"/><path class="cls-1" d="M190.54,290.53a2,2,0,0,1-.24-.81,9.72,9.72,0,0,1-.05-1.24q0-.21.36-.21a.34.34,0,0,1,.23.08.39.39,0,0,1,.15.19,4.75,4.75,0,0,0,.83,1.34,1.38,1.38,0,0,0,1,.48,1,1,0,0,0,.72-.29,1,1,0,0,0,.27-.69,1,1,0,0,0-.32-.73,4,4,0,0,0-.94-.63,5.37,5.37,0,0,1-1.5-1.08,2.12,2.12,0,0,1-.55-1.5,2,2,0,0,1,.83-1.69,3.26,3.26,0,0,1,2.07-.65,4.08,4.08,0,0,1,1.05.13,2.34,2.34,0,0,1,.73.27,1.68,1.68,0,0,1,.23.67,6.08,6.08,0,0,1,.09,1.09.15.15,0,0,1-.1.14.4.4,0,0,1-.22.06.45.45,0,0,1-.26-.09.4.4,0,0,1-.17-.18,2.49,2.49,0,0,0-.61-1.05,1.14,1.14,0,0,0-.82-.36,1.08,1.08,0,0,0-.72.27.83.83,0,0,0-.32.67.88.88,0,0,0,.32.64,4.21,4.21,0,0,0,.9.62,5.77,5.77,0,0,1,1.7,1.21,2.17,2.17,0,0,1,.48,1.47,2.26,2.26,0,0,1-.78,1.84,3.44,3.44,0,0,1-2.24.65A3.61,3.61,0,0,1,190.54,290.53Z"/><path class="cls-1" d="M197.27,290.65a1.54,1.54,0,0,1-.54-1.18,1.43,1.43,0,0,1,.37-1,3.32,3.32,0,0,1,1.16-.75l1.6-.7a1.11,1.11,0,0,0,.44-.29.87.87,0,0,0,.08-.47l0-1a1.41,1.41,0,0,0-.18-.82.67.67,0,0,0-.59-.28,1.13,1.13,0,0,0-.46.1,1.06,1.06,0,0,0-.37.22.57.57,0,0,0-.11.38,2.46,2.46,0,0,0,0,.26,2.46,2.46,0,0,1,0,.26c0,.12-.2.27-.61.45a2.55,2.55,0,0,1-1,.27.3.3,0,0,1-.24-.11.4.4,0,0,1-.09-.27.93.93,0,0,1,.2-.55,3.57,3.57,0,0,1,.65-.65,6.63,6.63,0,0,1,1.58-1,3.7,3.7,0,0,1,1.48-.4,2,2,0,0,1,1.53.62,2.28,2.28,0,0,1,.56,1.65l-.09,3.63a1.24,1.24,0,0,0,.14.71.46.46,0,0,0,.4.28.83.83,0,0,0,.59-.23.14.14,0,0,1,.11,0,.2.2,0,0,1,.15.06.19.19,0,0,1,.06.13.84.84,0,0,1-.32.56,2.06,2.06,0,0,1-1.51.67,1.65,1.65,0,0,1-.92-.25,2.58,2.58,0,0,1-.76-.78h0a4.73,4.73,0,0,1-1.07.79,2.25,2.25,0,0,1-1,.24A1.81,1.81,0,0,1,197.27,290.65Zm2.92-.94a.91.91,0,0,0,.12-.47l.06-1.3c0-.19-.06-.29-.18-.29a.46.46,0,0,0-.22.08,2.39,2.39,0,0,0-.8.54,1.24,1.24,0,0,0-.23.81,1,1,0,0,0,.2.68.63.63,0,0,0,.47.22A.74.74,0,0,0,200.19,289.71Z"/><path class="cls-1" d="M204.59,290.88a.21.21,0,0,1-.12-.18c0-.15.14-.27.41-.36a1.55,1.55,0,0,0,.53-.24.55.55,0,0,0,.16-.45v-4.12c0-.6-.19-.93-.56-1-.13,0-.2-.13-.2-.32s.06-.27.18-.31a11.69,11.69,0,0,0,1.37-.39,8.83,8.83,0,0,0,1.22-.51.92.92,0,0,1,.33-.14c.11,0,.16.07.16.22l0,.36c0,.43-.05.65-.05.66,0,.16,0,.25,0,.27a5.21,5.21,0,0,1,1.28-.93,3.12,3.12,0,0,1,1.42-.31,2,2,0,0,1,1.59.7,2.74,2.74,0,0,1,.62,1.87v4a.52.52,0,0,0,.16.45,1.49,1.49,0,0,0,.52.24q.36.12.36.36a.23.23,0,0,1-.09.18.31.31,0,0,1-.21.07c-.36,0-.7,0-1-.05s-.68,0-.88,0-.5,0-.88,0-.64.05-1,.05a.34.34,0,0,1-.22-.07.23.23,0,0,1-.09-.18q0-.24.36-.36a1.31,1.31,0,0,0,.49-.24.55.55,0,0,0,.14-.45v-3.58a1.7,1.7,0,0,0-.3-1.07,1.07,1.07,0,0,0-.85-.4,1.83,1.83,0,0,0-.68.11,3.48,3.48,0,0,0-.65.35.42.42,0,0,0-.14.34v4.25c0,.22,0,.37.14.44a1.89,1.89,0,0,0,.5.25q.36.12.36.36a.23.23,0,0,1-.09.18.31.31,0,0,1-.21.07,9.2,9.2,0,0,1-1-.05c-.39,0-.68,0-.87,0s-.51,0-.92,0-.67.05-1,.05A.42.42,0,0,1,204.59,290.88Z"/><path class="cls-1" d="M214.78,290.88a.21.21,0,0,1-.12-.18c0-.15.14-.27.41-.36a1.4,1.4,0,0,0,.52-.24.53.53,0,0,0,.17-.45v-4.12c0-.6-.19-.93-.56-1-.13,0-.2-.13-.2-.32s.06-.27.18-.31a11.69,11.69,0,0,0,1.37-.39,8.83,8.83,0,0,0,1.22-.51.92.92,0,0,1,.33-.14c.1,0,.16.07.16.22l0,.36c0,.43-.05.65-.05.66a.61.61,0,0,0,0,.27,5.43,5.43,0,0,1,1.29-.93,3.08,3.08,0,0,1,1.41-.31,2,2,0,0,1,1.6.7,2.74,2.74,0,0,1,.62,1.87v4a.52.52,0,0,0,.16.45,1.49,1.49,0,0,0,.52.24q.36.12.36.36a.23.23,0,0,1-.09.18.31.31,0,0,1-.21.07c-.36,0-.71,0-1-.05s-.68,0-.88,0-.5,0-.88,0-.64.05-1,.05a.32.32,0,0,1-.22-.07.23.23,0,0,1-.09-.18q0-.24.36-.36a1.31,1.31,0,0,0,.49-.24.59.59,0,0,0,.14-.45v-3.58a1.7,1.7,0,0,0-.3-1.07,1.07,1.07,0,0,0-.85-.4,1.83,1.83,0,0,0-.68.11,3.48,3.48,0,0,0-.65.35.43.43,0,0,0-.15.34v4.25a.52.52,0,0,0,.15.44,1.74,1.74,0,0,0,.5.25q.36.12.36.36a.23.23,0,0,1-.09.18.31.31,0,0,1-.21.07,9.55,9.55,0,0,1-1-.05c-.38,0-.67,0-.86,0s-.51,0-.92,0-.67.05-1,.05A.4.4,0,0,1,214.78,290.88Z"/><path class="cls-1" d="M226.54,290.63a3.51,3.51,0,0,1-1.22-1.41,4.57,4.57,0,0,1-.44-2,4.25,4.25,0,0,1,.52-2.05,4,4,0,0,1,1.43-1.48,3.74,3.74,0,0,1,2-.55,3,3,0,0,1,1.38.32,2.54,2.54,0,0,1,1,.9,2.36,2.36,0,0,1,.36,1.26.84.84,0,0,1-.13.53.55.55,0,0,1-.43.16h-3.6a.48.48,0,0,0-.37.14.86.86,0,0,0-.11.49,2.47,2.47,0,0,0,.66,1.75,2.35,2.35,0,0,0,2.61.52,4,4,0,0,0,.9-.54.55.55,0,0,1,.26-.15c.11,0,.18.08.18.24a1.3,1.3,0,0,1-.15.54,2.82,2.82,0,0,1-1.12,1.31,3.5,3.5,0,0,1-2,.56A3,3,0,0,1,226.54,290.63Zm1.92-5.1a5.75,5.75,0,0,0,.65,0,1.75,1.75,0,0,0,.42-.07c.06,0,.1-.08.14-.18a.8.8,0,0,0,.05-.32,1.06,1.06,0,0,0-.33-.79,1.13,1.13,0,0,0-.82-.31,1.38,1.38,0,0,0-1,.46,1.31,1.31,0,0,0-.43,1,.22.22,0,0,0,.25.25Z"/><path class="cls-1" d="M19,388.74a5.8,5.8,0,0,1-2.29-2.1,5.68,5.68,0,0,1-.85-3.06,6.09,6.09,0,0,1,.85-3.12,6.25,6.25,0,0,1,2.39-2.31,7.15,7.15,0,0,1,3.55-.87,10.91,10.91,0,0,1,1.87.21,8.93,8.93,0,0,1,1.75.44.52.52,0,0,1,.36.43,16,16,0,0,1,.21,2.12.36.36,0,0,1-.08.27.28.28,0,0,1-.22.09.43.43,0,0,1-.31-.1.75.75,0,0,1-.18-.28,4.62,4.62,0,0,0-.86-1.38,2.94,2.94,0,0,0-.93-.63,3.31,3.31,0,0,0-1.36-.24,3.55,3.55,0,0,0-2.17.68,4.34,4.34,0,0,0-1.38,1.79,6.06,6.06,0,0,0-.48,2.43,7.3,7.3,0,0,0,.93,4,3,3,0,0,0,2.65,1.46,1.56,1.56,0,0,0,.68-.13,3.61,3.61,0,0,0,.56-.32,1.06,1.06,0,0,0,.3-.47,2,2,0,0,0,.12-.7c0-.41,0-.9,0-1.48a.62.62,0,0,0-.39-.63,4.45,4.45,0,0,0-1.15-.38.69.69,0,0,1-.3-.14.33.33,0,0,1-.14-.25.24.24,0,0,1,.13-.19.41.41,0,0,1,.25-.08c.45,0,.92,0,1.42.05s1.1,0,1.34,0,.6,0,1.08,0l1.15,0a.31.31,0,0,1,.21.07.24.24,0,0,1,.09.2c0,.19-.12.31-.36.37a1.54,1.54,0,0,0-.67.32,1,1,0,0,0-.26.57,6.19,6.19,0,0,0-.13,1.35v.57q0,.13.24.36a.65.65,0,0,1,.18.38.41.41,0,0,1-.08.25.39.39,0,0,1-.27.13,2.3,2.3,0,0,0-.5.2,10.84,10.84,0,0,1-1.71.66,7.46,7.46,0,0,1-2.11.27A6.84,6.84,0,0,1,19,388.74Z"/><path class="cls-1" d="M30.36,389a3.43,3.43,0,0,1-1.22-1.41,4.6,4.6,0,0,1-.44-2,4.11,4.11,0,0,1,.52-2.05A4,4,0,0,1,30.65,382a3.8,3.8,0,0,1,2-.55,2.94,2.94,0,0,1,1.39.33,2.39,2.39,0,0,1,1,.9,2.31,2.31,0,0,1,.36,1.26.81.81,0,0,1-.14.52.51.51,0,0,1-.42.16H31.2a.44.44,0,0,0-.37.15.73.73,0,0,0-.12.48,2.51,2.51,0,0,0,.67,1.76,2.2,2.2,0,0,0,1.67.71,2.43,2.43,0,0,0,.94-.19,4.45,4.45,0,0,0,.9-.55.48.48,0,0,1,.25-.14c.12,0,.18.07.18.23a1.2,1.2,0,0,1-.14.54,2.79,2.79,0,0,1-1.13,1.31,3.38,3.38,0,0,1-2,.56A3,3,0,0,1,30.36,389Zm1.92-5.1.65,0a2.33,2.33,0,0,0,.41-.07.35.35,0,0,0,.15-.18,1.14,1.14,0,0,0,0-.33,1,1,0,0,0-.33-.78,1.16,1.16,0,0,0-.82-.32,1.41,1.41,0,0,0-1,.46,1.34,1.34,0,0,0-.43,1c0,.17.08.26.25.26Z"/><path class="cls-1" d="M36.29,389.21a.21.21,0,0,1-.12-.18c0-.14.14-.26.41-.36a1.8,1.8,0,0,0,.53-.23.58.58,0,0,0,.16-.45v-4.12c0-.6-.19-.94-.56-1-.13,0-.2-.13-.2-.33s.06-.27.18-.3a14.25,14.25,0,0,0,1.37-.4,8.93,8.93,0,0,0,1.22-.5.83.83,0,0,1,.33-.15c.1,0,.16.08.16.22l0,.36c0,.43,0,.65,0,.67a.67.67,0,0,0,0,.27,5.5,5.5,0,0,1,1.29-.94,3.24,3.24,0,0,1,1.41-.31,2.05,2.05,0,0,1,1.6.71,2.72,2.72,0,0,1,.62,1.87v4a.55.55,0,0,0,.16.45,1.72,1.72,0,0,0,.52.23q.36.13.36.36a.23.23,0,0,1-.09.18.31.31,0,0,1-.21.07,8.46,8.46,0,0,1-1,0l-.88,0-.88,0a7.84,7.84,0,0,1-1,0,.32.32,0,0,1-.22-.07.23.23,0,0,1-.09-.18q0-.22.36-.36a1.49,1.49,0,0,0,.49-.23.62.62,0,0,0,.14-.45v-3.58a1.73,1.73,0,0,0-.3-1.08,1.1,1.1,0,0,0-.85-.4,1.83,1.83,0,0,0-.68.12,2.61,2.61,0,0,0-.65.35.42.42,0,0,0-.15.34V388a.54.54,0,0,0,.15.44,1.54,1.54,0,0,0,.5.24q.36.13.36.36a.23.23,0,0,1-.09.18.31.31,0,0,1-.21.07,7.12,7.12,0,0,1-1,0l-.87,0-.92,0a8.53,8.53,0,0,1-1,0A.4.4,0,0,1,36.29,389.21Z"/><path class="cls-1" d="M48.05,389a3.51,3.51,0,0,1-1.22-1.41,4.6,4.6,0,0,1-.44-2,4.22,4.22,0,0,1,.52-2.05A4,4,0,0,1,48.35,382a3.78,3.78,0,0,1,2-.55,2.93,2.93,0,0,1,1.38.33,2.39,2.39,0,0,1,1,.9,2.31,2.31,0,0,1,.36,1.26.81.81,0,0,1-.13.52.52.52,0,0,1-.43.16h-3.6a.42.42,0,0,0-.36.15.73.73,0,0,0-.12.48,2.5,2.5,0,0,0,.66,1.76,2.24,2.24,0,0,0,1.68.71,2.38,2.38,0,0,0,.93-.19,4.45,4.45,0,0,0,.9-.55.5.5,0,0,1,.26-.14c.12,0,.18.07.18.23a1.23,1.23,0,0,1-.15.54,2.77,2.77,0,0,1-1.12,1.31,3.42,3.42,0,0,1-2,.56A3.06,3.06,0,0,1,48.05,389Zm2.34-8.18c-.58-.58-1.18-1.24-1.82-2l-.47-.52a.64.64,0,0,1-.18-.45c0-.13.1-.24.31-.32a2.28,2.28,0,0,1,.75-.11,1,1,0,0,1,.5.1.68.68,0,0,1,.31.35c.18.36.38.78.6,1.27s.41.95.57,1.37a.92.92,0,0,1,.09.38c0,.14-.06.22-.18.22A.74.74,0,0,1,50.39,380.79ZM50,383.87l.65,0a2.29,2.29,0,0,0,.42-.07.34.34,0,0,0,.14-.18.88.88,0,0,0,0-.33,1,1,0,0,0-.33-.78,1.14,1.14,0,0,0-.82-.32,1.41,1.41,0,0,0-1,.46,1.34,1.34,0,0,0-.43,1,.23.23,0,0,0,.25.26Z"/><path class="cls-2" d="M57.42,389.47a2.14,2.14,0,0,1-.17-.34,3.09,3.09,0,0,0-.15-.31l-.25-.6-.36-.86c-.29-.66-.64-1.44-1.06-2.32l-.38-.81-.45-1a3.4,3.4,0,0,0-.41-.7,1.13,1.13,0,0,0-.51-.37.63.63,0,0,1-.25-.15.31.31,0,0,1-.07-.22c0-.15.14-.22.43-.22l.94.05a4.92,4.92,0,0,0,.84.06,6.86,6.86,0,0,0,.94-.06l.46,0c.21,0,.41,0,.62,0a.94.94,0,0,1,.3.05.19.19,0,0,1,.13.18c0,.09,0,.15-.07.18a.77.77,0,0,1-.18.1l-.16.07a.74.74,0,0,0-.42.77v.16a1.14,1.14,0,0,0,.07.42l1.21,3h.05l1.07-2.85a1.39,1.39,0,0,0,.1-.57.86.86,0,0,0-.57-.89,1.05,1.05,0,0,1-.31-.13.23.23,0,0,1-.09-.21.19.19,0,0,1,.13-.18.84.84,0,0,1,.29,0l.72,0,.52,0,1.24,0c.29,0,.43.07.43.21A.32.32,0,0,1,62,382a.8.8,0,0,1-.27.15,1.38,1.38,0,0,0-.6.41,2.23,2.23,0,0,0-.46.71l-1.41,3.53c-.15.39-.34.83-.57,1.31a13,13,0,0,1-.67,1.46h-.41C57.53,389.61,57.47,389.56,57.42,389.47Z"/><path class="cls-2" d="M63.73,389a3.43,3.43,0,0,1-1.22-1.41,4.6,4.6,0,0,1-.44-2,4.11,4.11,0,0,1,.52-2.05A4,4,0,0,1,64,382a3.83,3.83,0,0,1,2-.55,2.94,2.94,0,0,1,1.39.33,2.39,2.39,0,0,1,1,.9,2.31,2.31,0,0,1,.36,1.26.81.81,0,0,1-.13.52.54.54,0,0,1-.43.16h-3.6a.44.44,0,0,0-.37.15.74.74,0,0,0-.11.48,2.5,2.5,0,0,0,.66,1.76,2.22,2.22,0,0,0,1.68.71,2.41,2.41,0,0,0,.93-.19,4.45,4.45,0,0,0,.9-.55.52.52,0,0,1,.25-.14c.12,0,.18.07.18.23a1.2,1.2,0,0,1-.14.54,2.79,2.79,0,0,1-1.13,1.31,3.38,3.38,0,0,1-2,.56A3,3,0,0,1,63.73,389Zm1.92-5.1.65,0a2.18,2.18,0,0,0,.41-.07.35.35,0,0,0,.15-.18,1.14,1.14,0,0,0,0-.33,1,1,0,0,0-.33-.78,1.16,1.16,0,0,0-.82-.32,1.41,1.41,0,0,0-1,.46,1.34,1.34,0,0,0-.43,1c0,.17.08.26.25.26Z"/><path class="cls-1" d="M220.11,171.82a5.87,5.87,0,0,1-2.29-2.1,5.6,5.6,0,0,1-.85-3.07,6.59,6.59,0,0,1,.74-3.1,5.74,5.74,0,0,1,2.2-2.31,7,7,0,0,1,6.55-.13,5.94,5.94,0,0,1,2.29,2.1,5.61,5.61,0,0,1,.85,3.08,6.71,6.71,0,0,1-.74,3.09,5.86,5.86,0,0,1-2.21,2.32,6.61,6.61,0,0,1-3.46.87A6.52,6.52,0,0,1,220.11,171.82Zm5.7-1.31a6,6,0,0,0,.8-3.31,10.55,10.55,0,0,0-.39-2.91,5.39,5.39,0,0,0-1.21-2.22,2.64,2.64,0,0,0-2-.86,2.57,2.57,0,0,0-2.28,1.22,6,6,0,0,0-.79,3.28,10.74,10.74,0,0,0,.39,2.93,5.53,5.53,0,0,0,1.2,2.24,2.62,2.62,0,0,0,2,.86A2.57,2.57,0,0,0,225.81,170.51Z"/><path class="cls-1" d="M230.62,172.31a.21.21,0,0,1-.1-.19.28.28,0,0,1,.1-.23.76.76,0,0,1,.31-.13,1.4,1.4,0,0,0,.53-.27.61.61,0,0,0,.14-.42v-4.14a1.36,1.36,0,0,0-.12-.63.67.67,0,0,0-.42-.32.3.3,0,0,1-.23-.32.28.28,0,0,1,.21-.31,12.63,12.63,0,0,0,2.45-.85.82.82,0,0,1,.41-.19c.11,0,.17.06.17.19l-.06,1.43c0,.1,0,.16.07.16a5.69,5.69,0,0,1,1.08-1.11,2.06,2.06,0,0,1,1.21-.46,1.35,1.35,0,0,1,.87.23.73.73,0,0,1,.28.62,1.62,1.62,0,0,1-.33.91.89.89,0,0,1-.71.47,1.63,1.63,0,0,1-.7-.25l-.3-.13a.89.89,0,0,0-.37-.1c-.77,0-1.15.57-1.15,1.71v2.93a.64.64,0,0,0,.21.52,2.16,2.16,0,0,0,.74.33c.27.07.4.19.4.36a.23.23,0,0,1-.09.18.32.32,0,0,1-.22.07c-.38,0-.77,0-1.15-.05s-.82,0-1,0-.51,0-.92,0-.67.05-1,.05A.48.48,0,0,1,230.62,172.31Z"/><path class="cls-1" d="M240.76,172.3a4.58,4.58,0,0,0-.86-.2,1.28,1.28,0,0,0-.65.23.45.45,0,0,1-.25.13.44.44,0,0,1-.25-.06.21.21,0,0,1-.08-.17,6.17,6.17,0,0,1,.1-.64,4.7,4.7,0,0,0,.08-1.16l-.07-8a2.21,2.21,0,0,0-.15-.88.75.75,0,0,0-.55-.42.26.26,0,0,1-.22-.29.25.25,0,0,1,.06-.16.19.19,0,0,1,.14-.09,18.13,18.13,0,0,0,2.7-.88.79.79,0,0,1,.25-.07c.14,0,.2.07.2.21a4.31,4.31,0,0,1,0,.49,5.27,5.27,0,0,0,0,.65v3.85c0,.33.06.5.16.5a5.24,5.24,0,0,1,1.16-.58,3.55,3.55,0,0,1,1.15-.21,3,3,0,0,1,1.69.49,3.47,3.47,0,0,1,1.2,1.34,4.12,4.12,0,0,1,.44,1.9,4.59,4.59,0,0,1-.55,2.24,3.84,3.84,0,0,1-1.55,1.52,4.75,4.75,0,0,1-2.29.54A7.33,7.33,0,0,1,240.76,172.3Zm3.22-1.38a5.66,5.66,0,0,0,0-4.4,1.46,1.46,0,0,0-1.35-1,2.78,2.78,0,0,0-.79.11,1.81,1.81,0,0,0-.67.3v3.84a2.11,2.11,0,0,0,.51,1.44,1.6,1.6,0,0,0,1.22.57C243.32,171.81,243.69,171.52,244,170.92Z"/><path class="cls-1" d="M249.4,172.06a3.58,3.58,0,0,1-1.21-1.42,4.43,4.43,0,0,1-.44-2,4.15,4.15,0,0,1,.52-2.06,4,4,0,0,1,1.43-1.48,3.69,3.69,0,0,1,2-.55,3.09,3.09,0,0,1,1.39.32,2.54,2.54,0,0,1,1,.9,2.36,2.36,0,0,1,.36,1.26.84.84,0,0,1-.14.53.54.54,0,0,1-.42.16h-3.6a.47.47,0,0,0-.37.14.78.78,0,0,0-.12.49,2.44,2.44,0,0,0,.67,1.75,2.16,2.16,0,0,0,1.67.71,2.42,2.42,0,0,0,.94-.18,4.45,4.45,0,0,0,.9-.55c.12-.1.2-.15.25-.15s.18.08.18.24a1.44,1.44,0,0,1-.14.54A2.85,2.85,0,0,1,253.1,172a3.48,3.48,0,0,1-2,.56A3.08,3.08,0,0,1,249.4,172.06Zm1.93-5.11a5.94,5.94,0,0,0,.65,0,1.67,1.67,0,0,0,.41-.07.25.25,0,0,0,.14-.18.79.79,0,0,0,.06-.32,1,1,0,0,0-.34-.78,1.13,1.13,0,0,0-.81-.32,1.36,1.36,0,0,0-1,.46,1.29,1.29,0,0,0-.43,1,.22.22,0,0,0,.25.25Z"/><path class="cls-1" d="M270,361.59a.25.25,0,0,1-.09-.19.32.32,0,0,1,.09-.21.54.54,0,0,1,.3-.16,2.58,2.58,0,0,0,.89-.4,1,1,0,0,0,.25-.77v-8.2a1.21,1.21,0,0,0-.23-.83,1.76,1.76,0,0,0-.87-.39c-.28-.05-.42-.17-.42-.38a.26.26,0,0,1,.11-.19.46.46,0,0,1,.27-.08c.41,0,.87,0,1.37.07l.48,0,.6,0a9.12,9.12,0,0,0,1-.07c.68-.06,1.2-.09,1.55-.09a6.66,6.66,0,0,1,3.28.62,2.19,2.19,0,0,1,1.07,2.06,2.32,2.32,0,0,1-.24,1,2.47,2.47,0,0,1-.66.84,2.89,2.89,0,0,1-1.31.68.09.09,0,0,0-.07.09.08.08,0,0,0,.07.09,5.18,5.18,0,0,1,2.07.9,2.41,2.41,0,0,1,.81,2,3.33,3.33,0,0,1-.3,1.51,2.64,2.64,0,0,1-.67.9,5,5,0,0,1-.92.58,7.46,7.46,0,0,1-3.15.57l-1.17,0c-.55,0-1,0-1.3,0s-.82,0-1.28.06l-1.27,0A.4.4,0,0,1,270,361.59Zm5.75-6.76a2.14,2.14,0,0,0,.71-.38,1.62,1.62,0,0,0,.39-.58,2.61,2.61,0,0,0,.18-1.05,2.68,2.68,0,0,0-.45-1.7,1.69,1.69,0,0,0-1.42-.57,1.12,1.12,0,0,0-.73.19.68.68,0,0,0-.22.56v3a.53.53,0,0,0,.22.48.89.89,0,0,0,.5.15A3,3,0,0,0,275.71,354.83Zm.57,5.51a2.33,2.33,0,0,0,.76-.88,2.82,2.82,0,0,0,.28-1.24,2.55,2.55,0,0,0-.9-2.07,1.68,1.68,0,0,0-.57-.28,2.77,2.77,0,0,0-.85-.12,1,1,0,0,0-.58.16.49.49,0,0,0-.25.43v3.17c0,.77.36,1.15,1.1,1.15A1.73,1.73,0,0,0,276.28,360.34Z"/><path class="cls-1" d="M282.9,361.32a3.51,3.51,0,0,1-1.22-1.41,4.57,4.57,0,0,1-.44-2,4.22,4.22,0,0,1,.52-2.05,4,4,0,0,1,1.43-1.48,3.74,3.74,0,0,1,2-.55,2.92,2.92,0,0,1,1.38.32,2.54,2.54,0,0,1,1,.9,2.31,2.31,0,0,1,.36,1.26.81.81,0,0,1-.13.52.52.52,0,0,1-.43.16h-3.6a.45.45,0,0,0-.37.15.84.84,0,0,0-.11.49,2.47,2.47,0,0,0,.66,1.75,2.35,2.35,0,0,0,2.61.52,4,4,0,0,0,.9-.55.6.6,0,0,1,.26-.14c.11,0,.18.08.18.23a1.23,1.23,0,0,1-.15.54,2.84,2.84,0,0,1-1.12,1.32,3.5,3.5,0,0,1-2,.55A3.06,3.06,0,0,1,282.9,361.32Zm1.92-5.1.65,0a2.18,2.18,0,0,0,.41-.07c.07,0,.11-.09.15-.18a.88.88,0,0,0,.05-.33,1,1,0,0,0-.33-.78,1.15,1.15,0,0,0-.82-.31,1.38,1.38,0,0,0-1,.46,1.31,1.31,0,0,0-.43,1,.23.23,0,0,0,.25.25Z"/><path class="cls-1" d="M288.17,361.46a.37.37,0,0,1,.08-.25,1,1,0,0,1,.26-.15,1.15,1.15,0,0,0,.43-.26,6.59,6.59,0,0,0,.55-.64l1.65-2.27a.43.43,0,0,0,.11-.23.51.51,0,0,0-.09-.24l-1.35-2a5.6,5.6,0,0,0-.47-.63,1,1,0,0,0-.41-.27.57.57,0,0,1-.26-.14.29.29,0,0,1-.08-.24c0-.15.14-.22.43-.22l.93.06a6.81,6.81,0,0,0,.87.05c.24,0,.53,0,.86,0a9,9,0,0,1,1-.05.93.93,0,0,1,.29.05.2.2,0,0,1,.14.18.22.22,0,0,1-.07.17l-.18.1-.17.06a1.59,1.59,0,0,0-.37.18.28.28,0,0,0-.13.25,1.42,1.42,0,0,0,.23.56l.83,1.2c.06.09.12.09.16,0l.56-.95a1.74,1.74,0,0,0,.24-.79.45.45,0,0,0-.33-.42l-.16-.06a.33.33,0,0,1-.16-.11.22.22,0,0,1-.06-.17q0-.12.15-.18a.93.93,0,0,1,.29,0l.57,0h.6l.55,0,.6,0c.29,0,.43.07.43.22a.31.31,0,0,1-.08.22.78.78,0,0,1-.26.16,1.13,1.13,0,0,0-.44.26,3.31,3.31,0,0,0-.55.62l-1.3,1.73a.5.5,0,0,0-.11.23.49.49,0,0,0,.11.24l1.51,2.37a3.16,3.16,0,0,0,.54.65,2.45,2.45,0,0,0,.63.4.57.57,0,0,1,.26.13.3.3,0,0,1,.09.24c0,.15-.15.22-.44.22l-1.06-.05a7.62,7.62,0,0,0-1-.06c-.22,0-.54,0-1,0s-.68.05-1.08.05a.73.73,0,0,1-.32-.06.2.2,0,0,1-.11-.17.22.22,0,0,1,.1-.21,1.19,1.19,0,0,1,.31-.13.83.83,0,0,0,.39-.23.68.68,0,0,0,.13-.46,1.55,1.55,0,0,0,0-.33,1.19,1.19,0,0,0-.18-.32l-.92-1.35-.05,0-.06,0-.84,1.5a1.32,1.32,0,0,0-.26.7.54.54,0,0,0,.33.54,1.53,1.53,0,0,1,.3.13.23.23,0,0,1,.09.19c0,.16-.14.24-.43.24l-.64,0-.46,0-1.26,0C288.32,361.65,288.17,361.59,288.17,361.46Z"/><path class="cls-1" d="M281.4,409.68a.19.19,0,0,1,.09-.17l.21-.1.2-.06a1.73,1.73,0,0,0,.75-.52,1.83,1.83,0,0,0,.37-.9q.32-2.52.68-7.38c0-.08,0-.29,0-.61a.88.88,0,0,0-.43-.83,3.41,3.41,0,0,0-1-.41c-.31-.09-.47-.21-.47-.38s.16-.27.49-.27l1.33,0,.87,0,1.22,0a.43.43,0,0,1,.26.1.44.44,0,0,1,.17.22c.23.65.38,1.09.47,1.32l2.64,6.31c0,.05.06.08.1.08s.08,0,.1-.08l2.57-6c.16-.83.28-1.38.36-1.66a.3.3,0,0,1,.29-.23h.78l1.56-.11c.58-.06,1-.09,1.3-.09s.45.09.45.27a.27.27,0,0,1-.1.22,1.73,1.73,0,0,1-.32.14l-.5.22a1.74,1.74,0,0,0-.71.54,1.23,1.23,0,0,0-.17.84q.13,3.53.32,6.14l.11,1.73c.05.56.49.95,1.31,1.17a1.34,1.34,0,0,1,.33.14.25.25,0,0,1,.11.22.24.24,0,0,1-.11.2.54.54,0,0,1-.27.07c-.45,0-.93,0-1.46-.06l-1.31,0-1.19,0c-.47,0-.93.06-1.37.06a.66.66,0,0,1-.3-.07.22.22,0,0,1-.11-.18c0-.2.14-.32.43-.38a2,2,0,0,0,.92-.39,1,1,0,0,0,.23-.78c0-.76-.08-2-.13-3.62l-.1-2.86c0-.09,0-.13-.06-.13s-.09.05-.12.15l-3.44,8.17c-.05.14-.13.21-.25.21a.29.29,0,0,1-.27-.18c-.44-1-1-2.18-1.61-3.56q-1.47-3.24-2-4.59c0-.08-.08-.13-.13-.13s-.15.09-.18.26q-.12,1.8-.12,6.15a1.08,1.08,0,0,0,.33.82,2.21,2.21,0,0,0,1,.48c.33.07.5.19.5.36a.23.23,0,0,1-.14.2.82.82,0,0,1-.31.07c-.37,0-.73,0-1.06,0l-.78,0c-.24,0-.75,0-1.54.05l-.38,0C281.54,409.93,281.4,409.84,281.4,409.68Z"/><path class="cls-1" d="M298.24,409.63a1.54,1.54,0,0,1-.54-1.18,1.49,1.49,0,0,1,.37-1,3.52,3.52,0,0,1,1.16-.74l1.61-.7a1.2,1.2,0,0,0,.44-.29,1,1,0,0,0,.08-.47l0-1a1.39,1.39,0,0,0-.18-.81.68.68,0,0,0-.6-.28,1.25,1.25,0,0,0-.83.32.58.58,0,0,0-.1.38,2.35,2.35,0,0,0,0,.26,1.18,1.18,0,0,1,0,.26q0,.18-.6.45a2.59,2.59,0,0,1-1,.27.28.28,0,0,1-.23-.11.4.4,0,0,1-.09-.27,1,1,0,0,1,.19-.56,4.38,4.38,0,0,1,.65-.64,7.07,7.07,0,0,1,1.59-1,3.79,3.79,0,0,1,1.47-.39,2,2,0,0,1,1.53.62,2.24,2.24,0,0,1,.56,1.65l-.09,3.63a1.37,1.37,0,0,0,.14.7.46.46,0,0,0,.4.29.84.84,0,0,0,.59-.23.17.17,0,0,1,.11-.06.21.21,0,0,1,.15.07.16.16,0,0,1,.07.13.89.89,0,0,1-.33.56,2.08,2.08,0,0,1-1.51.67,1.76,1.76,0,0,1-.92-.25,2.56,2.56,0,0,1-.75-.78h0a4.33,4.33,0,0,1-1.07.79,2.25,2.25,0,0,1-1,.24A1.81,1.81,0,0,1,298.24,409.63Zm2.92-.94a.92.92,0,0,0,.13-.47l0-1.3c0-.19-.06-.29-.18-.29a.49.49,0,0,0-.22.08,2.39,2.39,0,0,0-.8.54,1.24,1.24,0,0,0-.22.81.94.94,0,0,0,.2.68.61.61,0,0,0,.46.22A.74.74,0,0,0,301.16,408.69Z"/><path class="cls-1" d="M305.56,409.86a.19.19,0,0,1-.1-.18.26.26,0,0,1,.1-.23.81.81,0,0,1,.32-.13,1.49,1.49,0,0,0,.53-.27.6.6,0,0,0,.13-.42v-4.14a1.57,1.57,0,0,0-.11-.64.65.65,0,0,0-.43-.31.32.32,0,0,1-.23-.33.27.27,0,0,1,.21-.3,12.23,12.23,0,0,0,1.27-.37,10.2,10.2,0,0,0,1.18-.48.85.85,0,0,1,.42-.2c.1,0,.16.07.16.2l-.06,1.42c0,.11,0,.17.08.17a4.75,4.75,0,0,1,1.08-1.11,2,2,0,0,1,1.2-.46,1.41,1.41,0,0,1,.88.22.77.77,0,0,1,.27.63,1.59,1.59,0,0,1-.33.9.91.91,0,0,1-.71.48,1.63,1.63,0,0,1-.7-.25l-.3-.14a1,1,0,0,0-.37-.09c-.77,0-1.15.57-1.15,1.71v2.93a.62.62,0,0,0,.22.52,2.09,2.09,0,0,0,.73.33c.27.07.4.19.4.36a.23.23,0,0,1-.09.18.38.38,0,0,1-.22.07,11.22,11.22,0,0,1-1.15-.06l-1,0-.91,0a8.74,8.74,0,0,1-1.05.06A.42.42,0,0,1,305.56,409.86Z"/><path class="cls-1" d="M314.69,409.53a2.25,2.25,0,0,1-.61-1.71v-4.14a.25.25,0,0,0-.12-.23,1,1,0,0,0-.43-.09h-.24c-.07,0-.14-.07-.2-.2a.92.92,0,0,1-.09-.38.2.2,0,0,1,.11-.18,9.85,9.85,0,0,0,2.63-1.83.69.69,0,0,1,.12-.1l.17-.1a.27.27,0,0,1,.16,0,.3.3,0,0,1,.23.07.45.45,0,0,1,0,.29l-.11,1.06V402c0,.2.14.3.43.3h2.15s.07,0,.1.13a.53.53,0,0,1,.06.23,2,2,0,0,1-.07.5c0,.15-.11.22-.17.22h-1.67a1.2,1.2,0,0,0-.57.1.39.39,0,0,0-.15.35v3.4a2,2,0,0,0,.31,1.23,1,1,0,0,0,.84.41,2.6,2.6,0,0,0,.64-.06,2,2,0,0,0,.38-.14l.19-.09.11,0a.17.17,0,0,1,.14.1.48.48,0,0,1,.05.26c0,.08-.13.22-.4.42a4,4,0,0,1-1,.53,3.37,3.37,0,0,1-1.24.24A2.4,2.4,0,0,1,314.69,409.53Z"/><path class="cls-1" d="M319.73,409.86a.2.2,0,0,1-.08-.17c0-.18.1-.3.32-.36a1.9,1.9,0,0,0,.67-.24.49.49,0,0,0,.18-.42v-3.89a1.57,1.57,0,0,0-.18-.86.82.82,0,0,0-.6-.33.23.23,0,0,1-.16-.11.36.36,0,0,1,0-.41A.26.26,0,0,1,320,403a7.2,7.2,0,0,0,1.43-.39c.42-.17.87-.38,1.36-.62a1,1,0,0,1,.36-.14.24.24,0,0,1,.17.06.2.2,0,0,1,.07.16l-.07.66a19,19,0,0,0-.17,2v4a.49.49,0,0,0,.18.4,2.16,2.16,0,0,0,.69.28.66.66,0,0,1,.24.13.29.29,0,0,1,.08.22c0,.15-.09.23-.27.23s-.62,0-1.1,0l-1,0-1,0a9.77,9.77,0,0,1-1.08.06A.32.32,0,0,1,319.73,409.86Zm1.19-9.27a1.38,1.38,0,0,1-.41-1,1.43,1.43,0,0,1,.41-1,1.34,1.34,0,0,1,1-.41,1.41,1.41,0,0,1,1,.41,1.4,1.4,0,0,1,.42,1,1.35,1.35,0,0,1-.42,1,1.45,1.45,0,0,1-1,.41A1.38,1.38,0,0,1,320.92,400.59Z"/><path class="cls-1" d="M333.61,402.62a.5.5,0,0,1,.08.29.88.88,0,0,1-.08.31,1.53,1.53,0,0,1-.16.34.31.31,0,0,1-.23.12h-.49a1,1,0,0,0-.63.15.43.43,0,0,0-.08.24c0,.1,0,.3,0,.6a3.27,3.27,0,0,1-.48,1.73,3.54,3.54,0,0,1-1.28,1.27,3.36,3.36,0,0,1-1.75.48,3.46,3.46,0,0,1-1.2-.24,1.28,1.28,0,0,0-.27.24.48.48,0,0,0-.09.25c0,.19.18.33.54.43a12.23,12.23,0,0,0,2,.25,8,8,0,0,1,2.83.6,1.4,1.4,0,0,1,.88,1.29,3.23,3.23,0,0,1-.7,1.93,5.49,5.49,0,0,1-1.81,1.56,4.55,4.55,0,0,1-2.22.62,5.75,5.75,0,0,1-2.74-.55,1.68,1.68,0,0,1-1-1.51,2.36,2.36,0,0,1,.13-.89,1.72,1.72,0,0,1,.57-.64l.61-.44c.22-.16.37-.28.45-.35a1.7,1.7,0,0,1-1.27-1.64.87.87,0,0,1,.48-.7,10.94,10.94,0,0,0,1-.75,3.32,3.32,0,0,1-1.08-1.06,2.53,2.53,0,0,1-.4-1.39,2.71,2.71,0,0,1,.5-1.59,3.51,3.51,0,0,1,1.34-1.09,4.09,4.09,0,0,1,1.8-.4,6.18,6.18,0,0,1,1.36.2c.34.07.6.12.78.14a7.34,7.34,0,0,0,1.44.15c.15,0,.35,0,.59,0l.4,0A.28.28,0,0,1,333.61,402.62Zm-2.79,9.05a1.64,1.64,0,0,0-.71-.29,11.89,11.89,0,0,0-1.43-.23,9.27,9.27,0,0,1-1.28-.18,2.84,2.84,0,0,0-.78.69,1.37,1.37,0,0,0-.26.81,1.48,1.48,0,0,0,.61,1.22,2.47,2.47,0,0,0,1.57.49,2.52,2.52,0,0,0,1.76-.49,2.31,2.31,0,0,0,.53-.73,1.86,1.86,0,0,0,.19-.82A.62.62,0,0,0,330.82,411.67Zm-1.22-4.95a3.52,3.52,0,0,0,.34-1.69,3,3,0,0,0-.37-1.6,1.07,1.07,0,0,0-.94-.61,1,1,0,0,0-.89.62,2.93,2.93,0,0,0-.37,1.54,3.48,3.48,0,0,0,.38,1.68,1.12,1.12,0,0,0,.95.69A1,1,0,0,0,329.6,406.72Z"/><path class="cls-1" d="M334.07,409.86a.2.2,0,0,1-.11-.18c0-.15.13-.27.41-.36a1.69,1.69,0,0,0,.52-.24.52.52,0,0,0,.16-.45v-4.12c0-.6-.18-.94-.55-1-.14,0-.2-.13-.2-.32s.06-.27.18-.31c.42-.09.87-.23,1.37-.39a8.83,8.83,0,0,0,1.22-.51.9.9,0,0,1,.32-.14c.11,0,.17.07.17.21l0,.36c0,.44,0,.66,0,.67a.61.61,0,0,0,0,.27,5.59,5.59,0,0,1,1.29-.94,3.18,3.18,0,0,1,1.41-.3,2,2,0,0,1,1.59.7,2.7,2.7,0,0,1,.63,1.87v4a.52.52,0,0,0,.16.45,1.69,1.69,0,0,0,.52.24q.36.12.36.36a.23.23,0,0,1-.09.18.38.38,0,0,1-.22.07,8.23,8.23,0,0,1-1-.06l-.88,0-.89,0a7.57,7.57,0,0,1-1,.06.38.38,0,0,1-.22-.07.23.23,0,0,1-.09-.18q0-.24.36-.36a1.48,1.48,0,0,0,.49-.24.59.59,0,0,0,.14-.45v-3.58a1.64,1.64,0,0,0-.31-1.07,1.07,1.07,0,0,0-.84-.41,1.92,1.92,0,0,0-.69.12,3.42,3.42,0,0,0-.64.35.43.43,0,0,0-.15.34v4.25a.53.53,0,0,0,.15.44,1.74,1.74,0,0,0,.5.25q.36.12.36.36a.23.23,0,0,1-.09.18.38.38,0,0,1-.22.07,7.1,7.1,0,0,1-1-.06l-.86,0-.92,0a8.45,8.45,0,0,1-1,.06A.55.55,0,0,1,334.07,409.86Z"/><path class="cls-1" d="M343.87,414.64a1,1,0,0,1-.41-.81,1.29,1.29,0,0,1,.19-.7.61.61,0,0,1,.55-.3,4.26,4.26,0,0,1,.56.09,2.12,2.12,0,0,0,.59.09.69.69,0,0,0,.36-.12,2,2,0,0,0,.27-.39c.12-.19.25-.42.4-.69s.31-.63.5-1.07a2.51,2.51,0,0,0,.22-.87,1.35,1.35,0,0,0-.09-.47c-.05-.16-.11-.32-.17-.46l-2.21-5a3.44,3.44,0,0,0-.4-.71,1.22,1.22,0,0,0-.5-.36.58.58,0,0,1-.26-.16.31.31,0,0,1-.08-.23c0-.13.15-.2.45-.2s.71,0,1.1,0l.63,0,.91,0c.41,0,.76,0,1,0a.88.88,0,0,1,.29.05.19.19,0,0,1,.12.18.23.23,0,0,1-.08.19.59.59,0,0,1-.19.11l-.14.06a.63.63,0,0,0-.32.25.87.87,0,0,0-.1.44,2.26,2.26,0,0,0,.2.83l1.12,2.71s0,.06.05.06,0,0,.06-.06l.91-2.75a2,2,0,0,0,.15-.72.77.77,0,0,0-.17-.49,1,1,0,0,0-.39-.27,1.08,1.08,0,0,1-.32-.14.27.27,0,0,1-.09-.22.19.19,0,0,1,.12-.18.88.88,0,0,1,.29-.05l.77,0,.54,0,.6,0,.63,0c.28,0,.43.07.43.2a.38.38,0,0,1-.07.24.63.63,0,0,1-.25.15,1.54,1.54,0,0,0-.62.4,2.33,2.33,0,0,0-.45.72l-2.68,6.44c-.38.93-.87,2.09-1.47,3.5a1.72,1.72,0,0,1-.66.79,1.92,1.92,0,0,1-1,.27A1.46,1.46,0,0,1,343.87,414.64Z"/><circle class="cls-1" cx="205.44" cy="167.14" r="5.19"/><circle class="cls-1" cx="148.23" cy="286.76" r="5.19"/><circle class="cls-1" cx="256.59" cy="356.11" r="5.19"/><circle class="cls-1" cx="270.46" cy="404.66" r="5.19"/><circle class="cls-1" cx="5.19" cy="383" r="5.19"/></g></g></svg>