<svg xmlns="http://www.w3.org/2000/svg" viewBox="0 0 424.26 502.7"><defs><style>.cls-1{fill:#222221;}.cls-2{fill:#abcb8f;}</style></defs><g id="Calque_2" data-name="Calque 2"><g id="Calque_1-2" data-name="Calque 1"><path d="M146.07,198.11a9.8,9.8,0,0,1-1-5.46,7.39,7.39,0,0,0-.36-3.31c-.78-1.88-.44-3.8-.49-5.69a13.41,13.41,0,0,1,.58-5.68,5.37,5.37,0,0,0,.25-1.89,10,10,0,0,1,.54-2.8,27.46,27.46,0,0,1,4.62-9.37,13.24,13.24,0,0,0,1.84-3.34,24.3,24.3,0,0,1,3.81-6.08c1.31-1.59,2.88-3,4.34-4.44a2.5,2.5,0,0,1,.77-.56c4.14-1.76,7.58-4.69,11.51-6.87,1-.56,2.16.06,3.26.17a5.13,5.13,0,0,0,3.23-.62c2.48-1.44,5.06-2.7,7.67-3.89a36.43,36.43,0,0,0,7.49-5.13,9.19,9.19,0,0,0,2.31-3c.8-1.57,1.68-3.09,2.43-4.68a8.11,8.11,0,0,0,.87-2.71,19.17,19.17,0,0,1,1.77-6.44c.66-1.47.75-3.11,1.3-4.6a11.23,11.23,0,0,0,1-4.13,2.53,2.53,0,0,1,.18-.94c1.35-3.23,2.39-6.61,4.4-9.54a8.51,8.51,0,0,1,3.32-3.36C215,90.86,218.65,88.63,222,86A43.4,43.4,0,0,0,228,79.15c1.49-2.46,2.72-5.08,4.63-7.26a2.75,2.75,0,0,0,.52-.8c1-3,3.23-5.11,4.87-7.64A36.57,36.57,0,0,0,239.34,54a15.84,15.84,0,0,1,.37-1.87,2.63,2.63,0,0,0-.12-1.37,3.84,3.84,0,0,1,.32-3.66c.31-.56.59-1.14.89-1.73-.22-1.39-.82-2.8-.42-4.22.64-2.29.61-4.76,2-6.86a11.83,11.83,0,0,0,1.23-2.59,20.31,20.31,0,0,1,1.87-3.87,10.45,10.45,0,0,1,3.76-4.26,6.32,6.32,0,0,0,1.39-1.3,5.72,5.72,0,0,1,2.4-1.5,7.75,7.75,0,0,0,2-1.28,3.11,3.11,0,0,1,2.27-.52l1.61.12c1-.57,2.05-1.28,3.2-1.82,2.57-1.21,5.42-1.85,7.64-3.79,1.58-.06,2.6-1.1,3.66-2.07a1.05,1.05,0,0,1,.4-.27c2.12-.68,3.58-2.7,5.92-2.94,1.7-.88,3.46-1.68,4.25-3.32a25.25,25.25,0,0,0,4.38-1.32,17,17,0,0,1,5-1.62,5.72,5.72,0,0,1,1.88-.12,4.16,4.16,0,0,0,2.32,0c1.36-.47,2.85.16,4.23-.53A31.24,31.24,0,0,1,305.25,0a25.93,25.93,0,0,1,6.95,2,17.65,17.65,0,0,1,3.18,3.55c2.78,3.9,5.48,7.85,8.56,11.54a13.76,13.76,0,0,1,2.84,4.4,4,4,0,0,0,1.48,1.85q2.46,1.92,4.95,3.79a6.23,6.23,0,0,0,4,1.35,9.32,9.32,0,0,1,4.23.6,7.56,7.56,0,0,0,2.35.36,23.92,23.92,0,0,1,3.81.25c2.5.63,5,.52,7.56.72A22.57,22.57,0,0,1,365.93,34c2.14,1.4,4.35,2.69,6.45,4.14A32.76,32.76,0,0,1,380,44.73c.88,1.14,1.88,2.18,2.74,3.33a17.63,17.63,0,0,0,6.59,5.4,7.78,7.78,0,0,1,2,1.32c1.87,1.74,3.66,3.56,5.49,5.33a24.24,24.24,0,0,0,2.12,1.94,11.9,11.9,0,0,1,4.46,7.67,50.83,50.83,0,0,1,.93,5.63c.09.94.28,1.88.44,2.94-.39.93-.88,1.93-1.24,3s-.47,1.84-.71,2.8c-.86.76-1.74,1.46-2.51,2.26a24.94,24.94,0,0,0-1.69,2.06c-.33.15-.47.23-.62.28-1,.39-2.33,0-3.15.93A20.66,20.66,0,0,0,393.19,92c-3,1.74-6,3.51-8.38,6.2-1.56.79-3.08,1.67-4.69,2.33a4,4,0,0,0-2.14,1.76,5,5,0,0,1-1.29,1.38,4.14,4.14,0,0,0-1.38,1.89,2.47,2.47,0,0,1-1.85,1.38,13.12,13.12,0,0,1-1.42.2,2.39,2.39,0,0,0-1.73.7c-1.1,1.39-2.92,1.85-4,3.33s-2.65,2.26-3.72,3.68c-.37.5-1,.79-1.41,1.27-1.39,1.72-3.37,2.93-4.29,5.07a3.55,3.55,0,0,1-1.12,1.53c-1.34.91-2.18,2.31-3.42,3.3a9.59,9.59,0,0,0-3.34,4c-.2.54-.83.94-1.32,1.33a26.54,26.54,0,0,1-2.32,1.66,8.71,8.71,0,0,0-3.41,3.85,6.12,6.12,0,0,1-.72.91,35.38,35.38,0,0,1-8.42,1.11,35,35,0,0,0-4.28,2A44.25,44.25,0,0,1,324,143.4c-1.55.75-1.1,1.69.13,2.45.27.17.55.32.82.48.69.4,1.38.82,2.08,1.19a43.72,43.72,0,0,1,6.49,4.91,6.17,6.17,0,0,1,2.55,4.45,5.67,5.67,0,0,0,.66,1.75c.33.72.7,1.43,1,2.08l-.52,2.54c.33.46.68,1,1.05,1.5A3.57,3.57,0,0,1,339,167c0,1.12.06,2.24,0,3.35a7.73,7.73,0,0,0,1.26,4.54,64.31,64.31,0,0,0,6.36,8.38c1.29,1.41,2.56,2.85,3.83,4.29a20.87,20.87,0,0,1,3,4.33c.66,1.27,1.31,2.57,2.06,3.78s1.65,2.36,2.29,3.25c.79,1.67-.1,3.18.57,4.55a14.67,14.67,0,0,1,.77,2.26c.55,1.8,1.7,3.51.77,5.53a1.65,1.65,0,0,0,.1.94,34.37,34.37,0,0,1,1.15,5.62,44.4,44.4,0,0,0,1.22,5.13c-.22,1.4-.38,2.83-.69,4.23a2.79,2.79,0,0,0,0,1.38,13.54,13.54,0,0,1,.27,5.23,7.27,7.27,0,0,0,.37,4.24,2.58,2.58,0,0,1-.08,1.85,20.23,20.23,0,0,0-.4,5.21,13.09,13.09,0,0,0,.47,2.82c.34,1.55.74,3.1,1.07,4.44-.19.83-.32,1.46-.46,2.1A21.46,21.46,0,0,0,364,257.1a7.77,7.77,0,0,1,1,4.15,8.21,8.21,0,0,0,.46,3.3,1.59,1.59,0,0,1,.1.93,4.65,4.65,0,0,0,.13,3.41,6.16,6.16,0,0,1-1.87,3.08c-1.29,1.23-1.78,3-3.22,4.1-.53.41-.48,1.14-.64,1.76a2.19,2.19,0,0,1-.62,1.24,4.62,4.62,0,0,0-2.19,3.47.81.81,0,0,1-.2.44,20.37,20.37,0,0,0-1.95,3.26c-.61.91-1.26,1.81-1.87,2.73a9.79,9.79,0,0,1-2.19,1.85c-.63,1.92-1.15,3.95-2.81,5.38a15.13,15.13,0,0,1-2.19,4.17,20.63,20.63,0,0,1-2.55,2.78,27.51,27.51,0,0,1-.47,2.79c-.63,2.36-.65,2.35-2.81,4.47a39.81,39.81,0,0,1-.88,5.49c-.45,1.45-.05,1.94,1.26,2.61s2.8.59,4.18.94a6.29,6.29,0,0,0,2.33,0c1.9-.2,3.82-.15,5.73-.17,1.75,0,3.5,0,5.25,0a7.93,7.93,0,0,0,1.87-.3,24,24,0,0,0,5.23-2.34c1.7-.1,2.89-1.16,4.18-2.12,1.79-1.32,3.74-2.44,5.83-3.79l4.08,0c1.27,0,2.55,0,3.83-.06a7.77,7.77,0,0,1,4.93,1.57,13,13,0,0,1,2.54,2.18c1.53,1.84,2.91,3.8,4.35,5.71.94,2.84,2.73,5.46,2.06,8.69a2.42,2.42,0,0,0,.25,1.38,6.58,6.58,0,0,1,.45,3.28,3.71,3.71,0,0,0,.21,1.88,4,4,0,0,1,0,3.24,3.87,3.87,0,0,0,.58,3.64,5.15,5.15,0,0,1,1.31,4,2.59,2.59,0,0,0,.42,1.33c.28.58.65,1.1,1,1.66s.8,1.39,1.13,2.12a10.3,10.3,0,0,1,1,4.15,47.48,47.48,0,0,0,.49,4.75c-.58,2,.25,3.76.91,5.55.44,1.19.8,2.42,1.31,3.58s1.81,1.76,2.71,2.67c2.34,2.4,4.64,4.84,7.21,7a8.37,8.37,0,0,1,2.92,4.28,5.48,5.48,0,0,0,1.24,2c.71.86,1.57,1.6,2.32,2.42a3,3,0,0,1,.59,3.91,2.85,2.85,0,0,0-.2,1.85c.41,1.85,1,3.68,1.45,5.49-.31.78-.59,1.52-.88,2.27,0,1.57.76,3.06.32,4.72-.22.86.24,1.87.31,2.82a2.5,2.5,0,0,1-.19,1.37,3,3,0,0,0,0,3.17,8.08,8.08,0,0,1,.49,1.42c-.29.53-.64,1.07-.89,1.64a2.43,2.43,0,0,0-.3,1.37c.81,2.68-.06,5.41.26,8.1a4.16,4.16,0,0,1-.42,2.33c-1.62,3-1.75,6.45-2.79,9.62.26,1-.37,1.86-.46,2.8a6.65,6.65,0,0,1-2.07,4.2,8.89,8.89,0,0,0-.91,1.38c0,.62,0,1.41,0,2.2a5.31,5.31,0,0,1-.93,2.7c-.58.91-1.62,1.41-2,2.6a10.73,10.73,0,0,1-1.82,2.76,5.42,5.42,0,0,1-1,1c-1.12.88-2.27,1.73-3.33,2.53l-1.45,3.73c-.5.34-1,.71-1.54,1.05a5.08,5.08,0,0,0-2.41,3.42,11.6,11.6,0,0,1-.77,2.13c-2.65,1.41-3.09,1.8-4.68,4.1-.29,1.4-1.57,1.94-2.43,2.85s-1.34,2.19-2.74,2.58a2,2,0,0,0-1.09.89c-.89,1.51-2.62,1.77-3.9,2.69a4.82,4.82,0,0,1-2.26.68,89.13,89.13,0,0,0-9.89,1.81,7.45,7.45,0,0,1-3.78-.1,3.46,3.46,0,0,0-1.86-.19,21.44,21.44,0,0,1-8.09.53,7.08,7.08,0,0,0-2.83.31c-2.75.95-5.65,1.06-8.47,1.62a8.31,8.31,0,0,1-2.39.06,57.73,57.73,0,0,0-6.8.19l-1.35,1.27a5.14,5.14,0,0,1-2.52,1.3c-.62.15-1.27.17-1.9.27a11.34,11.34,0,0,0-6,2.68,10.56,10.56,0,0,1-1.33.88l-4.63.35a6.9,6.9,0,0,1-4.33,1.85,40,40,0,0,1-7.34,2.13,17.23,17.23,0,0,1-2.83.47c-2.43,0-4.69,1-7.07,1.25a2.27,2.27,0,0,0-1.27.59,4.73,4.73,0,0,1-3.5,1.27,51.47,51.47,0,0,1-5.27,0c-2.55-.17-5.11-.16-7.83-.24-.55-.41-1.16-.92-1.81-1.36-1-.71-2.34-1.07-3-2.27-.58-1-.22-2.2-.48-3.29a2.29,2.29,0,0,0-1.45-1.72,2.39,2.39,0,0,1-1.5-2.25c0-.64-.07-1.28-.09-1.73-.58-1.6-2.09-2.19-2.92-3.6,0-.46-.09-1.09-.15-1.72s.1-1.4-.21-1.86c-.95-1.42-.51-3.14-1.18-4.61a4.58,4.58,0,0,1,.11-3.73,10.78,10.78,0,0,0,.44-1.36,2.3,2.3,0,0,0-.26-1.85c-.68-1.08-1.41-2.13-2.15-3.25-.2-1.35-.42-2.76-.63-4.17a3.21,3.21,0,0,0-1.48-2.38,11.57,11.57,0,0,1-4.9-6.28c-.69-.12-1.31-.25-1.93-.32a3.21,3.21,0,0,1-2.09-1c-.77-.79-1.69-1.45-2.48-2.23a5.85,5.85,0,0,0-3.22-1.92,5.2,5.2,0,0,1-1.66-.9c-.82-.5-1.63-1-2.42-1.55s-1.29-.93-2.26-1.64l-.85-1.78c-.11-.12-.19-.28-.32-.34-1-.49-2-1-3.13-1.49a26.87,26.87,0,0,0-1.74-3.25,28.23,28.23,0,0,0-2.58-2.79c-.21-.77-.43-1.53-.67-2.4a10,10,0,0,1-1.41-1.16,1.89,1.89,0,0,1-.55-1.27,14.22,14.22,0,0,0,.35-4.27c-.21-1.26-.19-2.55-.28-3.92a11.49,11.49,0,0,1-1.17-1.37,3.6,3.6,0,0,1-.44-1.33,1.5,1.5,0,0,1,.07-.94c.72-1.4-.16-2.46-.72-3.66.2-1.2.43-2.44.62-3.7a1.65,1.65,0,0,0-1.14-1.87,15.42,15.42,0,0,1-5-2.72,8.21,8.21,0,0,1-2.46-2.84,20.81,20.81,0,0,0-2.57-4.55.78.78,0,0,1-.18-.44,4.12,4.12,0,0,0-2.12-2.95,24.66,24.66,0,0,0-.72-5.33,21.58,21.58,0,0,1-.27-5.22c0-.78.47-1.55.48-2.33s-.45-1.53-.4-2.28a26.13,26.13,0,0,1,.66-3.44c-.33-.74-.71-1.6-1-2.37-.09-2.89,2.39-4.53,3.19-7.4,0-1.5.06-3.42.08-5.33a18.9,18.9,0,0,1,.93-5.66c-1.53-2.34-.86-5-1.26-7.65-2-2-3.1-4.66-4.24-7.25a27.66,27.66,0,0,0-3.84-6.57,15.24,15.24,0,0,1-1.05-1.65c-1.28.48-2.45.93-3.62,1.34s-2.14.68-3.19,1c-1.21.42-2.39.89-3.59,1.32a10.2,10.2,0,0,1-2.27.74c-2.29.25-4.25,1.34-6.28,2.25A58.63,58.63,0,0,1,186,343.5a13.63,13.63,0,0,1-3.73.78,11.78,11.78,0,0,0-2.38.22,36.47,36.47,0,0,0-3.65,1.11,16.15,16.15,0,0,0-1.67.81c-.68.95-1.27,1.9-2,2.75-1.08,1.32-2.75,2.2-3,4.12a34.25,34.25,0,0,1-5.7,5.93c-3.69,1.36-7.7,1.37-11.68,1.52-.79,0-1.59,0-2.39,0-.41,0-.87.66-.72,1l1.39,3c-.28,1.73.52,3.07,1.52,4.38a7.26,7.26,0,0,1,1.59,4.43c0,1.59.18,3.18.33,4.77a14.43,14.43,0,0,0,.4,2.35c.27,1.09.63,2.15,1,3.43-.16.74-.39,1.66-.55,2.59a13.15,13.15,0,0,0-.3,2.85A8.09,8.09,0,0,1,152.8,395a2.81,2.81,0,0,0-.5,1.27,2.79,2.79,0,0,1-1.14,2,6.26,6.26,0,0,0-1.16.84c-1.85,2.25-4.55,3.47-6.58,5.48-1.15.3-1.7,1.44-2.71,1.92s-2.08.82-3.09,1.29a7.94,7.94,0,0,0-2,1.2,8.3,8.3,0,0,1-2.89,1.6,33.66,33.66,0,0,0-4.73,2.27c-1.8,1-3.34,2.42-5.38,3a3.7,3.7,0,0,0-1.58,1.05,9,9,0,0,1-3.6,2.29,4,4,0,0,0-1.07.89c-.35.3-.65.8-1,.9a30.15,30.15,0,0,0-4.89,1.89c-1.46.64-2.93,1.26-4.44,1.79a20.39,20.39,0,0,1-6.56,1.16c-5,.05-9.92-.25-14.87.19A3.8,3.8,0,0,1,83.1,426c-2.43-.8-5-1-7.47-1.63A67.51,67.51,0,0,0,64.43,422a12.6,12.6,0,0,1-5-1.61c-1.54-.84-3.11-1.62-4.93-2.56a1.39,1.39,0,0,1-.43-.48c-.5-1.17-1.91-1.75-2-3.19a10.57,10.57,0,0,1,.43-3.31,2.08,2.08,0,0,0,.13-.94c-.77-3.31,1.12-5.84,2.57-8.45.62-1.09,1.44-2.09,2-3.26a10.37,10.37,0,0,1,3.28-4.06,8.93,8.93,0,0,0,1.25-1.41,3.65,3.65,0,0,0,.87-2.18c.14-1.9-.23-3.85.6-5.68a1.19,1.19,0,0,0-.09-.92,6.88,6.88,0,0,1-.55-3.74c0-.32,0-.65,0-1,.24-1.77-1-3.42-.47-5.2a20.58,20.58,0,0,0,.37-4.76,1.91,1.91,0,0,1,0-.48c.28-1.34-.72-2.47-.66-3.73s.48-2.49.63-3.75a2.44,2.44,0,0,0-.31-1.38,2.61,2.61,0,0,1,.27-2.72c.55-1,1.27-1.84,1.87-2.77.87-1.34,1.65-2.74,2.57-4a5.74,5.74,0,0,1,3.88-2.6c1.88-.26,3.68-1,5.67-.65a3.5,3.5,0,0,0,2.73-.7,11.13,11.13,0,0,1,7.15-2.19c.47,0,1-.09,1.38-.13a2.27,2.27,0,0,0,.74-2.62,23.21,23.21,0,0,1-1-3.16,8,8,0,0,0-2.66-5c-1.48-1.27-2.33-3-3.51-4.54a2.2,2.2,0,0,1-.45-1.33c0-1.5-1.64-1.94-1.94-3.19-.25-1,.18-2.26-.72-3.19a2.6,2.6,0,0,1-.38-.81c0-1.48,0-2.91,0-4.34a2.76,2.76,0,0,1,.22-1.4c1.35-2,.46-3.65-.59-5.33a2.29,2.29,0,0,1-.21-.47,10.31,10.31,0,0,1,1-5.09A9.27,9.27,0,0,0,79,300a13.62,13.62,0,0,1,1-6.1,5.78,5.78,0,0,0,.22-4.21,4.66,4.66,0,0,1,.07-3.27,6.14,6.14,0,0,0,.36-.89c.4-1.7.68-3.44,1.19-5.12s1.81-3,2.08-4.81a2.84,2.84,0,0,1,.58-1.3c1-1.28,1.06-3,2-4.31a25.13,25.13,0,0,0,2.88-6,46.16,46.16,0,0,1,3-6.48c1.56-2.61,2.73-5.41,4.22-8.05a29.71,29.71,0,0,1,4.78-6.57,7,7,0,0,1,4.57-2.38,3.73,3.73,0,0,0,2.54-1.15,2.27,2.27,0,0,1,1.24-.63,4.91,4.91,0,0,0,2.59-1.09,37,37,0,0,1,7.1-4.82,23.18,23.18,0,0,0,7.55-6.52,14.43,14.43,0,0,1,4.51-4.22,9.43,9.43,0,0,0,1.79-1.57,14,14,0,0,1,1.45-1.24c.79-.52,1.64-1,2.47-1.43.93-1.7,2.74-2.62,3.76-4.3a23.09,23.09,0,0,0,2.14-4.24c.49-1.35,1.23-2.6,1-4.11C144.72,203,145.31,200.86,146.07,198.11Zm211.12-95.75a2.43,2.43,0,0,0,.94-.06c2.11-1.06,3.74-3,6.26-3.34.27,0,.51-.34.75-.55a14.5,14.5,0,0,0,2.16-1.88,8.53,8.53,0,0,1,3.05-2.25c.72-.35,1.4-.76,2.12-1.17a9.6,9.6,0,0,0,.94-1,7.49,7.49,0,0,1,4-3.27,44.88,44.88,0,0,1,7.77-4.65,2.48,2.48,0,0,0,.81-.51c1.78-2,4.15-3.51,5.56-5.7.26-1.26.44-2.36.72-3.43a2.63,2.63,0,0,0,.14-1.85,17.15,17.15,0,0,1-1.94-2.06,15.51,15.51,0,0,1-1.14-2.47c-1.53-.83-3-1.5-3.77-3.05-.26-.49-1-.78-1.51-1.1a15.44,15.44,0,0,0-3.33-1.81c-1.56-.45-2.18-1.83-3.23-2.74-1.79-1.56-3.17-3.55-5.1-5a2.86,2.86,0,0,1-.6-.73c-1.19-1.69-2.69-3.12-3.6-4.45-1.2-.69-2.23-1-2.8-1.66a10.49,10.49,0,0,0-3.81-2.76,16,16,0,0,1-3.26-2,3.94,3.94,0,0,0-1.75-.68,5.69,5.69,0,0,1-2.27-.68A3.82,3.82,0,0,0,352,41a14.8,14.8,0,0,1-5.22-.43,10.65,10.65,0,0,1-5.12-.64,3.92,3.92,0,0,0-1.41-.13,23.43,23.43,0,0,1-8.94-1.35c-.18-.07-.47.18-.76.3.43.28.79.69,1.23.77,2.33.45,4.47,1.5,6.91,1.7s4.74.31,7.11.6a15.59,15.59,0,0,1,7.92,3,45,45,0,0,1,5.47,4.65c2,2.09,4,4.14,5.86,6.31a11,11,0,0,0,5.6,3.44c.92.26,1.8.66,2.7.95a14.11,14.11,0,0,1,8.3,6.8,9.27,9.27,0,0,1,1.62,5.38c-.06.8,0,1.6-.1,2.4a5.07,5.07,0,0,1-.94,2.65,49.31,49.31,0,0,1-6,7.38,32.84,32.84,0,0,0-2.72,3.33c-.5.62-1,1.26-1.53,1.83a53,53,0,0,1-8,6.81c-1.45,1-2.94,1.93-4.37,2.94a19.22,19.22,0,0,0-2.19,1.84c-.18.18-.14.58-.21.88-.46,0-1-.07-1.37.16-3,2-6.34,3.65-9.11,6.08a57.23,57.23,0,0,0-6.73,4.51,10.13,10.13,0,0,1-2.05,1.21,19.27,19.27,0,0,0-3.73,2.11,6,6,0,0,1-1.66.94c-2.82.7-5.09,2.61-7.81,3.52a7.77,7.77,0,0,0-1.68.9c-.93.61-1.85,1.25-2.75,1.91a21.5,21.5,0,0,0-3,2.35c-.81.85-1.93,1.11-2.73,1.88s-1.79,1.81-2.68,2.72a9.61,9.61,0,0,0-1.95,2.68c-1,2-2.06,3.95-3,5.76,0,1.1-.13,2-.11,3,0,.14.58.45.72.38,1.37-.74,3-1.05,4-2.45,1.44-2.14,3.53-3.67,5.26-5.54a11.34,11.34,0,0,1,5.67-3.34,33,33,0,0,1,5-1.26,16.43,16.43,0,0,0,3.26-.68,8.32,8.32,0,0,0,2.55-1.26,19.3,19.3,0,0,0,3.51-3.23,17.87,17.87,0,0,1,3.12-2.91,53.88,53.88,0,0,0,8.14-8c1.3-1.6,2.44-3.33,3.63-5a14.92,14.92,0,0,1,3.9-4.14A3,3,0,0,0,357.19,102.36ZM106,347.22c-.13,4.16-.13,4.16.67,7.54.18.77.43,1.53.59,2.3a12.57,12.57,0,0,1,.34,2.35,14.85,14.85,0,0,1-.76,4.69,10.15,10.15,0,0,1-3.8,5.34,17.31,17.31,0,0,1-10.69,3.61c-1.92,0-3.84,0-5.76,0a5.29,5.29,0,0,0-3.48,1.4,7.84,7.84,0,0,0-2.33,3c-.37.87-.73,1.75-1,2.37-.07,2.84.1,5.39-.08,7.94s-1,5-.9,7.38c-.45,1.07-.86,1.93-1.2,2.82s-1.15,1.53-.86,2.59a3.66,3.66,0,0,0,2.32.35c3.52,0,7,0,10.55-.08a42.4,42.4,0,0,0,4.77-.39,55.67,55.67,0,0,1,13.83,0,12.57,12.57,0,0,0,3.5-2.43c1.2-1.06,2.4-2.11,3.56-3.21a86.8,86.8,0,0,0,8.21-8.73c2.69-3.37,5.33-6.79,8.3-9.93a11,11,0,0,0,2.45-4.07,3.74,3.74,0,0,0,0-1.88,4.64,4.64,0,0,0-.79-1.72c-1.15-1.53-2.38-3-3.55-4.53a7.67,7.67,0,0,1-1-1.59c-.57-1.32-1.06-2.68-1.55-4a3.75,3.75,0,0,1-.28-1.39c.2-5.71,1.36-11.08,5.5-15.38.55-.57,1.07-1.19,1.46-1.61a29.29,29.29,0,0,1,9.54-3.68c2.19-.46,4.35-1.09,6.56-1.41a23.63,23.63,0,0,0,8-3,47.13,47.13,0,0,0,6.84-4.4c4.67-3.75,10.07-6.09,15.63-8.12,2.09-.76,4.25-1.36,6.3-2.22a58.81,58.81,0,0,1,10.51-3.23c2-.44,4.1-.53,6.16-.77,3.78.55,7.62.32,11.4,1.25s11.05,3.08,14.91,5a25.55,25.55,0,0,1,10.78,9.88,21.3,21.3,0,0,1,2.66,9.1,4.36,4.36,0,0,1-.73,2.74,3,3,0,0,1-2,1.25,3.71,3.71,0,0,0-1.3.57c-1.77,1.34-2.83,2.12-1.6,4.77a19.22,19.22,0,0,0,2.94,4.9,17.17,17.17,0,0,1,2.47,3.52,54.81,54.81,0,0,1,4.31,9.56,24.45,24.45,0,0,1,1.35,7c0,1.91-.11,3.82-.2,5.73a2.85,2.85,0,0,1-.24.91c-.9,2.05-1.26,4.27-2.3,6.28a29.33,29.33,0,0,0-1.6,4.5c-1.68,5.26.34,13.12,4.36,16.32a15.52,15.52,0,0,1,4.17,5.77,12.26,12.26,0,0,1,1.46,5.48c0,2.06.25,4.13.41,6.28.49.93,1,1.94,1.55,2.89a6.78,6.78,0,0,0,1.53,1.83c3.18,2.4,6.19,5.07,9.84,6.79a45,45,0,0,1,5.73,3.47A30.09,30.09,0,0,1,277,441.5a21.46,21.46,0,0,1,4.56,5.51,66.69,66.69,0,0,1,4.6,8.93c1.46,3.88,2.87,7.79,4.17,11.73s3.44,7.88,4.79,12a4.1,4.1,0,0,0,3.29,2.73,55.58,55.58,0,0,0,6.75-4.27,41.14,41.14,0,0,1,11.15-5.42c3.35-1.05,6.63-2.29,10-3.37a28.93,28.93,0,0,1,4.64-1.17c3.78-.57,7.45-1.7,11.23-2.28a51.14,51.14,0,0,0,5.58-1.27,29.59,29.59,0,0,1,5.71-.52,2.7,2.7,0,0,0,.95-.11c1.82-.84,3.77-.54,5.67-.62s3.84-.12,5.75-.07a19.66,19.66,0,0,0,6.54-1.34,9.74,9.74,0,0,0,4.08-2.42c1.33-1.38,2.74-2.69,3.93-4.18a93.87,93.87,0,0,1,8.42-9.18,44.27,44.27,0,0,0,8.37-11,73.11,73.11,0,0,0,5.61-13.2,22.47,22.47,0,0,0,.52-2.33,16.47,16.47,0,0,1,.4-2.35c.83-2.28.83-4.71,1.28-7.06a16.66,16.66,0,0,0-.11-4.28,33.09,33.09,0,0,1-.46-3.8c.1-2.63-.81-5-1.52-7.46a8.73,8.73,0,0,0-5.91-6.38,17.91,17.91,0,0,1-3.84-1.92,7.14,7.14,0,0,1-3.35-3.91,19.05,19.05,0,0,0-1.06-2.12,12.77,12.77,0,0,1-.7-1.77c-1.62-5.86-2.08-11.91-2.76-17.92-.36-3.15-.37-6.32-1-9.47a74.39,74.39,0,0,0-2.92-10.1,9.06,9.06,0,0,0-4-4.63,6.14,6.14,0,0,0-3.19-.87,17.71,17.71,0,0,0-7,1.56c-1.78.72-3.5,1.57-5.27,2.3a19.92,19.92,0,0,1-4.48,1.62c-4.09.62-8,2.35-12.17,2.34a3,3,0,0,0-.94.19,14,14,0,0,1-4.26.53,32.41,32.41,0,0,0-5.73.54,31.13,31.13,0,0,1-6.68.48,7.55,7.55,0,0,1-1.91-.17,35.14,35.14,0,0,1-6.72-2.46,6.23,6.23,0,0,1-2.69-2.64,68.47,68.47,0,0,1-3.83-9.29,6.14,6.14,0,0,1-.3-1.4,37.23,37.23,0,0,1,.24-9.55,69.9,69.9,0,0,1,6-17.62,45.79,45.79,0,0,1,7.27-11.23,31.35,31.35,0,0,0,2-2.69q6.39-9,12.49-18.16a16.47,16.47,0,0,0,3.08-8.05,15.18,15.18,0,0,0-1.95-6.22,30.51,30.51,0,0,1-2.49-5.69A28.63,28.63,0,0,1,337,236.37c.29-2.53.17-5.11.88-7.6a13.33,13.33,0,0,0,.21-2.38c.08-1,.15-1.91.31-2.85a27.46,27.46,0,0,0-.21-11.38c-.84-3.22-1.22-6.57-2.83-9.56a7.62,7.62,0,0,0-1.05-1.58c-2.3-2.43-4.55-4.92-7-7.2a21.93,21.93,0,0,1-3.53-3.88c-1-1.47-2.15-2.74-3-4.32a42.76,42.76,0,0,1-3.92-11.24c-.63-3-.9-6-2-8.86a8.93,8.93,0,0,0-.54-1,11.43,11.43,0,0,0-2.73-2.37,1.71,1.71,0,0,0-.46,0,1.78,1.78,0,0,0-.47.07,42.14,42.14,0,0,1-15,2.89,15.58,15.58,0,0,1-7.9-1.62c-.7-.37-1.44-.66-2.36-1.08-.46-.83-1.05-1.76-1.51-2.77a5,5,0,0,1,.12-4.61c.45-.85.87-1.71,1.34-2.55a11.81,11.81,0,0,1,8.24-6c1.09-.23,2.16-.57,3.23-.88a9.23,9.23,0,0,0,3.48-1.91,32.65,32.65,0,0,0,1.93-5.22,25.29,25.29,0,0,1,2-5.36,21.28,21.28,0,0,1,5-6.95,54.89,54.89,0,0,1,15.84-10.61c3.24-1.37,6.23-3.22,9.34-4.84,4.69-2.45,8.9-5.64,13.23-8.62,4.08-2.8,8-5.84,12.12-8.58A45,45,0,0,0,368.51,86c2.24-2.49,4.5-5,6.73-7.48a14.19,14.19,0,0,0,3-5.56c-.42-1.41-.88-2.92-1.33-4.39a13.55,13.55,0,0,0-6-3.94c-.91-.26-1.78-.67-2.68-1a15.23,15.23,0,0,1-6-3.71c-1.11-1.14-2.38-2.07-3.41-3.33-1.62-2-3.58-3.64-5.4-5.44a23.35,23.35,0,0,0-3.77-2.93,8.18,8.18,0,0,0-4.93-1.57c-3.37.15-6.65-.75-10-.95a11.41,11.41,0,0,1-1.85-.47c-3.91-1-7.34-3.06-11-4.64A11.32,11.32,0,0,1,319,38.81a13.36,13.36,0,0,1-3.31-4c-1-2-2-4-3-5.94a25.47,25.47,0,0,0-2.47-1.58,15.72,15.72,0,0,0-2.71-.92,33.38,33.38,0,0,1-8.34-3.5c-.41-.24-.78-.56-1.2-.79a4,4,0,0,0-2.78-.4,4.86,4.86,0,0,0-2.2.87c-1.26,1-2.55,1.94-3.73,3-2.13,1.92-4.2,3.92-6.27,5.9s-3.8,3.9-5.86,5.65c-2.23,1.89-3.76,4.35-5.73,6.43-1.53,1.62-2.77,3.51-4.15,5.26a9.39,9.39,0,0,0-1.85,5.34c0,.39.39,1.08.72,1.11a10.19,10.19,0,0,0,1.9.14c2.46-.22,4.73.63,7.05,1.2a4.47,4.47,0,0,1,1.68.89c3.33,2.68,5.77,5.91,6.33,10a8.59,8.59,0,0,1-4.15,6,12.94,12.94,0,0,1-4.33,2A10.72,10.72,0,0,0,268,79.9a36.9,36.9,0,0,0-3.36,4.66c-2.09,4-5.05,7.35-7.21,11.29-2.61,4.75-6,9-8.76,13.72-.23.41-.64.71-.9,1.11-2.33,3.44-5.23,6.43-7.74,9.72a16,16,0,0,1-2.61,2.78c-.85.71-1.47,1.68-2.27,2.45s-2,1.6-2.88,2.51a22.85,22.85,0,0,1-3.66,3.06c-1.59,1.07-3.25,2-4.87,3-3.86,2.44-4.56,1.9-4.87,7.39,0,.16,0,.32,0,.48a7.92,7.92,0,0,1-3,5.79c-1.53,1.17-2.84,2.55-4.38,3.69-1.28.95-2.54,1.94-3.82,2.89-2.95,2.19-5.84,4.43-8.7,6.74a62.53,62.53,0,0,1-9,6.29,27.77,27.77,0,0,1-13.63,3.93c-1.11,0-2.23.18-3,.25-2.47,1.4-2.69,3.36-2.22,5.56a8.08,8.08,0,0,0,.26.93c.8,2.28.83,4.71,1.22,7.06a7.67,7.67,0,0,1-.05,2.39,46.89,46.89,0,0,1-.89,4.7c-.65,2.47-1.24,5-3.27,6.8-.58,1.5-1.87,2.56-2.43,4.11a18.84,18.84,0,0,0-.62,9.9c1,1.7.69,3.74,1.41,5.54a6.73,6.73,0,0,1,.36,2.33c.11,3.56-1,6.47-4.09,8.63-2.38,1.65-5,2.74-7.53,4.14a20.23,20.23,0,0,0-4.26,3c-4.48,4.31-9.06,8.52-13.69,12.67a18.64,18.64,0,0,0-2.06,2c-2,2.47-4.5,4.52-6.72,6.81s-5,4-7.33,6.16c-1.68.66-2.72,2.19-4.24,3.08s-2.93,1.95-4.37,2.95c-.52.37-1,.81-1.49,1.2-2.46,1.94-3.48,5.28-3.54,8,0,1,.21,1.9.22,2.86a21.54,21.54,0,0,1-1.06,7.52,18.35,18.35,0,0,1-3.63,6.13,71,71,0,0,0-5.9,8.08,15,15,0,0,0-.47,5.24c.19,2-.06,4.15.9,6.1a4.85,4.85,0,0,1,.27,1.88,5.53,5.53,0,0,0,1,2.68,10.78,10.78,0,0,0,1.39,1.95c2,2.08,3.44,4.6,5.22,6.85a18.09,18.09,0,0,1,3,5.94,8.57,8.57,0,0,1,.36,4.24,13.15,13.15,0,0,1-1.12,4.11C107.22,344.55,106.66,345.88,106,347.22Zm-16.16-31.1c.29,1.4,1.26,2.61,1.21,4.11a4.65,4.65,0,0,0,1.48,3.42c.66.69,1.35,1.36,2,2.08a6.37,6.37,0,0,1,1.65,2.88,4.06,4.06,0,0,0,1.23,2c.67.68,1.35,1.36,2,2.09a2.77,2.77,0,0,1,.72,2.22c-.4,2.53.24,5.07-.1,7.61a8.83,8.83,0,0,0,.27,4.72c.12-.05.32-.07.35-.16,1-2.52,2-5,2.89-7.57a3.29,3.29,0,0,0,.14-1.88c-.79-2.76-1.63-5.51-3.7-7.68-1-1-1.91-2.15-2.81-3.27a23.69,23.69,0,0,1-4.87-10.28c-.31-1.57-.47-3.16-.79-4.72a12.49,12.49,0,0,1,.67-7,28,28,0,0,1,5.68-9.89c.87-.93,1.62-2,2.4-3a13.19,13.19,0,0,0,2.31-6.7c-.64-2.24-.07-4.46.19-6.66a15.78,15.78,0,0,1,7-12c.27-.17.52-.36.79-.54,4-2.68,7.76-5.61,11.49-8.61a133.57,133.57,0,0,0,11.25-10.42c2-2,4-4.14,6.14-6,1.68-1.48,3.25-3.07,4.89-4.59a46.6,46.6,0,0,1,12.57-8.64c.58-.26,1.12-.62,1.71-.87a5.64,5.64,0,0,0,3.43-4.3c.07-.31.09-.63.15-1.11A93,93,0,0,1,160,210.26a14.54,14.54,0,0,1,1.86-9.23,19.32,19.32,0,0,1,2.16-3.15,20.7,20.7,0,0,0,2.85-5.5c0-2.52,1.56-4.93.58-7.52a27.66,27.66,0,0,0-1-6.62,8.9,8.9,0,0,1,.38-5.19A6.72,6.72,0,0,1,170,169c.83-.47,1.69-.89,2.31-1.21,1.4-.07,2.52-.15,3.63-.19a23.12,23.12,0,0,0,11.33-3.38,80.38,80.38,0,0,0,6.77-4.51c4.34-3.27,8.57-6.67,12.84-10q2.07-1.63,4.12-3.3c2.09-1.69,3.47-3.74,3.26-6.58a2.46,2.46,0,0,1,0-.47,8.51,8.51,0,0,1,4.38-7c.69-.4,1.44-.7,2.14-1.08a40.86,40.86,0,0,0,6.76-4.52,88.91,88.91,0,0,0,12.92-13.46A161.7,161.7,0,0,0,252.2,95.81c3.54-6.08,7.78-11.71,11.59-17.61.43-.67,1-1.27,1.44-1.92a10.48,10.48,0,0,1,4.48-3.5,18.54,18.54,0,0,1,2.69-1,22.09,22.09,0,0,0,4.33-2,2.15,2.15,0,0,0,.74-.59,2.86,2.86,0,0,0,.8-2.19c-.44-2.28-1.89-4-3.33-5.63l-3.72-2c-1.17,0-2.12,0-3.08,0-1.12,0-2.24-.06-3.35-.21a4.56,4.56,0,0,1-4.16-4,6.7,6.7,0,0,1,.11-2.36,21.15,21.15,0,0,1,4-8.08,88,88,0,0,1,6.47-7.71c5-5.41,10.55-10.23,15.78-15.4a29.77,29.77,0,0,1,6.33-4.26,4.37,4.37,0,0,1,1.83-.49,7.61,7.61,0,0,1,4.61,1c.95.58,2,1.05,2.94,1.62a38.22,38.22,0,0,0,7,3,8,8,0,0,0,2.36.16.49.49,0,0,0,.35-.29c.06-.29.15-.68,0-.87a7.3,7.3,0,0,0-1-1c-.34-.33-.91-.64-1-1-.21-1.73-1.48-2.71-2.51-3.89a5.24,5.24,0,0,1-.78-1.73c-.15-.45-.15-.94-.28-1.4-.21-.71-1.24-1.4-1.87-1.15a10.82,10.82,0,0,1-4.66.86c-3.31-.17-6.21,1.3-9.19,2.38a4.79,4.79,0,0,0-1.9,1.41,6.29,6.29,0,0,1-3.17,2c-1.22.35-2.39.88-3.6,1.34-.56.53-1.1,1.13-1.72,1.62a6.35,6.35,0,0,1-2.72.83,3.23,3.23,0,0,0-1.89,1.39l-.82,1.13-4.52,2.15c-2.59-.14-5.16.84-8.11,1.35a8.36,8.36,0,0,1-5,3.06,2.33,2.33,0,0,0-1.7,1.57,44.24,44.24,0,0,1-2.59,5.59,6.31,6.31,0,0,0-.48,2.31c-.07.63.22,1.35,0,1.9a6.82,6.82,0,0,0,.27,4.56c-.58,1.93-1.13,3.75-1.68,5.56,0,2.74-1,5.36-1,8.06a9.43,9.43,0,0,1-1.35,4.94,5.47,5.47,0,0,0-.59,2.29,4.93,4.93,0,0,1-.81,2.2q-1.54,2.43-3,4.92a4.75,4.75,0,0,1-2,1.93A1.76,1.76,0,0,0,242,77.8c-.37,2.1-2.11,3.56-2.58,5.61a1.89,1.89,0,0,1-.87,1.08c-1.34.76-1.52,2.42-2.71,3.29-.35.26-.49.8-.72,1.22a19.92,19.92,0,0,0-1.39,2.51c-.48,1.19-1.87,1.2-2.5,2.11-1.7,2.43-4.71,3.23-6.64,5.38-.28.32-.88.34-1.3.56a3.25,3.25,0,0,0-1.18.76c-1.27,1.7-3.1,2.75-4.59,4.19-.33.33-.6.73-.82,1v2.1l-1.15,1.48a5.41,5.41,0,0,0-1.26,4,5.69,5.69,0,0,1-.45,2.81A61.9,61.9,0,0,0,211,123a9.27,9.27,0,0,1-1.73,2.85,21.63,21.63,0,0,1-1.9,2c-.45,1.3-.86,2.5-1.24,3.59-1.41,1.68-2.81,3.22-4.07,4.87a6.74,6.74,0,0,1-2.09,1.89,8.76,8.76,0,0,0-2.27,1.73c-1.26,1.45-2.38,3-4.53,3.14-.13,0-.27.19-.34.32a4,4,0,0,1-2.27,1.63c-1.64.63-3.25,1.3-4.88,2-1.38,1.39-3.32,1.86-4.9,2.93a10.83,10.83,0,0,0-2.21,1.8,9.25,9.25,0,0,1-5.69,3.27,13.82,13.82,0,0,0-1.46.41,4.72,4.72,0,0,1-2,1.88c-1.16.47-2.27,1.08-3.39,1.63a16.13,16.13,0,0,0-1.52,3,3.27,3.27,0,0,1-1.6,2.21,3,3,0,0,0-1.32,1.94c-.21.77-.38,1.54-.61,2.49-2.4,1.83-3.76,4.51-4.76,7.4a12.2,12.2,0,0,1,0,5.7,4.12,4.12,0,0,0,.14,2.79,2.44,2.44,0,0,1,.26,1.4c-.29,1.79.33,3.47.5,5.21-.72,1.87-.1,3.8-.23,5.7a10.39,10.39,0,0,0,0,3.34c.53,2,.6,3.73-.74,5.42a2.28,2.28,0,0,0-.34,1.36c0,1.62-.83,3-.8,4.7a3.14,3.14,0,0,1-1.66,2.76,5.53,5.53,0,0,0-2.56,3.81,3.58,3.58,0,0,1-1.11,2,3,3,0,0,0-.87,1.1,9.93,9.93,0,0,1-2.58,3.38,14.91,14.91,0,0,1-5.7,4.1l-1.63.67a7,7,0,0,1-3.74,4.32,2.15,2.15,0,0,0-1.4,1.21,4.25,4.25,0,0,1-2.32,2.28,3.06,3.06,0,0,0-1.75,2.15,1.9,1.9,0,0,1-1.19,1.39,6.38,6.38,0,0,1-1.31.58A16.9,16.9,0,0,0,120,245a18.36,18.36,0,0,1-3.19,2.11c-1.68.91-3.43,1.69-4.79,2.35-1.82,1.42-2.69,3.18-4,4.51-1.51,1.48-2.2,3.49-3.37,5.19a6.14,6.14,0,0,0-.92,2.17,4.89,4.89,0,0,1-.68,1.76,17.87,17.87,0,0,0-2.3,4.68,2.53,2.53,0,0,1-1.11,1.51,3.46,3.46,0,0,0-1.78,3.16,9.2,9.2,0,0,1-2.08,5.73,29.44,29.44,0,0,0-1.68,2.64,4.73,4.73,0,0,1,0,1.67c-.81,2.3-.72,4.7-.89,7.08a4.57,4.57,0,0,1-.23,1.88c-.81,1.35-.5,2.78-.54,4.19s-.14,2.87-.2,4.15l-1.43,2.05A101.28,101.28,0,0,1,89.86,316.12ZM349.23,213.61a9.84,9.84,0,0,1-1.41-2.19c-.42-1.51-.41-3.14-1.61-4.39a2.31,2.31,0,0,1-.32-1.37,22.77,22.77,0,0,0-1.69-6.93,5.87,5.87,0,0,0-2.17-3.07,3.66,3.66,0,0,1-1-1,21.56,21.56,0,0,0-1.38-2.5c-.57-.72-1.7-.92-2-2-1.26-1.18-1.89-3-3.69-3.62a1.19,1.19,0,0,1-.59-.72,4.72,4.72,0,0,0-2.1-2.51,3.35,3.35,0,0,1-.94-1c-.91-1.5-1.78-3-2.77-4.71a9.17,9.17,0,0,1-.19-2.18,13.48,13.48,0,0,0-1.07-6c-.72-2.11-1.8-4.09-1.65-6.41a2.41,2.41,0,0,0-.26-.91c-.39-1-.79-2.06-1.19-3.1-1.86-2.07-4.58-2.79-6.77-4.35a2.87,2.87,0,0,0-1.37-.39c-.79-.07-1.6-.06-2.4-.06l-6.71.07a5.44,5.44,0,0,1-3.45-1.48,2.78,2.78,0,0,1-.93-2.14c0-.53-.33-.85-1-1.27-1.83.88-4.05,1.12-6.17,1.86a8,8,0,0,0-5.43,6.13,2.2,2.2,0,0,0,.91,2.07,3.8,3.8,0,0,0,.84.45c5,1.39,6.77,1.39,11.76,0,.3-.08.6-.21.9-.31a45.35,45.35,0,0,1,9-2.1c.49.18,1.1.37,1.68.62a10.6,10.6,0,0,1,5.66,5.59,16.64,16.64,0,0,1,1.38,4.06c.3,1.73.56,3.47.94,5.18.54,2.49,1.18,5,1.78,7.44,1.45,1.74,1.85,4,3.12,5.89a24.8,24.8,0,0,0,4.17,4.62c2.05,1.79,3.84,3.84,5.74,5.78a22,22,0,0,1,3.9,6c2,4.15,3.2,11.36,3.12,15.36-.1,4.64-.62,9.24-1.14,13.85-.86,2.63-.68,5.37-.73,8.08a25.1,25.1,0,0,0,1.83,9.34,39.84,39.84,0,0,0,3,6.52,12.94,12.94,0,0,1,1.64,6.44,6.06,6.06,0,0,1-.48,2.32,40.93,40.93,0,0,1-4.63,8.87c-3.09,4.27-5.71,8.86-8.86,13.09-2.28,3.07-4.77,6-6.89,9.19a58.49,58.49,0,0,0-6.88,13.62c-.21.61-.4,1.22-.63,1.81-.57,1.49-1.26,2.95-1.7,4.48s-.74,3.41-1.09,5.13a15.31,15.31,0,0,0-.27,6.17c.9,4.22,1.91,8.42,4.47,11.93a10.81,10.81,0,0,0,6,1.72,70.25,70.25,0,0,0,11.95-.71,20.8,20.8,0,0,1,3.34-.27,37.54,37.54,0,0,0,9-1.4A52.74,52.74,0,0,0,362,334.49a41.93,41.93,0,0,1,6.74-2.4,39.26,39.26,0,0,1,5.66-.9,3.85,3.85,0,0,1,.94.12,15.12,15.12,0,0,1,7.25,3.49c.62.49,1.1,1.18,2,1.33l1-4.55a42,42,0,0,1-1.87-4.88,7.15,7.15,0,0,0-2.67-3.85,3.69,3.69,0,0,0-1-.39c-3.2,1.17-6.58,2.18-9.21,4.69a1.05,1.05,0,0,1-.39.27c-2.11.67-3.9,2.21-6.24,2.3a4.53,4.53,0,0,0-1.83.52,5.63,5.63,0,0,1-2.78.59c-3.35-.07-6.71.07-10.06.09-2.37,0-4.79-.31-7.14.44a3,3,0,0,1-2.33-.31c-2.27-1.28-4.93-1.2-7.29-2.14a9.94,9.94,0,0,1-4.35-1.36c-.73-1.05-1.3-2-2-2.85-.9-1.07-.5-2.48-1.12-3.6-.08-.14-.16-.28-.25-.41a2.7,2.7,0,0,1-.35-2.73c.43-1,.62-2.14.94-3.2a25.74,25.74,0,0,1,2.38-6.25,14.69,14.69,0,0,0,1.6-4,12,12,0,0,1,2.37-4.67,8.64,8.64,0,0,0,2.06-4.26,5,5,0,0,1,.91-2.19c2.09-2.82,3.47-6.11,5.92-8.71a10.8,10.8,0,0,0,1.73-2.85,57.49,57.49,0,0,1,4.64-7.82,66.71,66.71,0,0,0,4.61-7.75c-.2-1.34-.48-2.58-.54-3.83a6.68,6.68,0,0,0-.93-3.65,2.84,2.84,0,0,1-.33-1.38c0-.63.08-1.28,0-1.91-.1-1.75-.08-3.5-1.23-5a3.13,3.13,0,0,1-.09-2.79,5.4,5.4,0,0,0-.09-4.19,3.65,3.65,0,0,1-.07-1.87c.14-1.27.35-2.53.52-3.72-1.45-3.92-.8-7.6.89-11.17a6.1,6.1,0,0,1-.16-5.13,4.63,4.63,0,0,0-.43-4.56,12.86,12.86,0,0,1-.63-1.21C349,215.14,349.12,214.51,349.23,213.61Zm61.18,196.13a4.58,4.58,0,0,0-.5,1.28,20.89,20.89,0,0,0,.14,2.36c-1.07,1.67-.93,3.68-1.55,5.5s-.93,3.71-1.38,5.56a5.65,5.65,0,0,1-.4,1.38c-1.27,2.39-1.92,5.06-3.33,7.4-.9,1.49-1.54,3.15-2.36,4.69-1.13,2.1-1.94,4.4-3.81,6a9.37,9.37,0,0,1-3.49,3.84,3.54,3.54,0,0,0-1,1,33.36,33.36,0,0,1-3.16,3.56,76.28,76.28,0,0,0-6,6.85,21.35,21.35,0,0,1-14.39,8.55,24.91,24.91,0,0,1-3.35.21c-3.19.08-6.39.13-9.58.21a7.69,7.69,0,0,0-2.37.18,20.53,20.53,0,0,1-4.24.71,33.66,33.66,0,0,0-4.67,1c-2.92.85-6,1-8.93,1.67-6.21,1.48-12.19,3.67-18.33,5.37a10.55,10.55,0,0,0-2.65,1.08c-3.4,2.06-7.2,3.46-10.18,6.22a3.06,3.06,0,0,1-.78.55,10.56,10.56,0,0,1-3.58,1.26c-1.59.09-3.2.07-4.79,0a3.86,3.86,0,0,1-2.19-.89,8.41,8.41,0,0,1-2.54-2.83c-.43-.85-.85-1.71-1.24-2.58a189.27,189.27,0,0,1-7.42-18.64c-.71-2.11-1.57-4.17-2.26-6.29a23.87,23.87,0,0,0-2.82-5.48,27.81,27.81,0,0,0-6.54-7,47.62,47.62,0,0,0-5.79-3.3,40.75,40.75,0,0,1-4.58-2.56,96.59,96.59,0,0,1-7.68-6.47,7.45,7.45,0,0,1-1.38-1.93c-1.42-2.57-1.63-5.47-2.18-8.27.65-2-.28-3.76-.63-5.61a4.26,4.26,0,0,0-.68-1.25.69.69,0,0,0-1.14-.14,2.17,2.17,0,0,0-.77,1.68,42.48,42.48,0,0,0,.56,5.69,36.48,36.48,0,0,1,.53,6.06,36.31,36.31,0,0,1,2,3.37c1.46,3.19,4.17,5.17,6.79,7.24a1.77,1.77,0,0,0,.89.34,5.52,5.52,0,0,1,3.28,1.81,6.81,6.81,0,0,0,2.17,1.86c2.33.88,4,2.64,5.61,4.39a21.88,21.88,0,0,0,4.67,4.08,8.23,8.23,0,0,1,2.65,2.73c1,1.61,2.11,3.21,3,4.91a21.47,21.47,0,0,0,2.28,3.65,4.74,4.74,0,0,1,.85,4.52,4.57,4.57,0,0,0-.1,2.35,13.7,13.7,0,0,0,1.24,4.1,8.26,8.26,0,0,1,1.12,4.13c0,2.76,1,5.29,1.76,7.87a5,5,0,0,0,.84,1.7,34.28,34.28,0,0,1,2.72,4.5,5.78,5.78,0,0,0,1,1,31,31,0,0,1,12.39-1.84l3.65-1.82c1.53.25,2.78-.64,4.09-1.12a22,22,0,0,1,5.59-1.11c.79-.07,1.59-.09,2.33-.13.35-.15.66-.25.93-.4.84-.48,1.66-.95,2.47-1.46s1.88.15,2.8,0c1.56-.3,3.12-.64,4.73-1l2.06-2a4.54,4.54,0,0,1,3.41-1.46,3.8,3.8,0,0,0,1.82-.47c1.14-.58,2.21-1.26,3.34-1.92,1.86-.17,3.75-.66,5.65-.06,2.05-.24,4.21.16,6.12-.73a7.59,7.59,0,0,1,4.19-.56c1.26.13,2.53.23,3.8.31a1.64,1.64,0,0,0,.89-.2,6,6,0,0,1,3.27-.43c1.74.07,3.5.25,5.17-.6a4.17,4.17,0,0,1,1.88-.21c1.92,0,3.84,0,5.75.16a5.72,5.72,0,0,0,4-1.26c.89-.67,1.74-1.39,2.62-2.09a6.74,6.74,0,0,1,1.51-1.14,7.78,7.78,0,0,0,2.95-2.37c.41-.48.86-1,1.28-1.43,2.39-2.77,5.1-5.3,6.55-8.78a3.21,3.21,0,0,1,.83-1.16,12.49,12.49,0,0,0,2.7-3.92,5.65,5.65,0,0,1,2.29-2.36,7.38,7.38,0,0,0,2.55-2.12c1.24-2,2.85-3.92,2.79-6.49a6.87,6.87,0,0,1,.83-3.21c.42-.85.81-1.71,1.14-2.4-.3-1.14-.55-2.05-.76-2.83.33-.92.62-1.66.87-2.42a31.31,31.31,0,0,0,1.46-5.51c.27-1.89.37-3.81.54-5.71,1.2-2,.06-4.08.33-6.1a15.42,15.42,0,0,0,.18-1.91A3.44,3.44,0,0,0,410.41,409.74ZM231.84,344.61c.18-.12.38-.17.44-.29,1.13-2.39,2.68-4.32,5.33-5.16.31-.1.56-.79.59-1.22.17-2.16-.7-4-1.66-5.89-2.45-4.75-6-8.22-11.15-9.84-1.82-.57-3.63-1.18-5.45-1.78a60.14,60.14,0,0,0-12.54-2.74,18.63,18.63,0,0,0-3.34,0,45.27,45.27,0,0,0-6.18.66,54.67,54.67,0,0,0-5.89,1.92c-1.21.41-2.41.82-3.61,1.26a54.37,54.37,0,0,1-6.28,2.29,28.36,28.36,0,0,0-7.44,3.18,66.59,66.59,0,0,0-10.79,7,18.4,18.4,0,0,1-7.6,3.82,73.57,73.57,0,0,1-7.9,1.84,11.6,11.6,0,0,0-1.84.49c-2.13.67-4.23,1.44-6.38,2a6.87,6.87,0,0,0-3.26,1.9,22.71,22.71,0,0,0-2.75,3.3,9.11,9.11,0,0,0-1.28,3.07,23.46,23.46,0,0,0-.06,8.56,1.42,1.42,0,0,0,1.32,1.12,2.68,2.68,0,0,0,.24-.91c-.27-2.28.45-4.41.9-6.59a7.81,7.81,0,0,1,1.93-3.79,2.69,2.69,0,0,1,1.2-.7,11,11,0,0,1,1.42-.08c2-.24,3.74.76,5.7.89l2.13-.74c2,.24,3.86.52,5.75.67a3.31,3.31,0,0,0,3.29-1.57c1.46-2.51,3.72-4.35,5.4-6.67a4.49,4.49,0,0,1,2.67-1.92,4.55,4.55,0,0,0,2.35-1.52,26.37,26.37,0,0,1,2.47-2.25,9,9,0,0,1,6.62-2.24,3.77,3.77,0,0,0,2.72-.66,2,2,0,0,1,.85-.41,9.41,9.41,0,0,0,2.34-.15c.84-.34,1.46-1.19,2.3-1.57a15.57,15.57,0,0,1,3.18-.95,18.42,18.42,0,0,1,2.3-.22,10.74,10.74,0,0,1,7.93-3,4.33,4.33,0,0,0,3-1.22,16,16,0,0,1,3.82-2.33c.6-.06.92-.11,1.24-.11.48,0,1,0,1.43,0a38.73,38.73,0,0,0,4.31,0,18.53,18.53,0,0,0,3.09-.85c3.5,1.66,6,4.33,8.84,6.69a11.85,11.85,0,0,1,1.78,2.24c.46.64.78,1.39,1.25,2,1,1.31,1.74,2.59,1.4,4.37-.18.95.58,1.79,1.12,2.57a17.67,17.67,0,0,1,1.66,2.33A22.73,22.73,0,0,1,231.84,344.61ZM102.67,413.88a10.54,10.54,0,0,1,4.17-3.55,14.56,14.56,0,0,0,3.62-2.3,10.42,10.42,0,0,1,4-2.43c.42-.14.74-.59,1.11-.9.61-.51,1.18-1.07,1.83-1.54a3.22,3.22,0,0,1,3.11-.72,1.51,1.51,0,0,0,1.37-.21c.54-.34,1.28-.51,1.62-1a6.34,6.34,0,0,1,3.61-2.16c.74-.24,1.59-.15,2.23-.71,1.64-1.5,3.31-3,5-4.43a1.84,1.84,0,0,1,.81-.48c2.22-.34,3.56-2,5.13-3.33a1.73,1.73,0,0,0,.65-1.22c-.3-2.73.49-5.38.45-8.25a15.39,15.39,0,0,1-2-5.71c0-.17-.42-.27-.62-.4-1.79,2.28-3.53,4.54-5.32,6.77s-3.88,4.66-5.74,7.06a88.66,88.66,0,0,1-15,14.72,8.59,8.59,0,0,1-3.42,1.66l-2.43.56a20,20,0,0,0-8.93.07,15.34,15.34,0,0,1-3.33.26,34.76,34.76,0,0,0-3.83.13c-1.89.3-3.75.85-5.64.06a22.87,22.87,0,0,0-3.81.26c-2.52.62-5.08.37-7.62.53a11,11,0,0,1-3.77-.58c-1-.3-2-1.05-3.15-.74a6.85,6.85,0,0,0-1,2.65,1.37,1.37,0,0,0,.85,1.53,14.32,14.32,0,0,0,2.25.79,23.77,23.77,0,0,1,2.76.71c1.36.42,2.6,1.26,4.1,1.18s3,1.4,4.62.52c.78.15,1.57.27,2.35.45,1.08.26,2.15.56,3.25.85a9.33,9.33,0,0,1,3.73-.51c1.11.14,2.2.29,3.29.49s2.27-.26,3.3,0A13.11,13.11,0,0,0,102.67,413.88Zm-2.32-63.42a1.59,1.59,0,0,0-1.7.57c-.42.45-.62,1.1-1,1.59a2.47,2.47,0,0,1-1.08.89c-3.38.9-6.7,2.1-10.24,2.23a17.58,17.58,0,0,0-5.6,1.15c-1.19.45-2.4.87-3.59,1.33a4.89,4.89,0,0,0-1.26.66,1.43,1.43,0,0,0-.41.82c-.15.93.36,1.82,0,2.82a11.29,11.29,0,0,0-.57,3.28c-.07,1.57.61,3.08.42,4.72a7.62,7.62,0,0,0,.66,2.75c0,.14.19.25.29.38.82-.23,1.18-1,1.76-1.5a13.89,13.89,0,0,1,2.23-1.79,14.53,14.53,0,0,1,7.25-2.08c1.6,0,3.2,0,4.79,0a14.69,14.69,0,0,0,4.68-.83,7.21,7.21,0,0,0,3.82-2.7c.38-.52.68-1.08,1.07-1.72,0-2.62.56-5.32-.76-7.92a6.41,6.41,0,0,1-.27-2.35A4.26,4.26,0,0,0,100.35,350.46ZM235,396.82c1,.64,1.91,1.26,2.86,1.85.12.08.38.12.45.05s.51-.48.47-.67a7.66,7.66,0,0,1,.05-4.22,6.3,6.3,0,0,0,.19-1.9,16,16,0,0,1,1.5-6,54,54,0,0,0,2.11-5.32,20.25,20.25,0,0,0,1.21-6.53c0-1.47-.62-2.79-.75-4.21-.32-3.73-2.42-6.87-3.49-10.35a3,3,0,0,0-.76-1.21,21,21,0,0,1-2.66-3.95c-.06-.1-.36-.19-.43-.13s-.5.41-.49.62c.18,3.18.37,6.36-.77,9.44a4.77,4.77,0,0,0-.18,1.42,31.39,31.39,0,0,1-1.49,7c-.25.92-.49,1.84-.8,2.74a10.36,10.36,0,0,0,0,5.63,5.05,5.05,0,0,1-.13,3.24,2.58,2.58,0,0,0,0,2.3,5.28,5.28,0,0,1,.39,2.33c0,1.11.12,2.22.17,3.07C233.34,393.64,234.08,395.05,235,396.82Zm176.49,1.65a5.07,5.07,0,0,1-.72-3.26,5.84,5.84,0,0,0-.48-3.27c-.43-1-.72-2.11-1.15-3.14a2.23,2.23,0,0,0-.81-1.13,5.11,5.11,0,0,1-2.19-2.45c-.66-1.33-1.51-2.45-3.17-2.62a1.49,1.49,0,0,1-.8-.49,16.33,16.33,0,0,0-5.31-3.18,3.19,3.19,0,0,1-2.32-2.76,7.78,7.78,0,0,0-1.44-3c-.07-.13-.23-.22-.34-.33-.3-.29-.56-.34-.73-.11a.8.8,0,0,0-.19.42c.12,2.27,1.33,4.24,1.83,6.41a5,5,0,0,0,.63,1.27,7.62,7.62,0,0,0,4.83,3.67,10.6,10.6,0,0,1,5.49,3.67,17.75,17.75,0,0,1,4.38,9.92c.24,2.23.81,4.37,1.15,6.56,0,.12.2.22.32.33.71-1,.34-2.17.54-3.25S411.34,399.54,411.5,398.47Zm-20.45-34.69a5.83,5.83,0,0,0-.21,1.35,22.81,22.81,0,0,0,.3,2.31c0,.09.18.2.28.21a.74.74,0,0,0,.44-.13,2.08,2.08,0,0,0,.66-2.12A1.71,1.71,0,0,0,391.05,363.78ZM324.61,35.26l-.73.36c.24.14.47.39.72.4s.48-.21.72-.33Zm4.05,2.31c-.37-.17-.59-.13-.58.1,0,0,.27.08.41.08S328.6,37.64,328.66,37.57Z"/><path d="M322.13,38.08l10,3.38a2.53,2.53,0,0,0,3.08-1.75,2.57,2.57,0,0,0-1.75-3.08l-10-3.37A2.52,2.52,0,0,0,320.38,35a2.56,2.56,0,0,0,1.75,3.07Z"/><path class="cls-1" d="M171.48,290.91a.33.33,0,0,1-.16-.27.42.42,0,0,1,.16-.33,1,1,0,0,1,.39-.22,3.12,3.12,0,0,0,1.28-.59,1.37,1.37,0,0,0,.36-1.07V276.52a1.6,1.6,0,0,0-.33-1.17,3.12,3.12,0,0,0-1.36-.55c-.37-.09-.55-.27-.55-.54a.32.32,0,0,1,.16-.29.61.61,0,0,1,.36-.11c.64,0,1.3,0,2,.08s1.41.05,1.74.05,1,0,1.87-.05l2-.05c.31,0,.47.12.47.37a.48.48,0,0,1-.13.35,1.18,1.18,0,0,1-.42.19,4.06,4.06,0,0,0-1.46.64,1.38,1.38,0,0,0-.36,1.08v11.7a1.44,1.44,0,0,0,.31,1,1.51,1.51,0,0,0,1.09.31h2.66a2.64,2.64,0,0,0,1.84-.7,6.85,6.85,0,0,0,1.38-2.06,3.11,3.11,0,0,1,.39-.66.45.45,0,0,1,.31-.17.32.32,0,0,1,.28.17.73.73,0,0,1,.09.35.61.61,0,0,1-.06.22,1,1,0,0,0-.05.3c-.26.94-.44,1.61-.53,2a10.4,10.4,0,0,0-.22,1.48c0,.33-.18.5-.42.5l-3-.06-6-.07c-.66,0-1.35,0-2.08.07l-1.61.06A.61.61,0,0,1,171.48,290.91Z"/><path class="cls-1" d="M187.55,290.54a2.22,2.22,0,0,1-.78-1.7,2.08,2.08,0,0,1,.53-1.47,4.77,4.77,0,0,1,1.68-1.08l2.31-1a1.52,1.52,0,0,0,.64-.42,1.32,1.32,0,0,0,.11-.67l0-1.49a1.92,1.92,0,0,0-.26-1.17,1,1,0,0,0-.86-.41,1.82,1.82,0,0,0-.66.14,1.73,1.73,0,0,0-.53.33.77.77,0,0,0-.16.54,2.53,2.53,0,0,0,0,.38c0,.13,0,.26,0,.38s-.29.39-.87.65a3.71,3.71,0,0,1-1.44.39.41.41,0,0,1-.34-.16.56.56,0,0,1-.13-.39,1.39,1.39,0,0,1,.29-.81,6.17,6.17,0,0,1,.93-.93,10,10,0,0,1,2.29-1.4,5.34,5.34,0,0,1,2.13-.58,2.86,2.86,0,0,1,2.21.9,3.24,3.24,0,0,1,.81,2.38l-.13,5.25a1.78,1.78,0,0,0,.21,1,.66.66,0,0,0,.57.42,1.22,1.22,0,0,0,.86-.34.22.22,0,0,1,.15-.08.3.3,0,0,1,.22.1.26.26,0,0,1,.09.19,1.26,1.26,0,0,1-.46.81,3,3,0,0,1-2.19,1,2.5,2.5,0,0,1-1.32-.35,3.72,3.72,0,0,1-1.1-1.13h-.05a6.54,6.54,0,0,1-1.54,1.14,3.24,3.24,0,0,1-1.47.34A2.59,2.59,0,0,1,187.55,290.54Zm4.21-1.36a1.25,1.25,0,0,0,.18-.68l.08-1.87c0-.28-.09-.41-.26-.41a.62.62,0,0,0-.31.1,3.39,3.39,0,0,0-1.16.78,1.78,1.78,0,0,0-.33,1.17,1.44,1.44,0,0,0,.29,1,.89.89,0,0,0,.68.31A1.06,1.06,0,0,0,191.76,289.18Z"/><path class="cls-1" d="M206.19,291.18a4.36,4.36,0,0,1,.08-.83l0-.81a.5.5,0,0,0,0-.28,5.78,5.78,0,0,1-1.84,1.45,4.87,4.87,0,0,1-2.27.57,2.48,2.48,0,0,1-2-1,4.09,4.09,0,0,1-.82-2.61v-4.86a1.74,1.74,0,0,0-.24-1,1.12,1.12,0,0,0-.8-.46.5.5,0,0,1-.28-.14.52.52,0,0,1-.11-.35.39.39,0,0,1,.39-.45,17.87,17.87,0,0,0,3.77-.62l.27-.06a1,1,0,0,1,.27,0c.25,0,.36.12.34.36a10.39,10.39,0,0,0-.21,2v5a2.36,2.36,0,0,0,.45,1.51,1.45,1.45,0,0,0,1.14.6,2.16,2.16,0,0,0,1.59-.57,1.53,1.53,0,0,0,.36-.59,2.91,2.91,0,0,0,.16-1v-4.19a1.39,1.39,0,0,0-.39-1,1.58,1.58,0,0,0-1-.42.84.84,0,0,1-.47-.16.54.54,0,0,1-.15-.42.46.46,0,0,1,.18-.39.79.79,0,0,1,.44-.13c1.32-.08,2.25-.15,2.81-.2a12.08,12.08,0,0,0,1.56-.26,2.24,2.24,0,0,1,.34-.08c.26,0,.39.1.39.31a2.06,2.06,0,0,1-.11.39c0,.21-.07.51-.11.91a7.68,7.68,0,0,0-.07.91v6c0,.66.16,1,.47,1l.73,0a.49.49,0,0,1,.36.14.42.42,0,0,1,.13.33.66.66,0,0,1-.09.39.46.46,0,0,1-.35.16,13.73,13.73,0,0,0-4,1l-.3.1a1.18,1.18,0,0,1-.37.08C206.26,291.44,206.19,291.35,206.19,291.18Z"/><path class="cls-1" d="M212.89,290.38a3.18,3.18,0,0,1-.33-1.19,11.21,11.21,0,0,1-.08-1.78c0-.21.17-.31.52-.31a.56.56,0,0,1,.34.12.6.6,0,0,1,.21.27,6.81,6.81,0,0,0,1.19,1.94,2,2,0,0,0,1.51.68,1.35,1.35,0,0,0,1-.41,1.44,1.44,0,0,0-.08-2.05,5.92,5.92,0,0,0-1.35-.91,7.73,7.73,0,0,1-2.17-1.56,3.09,3.09,0,0,1-.8-2.16,3,3,0,0,1,1.2-2.45,4.74,4.74,0,0,1,3-.93,6.39,6.39,0,0,1,1.52.18,3.3,3.3,0,0,1,1.05.39,2.21,2.21,0,0,1,.34,1,8.64,8.64,0,0,1,.13,1.58.26.26,0,0,1-.14.21.7.7,0,0,1-.33.07.64.64,0,0,1-.37-.13.61.61,0,0,1-.25-.26,3.61,3.61,0,0,0-.87-1.52,1.67,1.67,0,0,0-1.18-.5,1.63,1.63,0,0,0-1.06.37,1.22,1.22,0,0,0-.45,1,1.27,1.27,0,0,0,.45.92,6.5,6.5,0,0,0,1.32.9,8.41,8.41,0,0,1,2.45,1.74,3.17,3.17,0,0,1,.69,2.13,3.21,3.21,0,0,1-1.13,2.65,4.9,4.9,0,0,1-3.23.94A5.38,5.38,0,0,1,212.89,290.38Z"/><path class="cls-1" d="M222.62,290.54a2.22,2.22,0,0,1-.78-1.7,2.12,2.12,0,0,1,.53-1.47,5,5,0,0,1,1.68-1.08l2.31-1a1.52,1.52,0,0,0,.64-.42,1.3,1.3,0,0,0,.12-.67l0-1.49a1.92,1.92,0,0,0-.26-1.17,1,1,0,0,0-.85-.41,1.92,1.92,0,0,0-.67.14,1.73,1.73,0,0,0-.53.33.83.83,0,0,0-.16.54,2.53,2.53,0,0,0,0,.38,2.53,2.53,0,0,1,0,.38c0,.17-.29.39-.88.65a3.71,3.71,0,0,1-1.44.39.41.41,0,0,1-.34-.16.61.61,0,0,1-.13-.39,1.39,1.39,0,0,1,.29-.81,5.86,5.86,0,0,1,.94-.93,9.68,9.68,0,0,1,2.28-1.4,5.34,5.34,0,0,1,2.14-.58,2.89,2.89,0,0,1,2.21.9,3.28,3.28,0,0,1,.8,2.38l-.13,5.25a1.78,1.78,0,0,0,.21,1,.68.68,0,0,0,.57.42,1.2,1.2,0,0,0,.86-.34.23.23,0,0,1,.16-.08.32.32,0,0,1,.22.1.26.26,0,0,1,.09.19,1.29,1.29,0,0,1-.47.81,3,3,0,0,1-2.18,1,2.51,2.51,0,0,1-1.33-.35,3.7,3.7,0,0,1-1.09-1.13h0a6.56,6.56,0,0,1-1.55,1.14,3.24,3.24,0,0,1-1.47.34A2.6,2.6,0,0,1,222.62,290.54Zm4.21-1.36a1.25,1.25,0,0,0,.18-.68l.08-1.87c0-.28-.09-.41-.26-.41a.62.62,0,0,0-.31.1,3.39,3.39,0,0,0-1.16.78,1.83,1.83,0,0,0-.32,1.17,1.45,1.45,0,0,0,.28,1,.89.89,0,0,0,.68.31A1,1,0,0,0,226.83,289.18Z"/><path class="cls-1" d="M233.19,290.87a.31.31,0,0,1-.17-.26c0-.21.2-.38.6-.52a2.3,2.3,0,0,0,.75-.34.77.77,0,0,0,.23-.65v-6c0-.87-.26-1.35-.8-1.46-.19,0-.29-.19-.29-.47s.09-.39.26-.44q.91-.21,2-.57a13.27,13.27,0,0,0,1.77-.73,1.15,1.15,0,0,1,.46-.21c.16,0,.24.11.24.32l-.05.52c-.06.62-.08.94-.08,1a.88.88,0,0,0,0,.39,7.48,7.48,0,0,1,1.86-1.35,4.5,4.5,0,0,1,2-.45,2.92,2.92,0,0,1,2.3,1,3.9,3.9,0,0,1,.9,2.7v5.72a.8.8,0,0,0,.23.65,2.38,2.38,0,0,0,.76.34c.34.12.52.29.52.52a.35.35,0,0,1-.13.26.48.48,0,0,1-.31.1,14.06,14.06,0,0,1-1.49-.07c-.55,0-1-.06-1.27-.06s-.72,0-1.28.06a12.69,12.69,0,0,1-1.45.07.46.46,0,0,1-.31-.1.32.32,0,0,1-.13-.26c0-.23.17-.4.52-.52a2,2,0,0,0,.7-.34.83.83,0,0,0,.21-.65v-5.17a2.4,2.4,0,0,0-.45-1.55,1.51,1.51,0,0,0-1.22-.58,2.86,2.86,0,0,0-1,.16,5.47,5.47,0,0,0-.93.51.63.63,0,0,0-.21.5v6.13a.79.79,0,0,0,.21.64,2.6,2.6,0,0,0,.73.35c.34.12.52.29.52.52a.35.35,0,0,1-.13.26.49.49,0,0,1-.32.1,12,12,0,0,1-1.4-.07c-.55,0-1-.06-1.25-.06s-.73,0-1.32.06a14.31,14.31,0,0,1-1.51.07A.64.64,0,0,1,233.19,290.87Z"/><path class="cls-1" d="M247.9,290.87a.31.31,0,0,1-.17-.26c0-.21.2-.38.6-.52a2.38,2.38,0,0,0,.76-.34.8.8,0,0,0,.23-.65v-6c0-.87-.27-1.35-.8-1.46-.2,0-.29-.19-.29-.47s.09-.39.26-.44c.61-.14,1.26-.33,2-.57a12.55,12.55,0,0,0,1.76-.73,1.17,1.17,0,0,1,.47-.21c.16,0,.24.11.24.32l-.06.52c0,.62-.07.94-.07,1,0,.22,0,.35.05.39a7.48,7.48,0,0,1,1.86-1.35,4.44,4.44,0,0,1,2-.45,2.93,2.93,0,0,1,2.3,1,3.89,3.89,0,0,1,.89,2.7v5.72a.77.77,0,0,0,.24.65,2.41,2.41,0,0,0,.75.34c.35.12.52.29.52.52a.32.32,0,0,1-.13.26.46.46,0,0,1-.31.1,14,14,0,0,1-1.48-.07c-.56,0-1-.06-1.27-.06s-.72,0-1.28.06a12.87,12.87,0,0,1-1.46.07.48.48,0,0,1-.31-.1.35.35,0,0,1-.13-.26c0-.23.18-.4.52-.52a1.88,1.88,0,0,0,.7-.34.83.83,0,0,0,.21-.65v-5.17a2.4,2.4,0,0,0-.44-1.55,1.51,1.51,0,0,0-1.22-.58,2.82,2.82,0,0,0-1,.16,5.12,5.12,0,0,0-.93.51.63.63,0,0,0-.21.5v6.13a.79.79,0,0,0,.21.64,2.51,2.51,0,0,0,.72.35c.35.12.52.29.52.52a.32.32,0,0,1-.13.26.46.46,0,0,1-.31.1,11.79,11.79,0,0,1-1.4-.07c-.56,0-1-.06-1.25-.06s-.74,0-1.33.06a14.12,14.12,0,0,1-1.5.07A.68.68,0,0,1,247.9,290.87Z"/><path class="cls-1" d="M264.89,290.52a5.13,5.13,0,0,1-1.75-2,6.61,6.61,0,0,1-.64-2.91,5.92,5.92,0,0,1,.76-3,5.72,5.72,0,0,1,2.06-2.14,5.43,5.43,0,0,1,2.85-.8,4.3,4.3,0,0,1,2,.47,3.53,3.53,0,0,1,1.43,1.3,3.35,3.35,0,0,1,.52,1.82,1.2,1.2,0,0,1-.19.76.78.78,0,0,1-.61.23h-5.2a.66.66,0,0,0-.54.21,1.14,1.14,0,0,0-.17.7,3.53,3.53,0,0,0,1,2.53,3.14,3.14,0,0,0,2.41,1,3.4,3.4,0,0,0,1.36-.27,6.65,6.65,0,0,0,1.3-.79.77.77,0,0,1,.36-.21c.17,0,.26.11.26.34a1.9,1.9,0,0,1-.21.78,4,4,0,0,1-1.62,1.89,5,5,0,0,1-2.85.81A4.47,4.47,0,0,1,264.89,290.52Zm2.79-7.37q.6,0,.93,0a3.12,3.12,0,0,0,.6-.1.41.41,0,0,0,.21-.26,1.4,1.4,0,0,0,.08-.47,1.49,1.49,0,0,0-.48-1.13,1.7,1.7,0,0,0-1.19-.46,2,2,0,0,0-1.45.67,1.87,1.87,0,0,0-.63,1.41.32.32,0,0,0,.37.37Z"/><path class="cls-1" d="M20.62,385a8.32,8.32,0,0,1-3.3-3,8.09,8.09,0,0,1-1.22-4.42,8.69,8.69,0,0,1,1.22-4.5,9.11,9.11,0,0,1,3.46-3.34,10.23,10.23,0,0,1,5.12-1.26,15.93,15.93,0,0,1,2.7.3,13.63,13.63,0,0,1,2.52.64.73.73,0,0,1,.52.62,22.47,22.47,0,0,1,.32,3.07.57.57,0,0,1-.12.39.42.42,0,0,1-.33.13.66.66,0,0,1-.44-.14,1.16,1.16,0,0,1-.26-.41,6.75,6.75,0,0,0-1.25-2,4.43,4.43,0,0,0-1.33-.91,5,5,0,0,0-2-.34,5.1,5.1,0,0,0-3.13,1,6.14,6.14,0,0,0-2,2.58,8.86,8.86,0,0,0-.69,3.51,10.5,10.5,0,0,0,1.34,5.72,4.27,4.27,0,0,0,3.83,2.11,2.42,2.42,0,0,0,1-.18,5.34,5.34,0,0,0,.82-.47,1.56,1.56,0,0,0,.43-.68,3,3,0,0,0,.16-1q.06-.88.06-2.13a.88.88,0,0,0-.58-.91,6.56,6.56,0,0,0-1.66-.55.91.91,0,0,1-.43-.21.44.44,0,0,1-.19-.36.33.33,0,0,1,.18-.27.65.65,0,0,1,.36-.12c.64,0,1.33,0,2.06.08l1.92.05c.35,0,.87,0,1.56-.05s1.32-.05,1.66-.05a.51.51,0,0,1,.32.1.36.36,0,0,1,.13.29c0,.27-.18.46-.52.54a2.18,2.18,0,0,0-1,.46,1.53,1.53,0,0,0-.38.82,9.8,9.8,0,0,0-.18,2v.83c0,.12.11.29.34.52a.94.94,0,0,1,.26.54.61.61,0,0,1-.12.37.52.52,0,0,1-.37.18,3,3,0,0,0-.73.29,15.09,15.09,0,0,1-2.47,1,10.83,10.83,0,0,1-3,.39A9.79,9.79,0,0,1,20.62,385Z"/><path class="cls-1" d="M37,385.31a5.16,5.16,0,0,1-1.76-2,6.62,6.62,0,0,1-.64-2.92,6,6,0,0,1,.76-3,5.7,5.7,0,0,1,2.07-2.15,5.45,5.45,0,0,1,2.84-.79,4.3,4.3,0,0,1,2,.47,3.53,3.53,0,0,1,1.43,1.3,3.35,3.35,0,0,1,.52,1.82,1.15,1.15,0,0,1-.19.75.74.74,0,0,1-.61.24h-5.2a.64.64,0,0,0-.53.21,1.06,1.06,0,0,0-.17.7,3.56,3.56,0,0,0,1,2.53,3.16,3.16,0,0,0,2.42,1,3.39,3.39,0,0,0,1.35-.27,6.74,6.74,0,0,0,1.3-.8.82.82,0,0,1,.36-.2c.18,0,.26.11.26.33a1.83,1.83,0,0,1-.21.78,4,4,0,0,1-1.62,1.9,5,5,0,0,1-2.85.81A4.41,4.41,0,0,1,37,385.31Zm2.78-7.37q.6,0,.93,0a3.12,3.12,0,0,0,.6-.1.41.41,0,0,0,.21-.26,1.4,1.4,0,0,0,.08-.47,1.49,1.49,0,0,0-.48-1.13,1.64,1.64,0,0,0-1.19-.46,2,2,0,0,0-1.45.66,1.94,1.94,0,0,0-.63,1.42.33.33,0,0,0,.37.37Z"/><path class="cls-1" d="M45.59,385.66a.31.31,0,0,1-.17-.26c0-.21.2-.38.6-.52a2.62,2.62,0,0,0,.76-.34.8.8,0,0,0,.23-.65v-5.95c0-.87-.27-1.36-.81-1.46-.19,0-.28-.19-.28-.47s.09-.39.26-.44c.6-.14,1.26-.33,2-.57a13.27,13.27,0,0,0,1.77-.73,1.17,1.17,0,0,1,.47-.21c.16,0,.23.11.23.31l0,.52c0,.63-.08.95-.08,1a.71.71,0,0,0,.06.39,7.81,7.81,0,0,1,1.86-1.36,4.57,4.57,0,0,1,2-.44,2.93,2.93,0,0,1,2.3,1,3.89,3.89,0,0,1,.89,2.7v5.72a.77.77,0,0,0,.24.65,2.54,2.54,0,0,0,.75.34c.35.12.52.29.52.52a.32.32,0,0,1-.13.26.46.46,0,0,1-.31.1,11.7,11.7,0,0,1-1.48-.08c-.56,0-1-.05-1.28-.05s-.72,0-1.27.05a10.79,10.79,0,0,1-1.46.08.48.48,0,0,1-.31-.1.35.35,0,0,1-.13-.26c0-.23.18-.4.52-.52a2.05,2.05,0,0,0,.7-.34.83.83,0,0,0,.21-.65v-5.17a2.46,2.46,0,0,0-.44-1.55,1.55,1.55,0,0,0-1.22-.59,2.78,2.78,0,0,0-1,.17,4.91,4.91,0,0,0-.94.51.65.65,0,0,0-.2.49v6.14a.84.84,0,0,0,.2.64,2.75,2.75,0,0,0,.73.35c.35.12.52.29.52.52a.32.32,0,0,1-.13.26.46.46,0,0,1-.31.1,9.89,9.89,0,0,1-1.4-.08c-.56,0-1-.05-1.25-.05s-.74,0-1.33.05a12,12,0,0,1-1.51.08A.67.67,0,0,1,45.59,385.66Z"/><path class="cls-2" d="M62.58,385.31a5.13,5.13,0,0,1-1.75-2,6.49,6.49,0,0,1-.64-2.92,5.91,5.91,0,0,1,.76-3A5.75,5.75,0,0,1,63,375.24a5.52,5.52,0,0,1,2.85-.79,4.3,4.3,0,0,1,2,.47,3.6,3.6,0,0,1,1.43,1.3,3.35,3.35,0,0,1,.52,1.82,1.15,1.15,0,0,1-.19.75A.75.75,0,0,1,69,379h-5.2a.66.66,0,0,0-.54.21,1.12,1.12,0,0,0-.17.7,3.53,3.53,0,0,0,1,2.53,3.14,3.14,0,0,0,2.41,1,3.4,3.4,0,0,0,1.36-.27,6.74,6.74,0,0,0,1.3-.8.82.82,0,0,1,.36-.2c.17,0,.26.11.26.33a1.83,1.83,0,0,1-.21.78,4.09,4.09,0,0,1-1.62,1.9,5,5,0,0,1-2.85.81A4.47,4.47,0,0,1,62.58,385.31ZM66,373.49c-.83-.83-1.7-1.79-2.62-2.89l-.68-.75a1,1,0,0,1-.26-.65c0-.19.15-.34.44-.46a3.2,3.2,0,0,1,1.1-.16,1.47,1.47,0,0,1,.71.14,1.11,1.11,0,0,1,.46.51c.26.52.54,1.13.85,1.84s.59,1.37.84,2a1.42,1.42,0,0,1,.13.54c0,.21-.09.32-.26.32A1.07,1.07,0,0,1,66,373.49Zm-.59,4.45q.6,0,.93,0a3.12,3.12,0,0,0,.6-.1.41.41,0,0,0,.21-.26,1.4,1.4,0,0,0,.08-.47,1.49,1.49,0,0,0-.48-1.13,1.66,1.66,0,0,0-1.19-.46,2,2,0,0,0-1.45.66,1.9,1.9,0,0,0-.63,1.42.32.32,0,0,0,.37.37Z"/><path class="cls-2" d="M76.12,386a4.37,4.37,0,0,1-.25-.49l-.21-.45-.36-.86c0-.14-.23-.56-.52-1.25-.42-1-.93-2.07-1.54-3.35q-.22-.53-.54-1.17c-.21-.44-.43-.91-.65-1.43a4.71,4.71,0,0,0-.59-1,1.59,1.59,0,0,0-.74-.54,1,1,0,0,1-.36-.22.48.48,0,0,1-.11-.32c0-.21.21-.32.63-.32.17,0,.62,0,1.35.08a8.29,8.29,0,0,0,1.22.08,11.15,11.15,0,0,0,1.35-.08c.14,0,.36,0,.67,0s.6,0,.89,0a1.18,1.18,0,0,1,.43.08.27.27,0,0,1,.2.26.3.3,0,0,1-.11.26,1,1,0,0,1-.26.14l-.23.1a1.07,1.07,0,0,0-.6,1.11v.24a1.37,1.37,0,0,0,.11.6l1.74,4.29h.08l1.53-4.11a2,2,0,0,0,.16-.83,1.23,1.23,0,0,0-.84-1.28,2.17,2.17,0,0,1-.44-.19A.33.33,0,0,1,78,375a.27.27,0,0,1,.18-.26,1.08,1.08,0,0,1,.42-.08c.35,0,.69,0,1,0l.75,0c.3,0,.9,0,1.8-.08.41,0,.62.1.62.31a.48.48,0,0,1-.1.33,1.11,1.11,0,0,1-.39.22,2.15,2.15,0,0,0-.87.58,3.74,3.74,0,0,0-.67,1l-2,5.1q-.35.86-.84,1.89a17.1,17.1,0,0,1-1,2.11h-.6C76.28,386.23,76.19,386.16,76.12,386Z"/><path class="cls-1" d="M85.23,385.31a5.06,5.06,0,0,1-1.75-2,6.49,6.49,0,0,1-.64-2.92,6,6,0,0,1,.75-3,5.7,5.7,0,0,1,2.07-2.15,5.46,5.46,0,0,1,2.85-.79,4.36,4.36,0,0,1,2,.47,3.67,3.67,0,0,1,1.43,1.3,3.44,3.44,0,0,1,.52,1.82,1.14,1.14,0,0,1-.2.75.74.74,0,0,1-.61.24h-5.2a.64.64,0,0,0-.53.21,1.12,1.12,0,0,0-.17.7,3.56,3.56,0,0,0,1,2.53,3.16,3.16,0,0,0,2.42,1,3.36,3.36,0,0,0,1.35-.27,6.45,6.45,0,0,0,1.3-.8.83.83,0,0,1,.37-.2c.17,0,.26.11.26.33a1.83,1.83,0,0,1-.21.78,4.06,4.06,0,0,1-1.63,1.9,5,5,0,0,1-2.84.81A4.47,4.47,0,0,1,85.23,385.31ZM88,377.94c.4,0,.71,0,.94,0a3.41,3.41,0,0,0,.6-.1.43.43,0,0,0,.2-.26,1.19,1.19,0,0,0,.08-.47,1.49,1.49,0,0,0-.48-1.13,1.62,1.62,0,0,0-1.18-.46,2,2,0,0,0-1.46.66,1.92,1.92,0,0,0-.62,1.42.32.32,0,0,0,.36.37Z"/><path class="cls-1" d="M231.13,171.6a8.45,8.45,0,0,1-3.3-3,8.15,8.15,0,0,1-1.23-4.44,9.58,9.58,0,0,1,1.07-4.48,8.36,8.36,0,0,1,3.18-3.34,10.16,10.16,0,0,1,9.46-.18,8.45,8.45,0,0,1,3.3,3,8.08,8.08,0,0,1,1.24,4.45,9.58,9.58,0,0,1-1.08,4.47,8.25,8.25,0,0,1-3.19,3.34,10.14,10.14,0,0,1-9.45.18Zm8.24-1.9a8.63,8.63,0,0,0,1.16-4.77,15.13,15.13,0,0,0-.57-4.21,7.62,7.62,0,0,0-1.74-3.21,3.83,3.83,0,0,0-2.89-1.24A3.69,3.69,0,0,0,232,158a8.65,8.65,0,0,0-1.14,4.73,15.28,15.28,0,0,0,.57,4.23,7.8,7.8,0,0,0,1.73,3.24,3.76,3.76,0,0,0,2.87,1.24A3.7,3.7,0,0,0,239.37,169.7Z"/><path class="cls-1" d="M246.32,172.3a.29.29,0,0,1-.15-.27.37.37,0,0,1,.15-.32,1.05,1.05,0,0,1,.45-.2,1.86,1.86,0,0,0,.77-.39.85.85,0,0,0,.19-.6v-6a1.94,1.94,0,0,0-.17-.92.93.93,0,0,0-.61-.46.44.44,0,0,1-.34-.46.41.41,0,0,1,.32-.45,18,18,0,0,0,3.53-1.22,1.17,1.17,0,0,1,.6-.28c.16,0,.24.09.24.28l-.08,2.06c0,.15,0,.23.1.23a7.41,7.41,0,0,1,1.56-1.6,2.92,2.92,0,0,1,1.74-.66,2,2,0,0,1,1.26.32,1.1,1.1,0,0,1,.41.9,2.3,2.3,0,0,1-.48,1.31,1.34,1.34,0,0,1-1,.69,2.45,2.45,0,0,1-1-.36l-.43-.2a1.53,1.53,0,0,0-.54-.14c-1.11,0-1.66.82-1.66,2.47v4.24a.91.91,0,0,0,.31.75,2.85,2.85,0,0,0,1.07.47c.38.1.57.28.57.52a.32.32,0,0,1-.13.26.48.48,0,0,1-.31.1c-.56,0-1.11,0-1.67-.07s-1.18-.06-1.45-.06-.74,0-1.33.06a14.31,14.31,0,0,1-1.51.07A.68.68,0,0,1,246.32,172.3Z"/><path class="cls-1" d="M261,172.29a6.72,6.72,0,0,0-1.25-.29,1.83,1.83,0,0,0-.94.34.66.66,0,0,1-.36.18.56.56,0,0,1-.35-.09.29.29,0,0,1-.12-.24,8.22,8.22,0,0,1,.14-.93,7.25,7.25,0,0,0,.12-1.67l-.1-11.57a3.17,3.17,0,0,0-.22-1.26,1.12,1.12,0,0,0-.8-.62c-.21,0-.31-.17-.31-.41a.41.41,0,0,1,.08-.24.38.38,0,0,1,.21-.13,24.62,24.62,0,0,0,3.9-1.27,1.09,1.09,0,0,1,.36-.1c.19,0,.29.1.29.31a5.76,5.76,0,0,1-.07.7,8.32,8.32,0,0,0-.06.94v5.56c0,.49.07.73.23.73a7,7,0,0,1,1.68-.85,5.07,5.07,0,0,1,1.65-.3,4.39,4.39,0,0,1,2.44.71,4.84,4.84,0,0,1,1.73,1.93,5.87,5.87,0,0,1,.64,2.75,6.58,6.58,0,0,1-.79,3.23,5.52,5.52,0,0,1-2.24,2.2,6.86,6.86,0,0,1-3.31.78A10.42,10.42,0,0,1,261,172.29Zm4.64-2a8.17,8.17,0,0,0-.07-6.36,2.12,2.12,0,0,0-2-1.4,4.29,4.29,0,0,0-1.14.16,2.52,2.52,0,0,0-1,.44v5.54a3,3,0,0,0,.74,2.08,2.28,2.28,0,0,0,1.75.83C264.66,171.59,265.2,171.16,265.61,170.3Z"/><path class="cls-1" d="M273.45,171.94a5,5,0,0,1-1.76-2,6.61,6.61,0,0,1-.64-2.91,6,6,0,0,1,.76-3,5.67,5.67,0,0,1,2.07-2.14,5.37,5.37,0,0,1,2.84-.8,4.3,4.3,0,0,1,2,.47,3.53,3.53,0,0,1,1.43,1.3,3.35,3.35,0,0,1,.52,1.82,1.2,1.2,0,0,1-.19.76.76.76,0,0,1-.61.23h-5.2a.64.64,0,0,0-.53.21,1.07,1.07,0,0,0-.17.7,3.58,3.58,0,0,0,1,2.54,3.19,3.19,0,0,0,2.42,1,3.39,3.39,0,0,0,1.35-.27,6.65,6.65,0,0,0,1.3-.79.77.77,0,0,1,.36-.21c.18,0,.26.11.26.34a1.9,1.9,0,0,1-.21.78,4,4,0,0,1-1.62,1.89,5,5,0,0,1-2.85.81A4.41,4.41,0,0,1,273.45,171.94Zm2.78-7.37q.6,0,.93,0a2.5,2.5,0,0,0,.6-.1.41.41,0,0,0,.21-.26,1.4,1.4,0,0,0,.08-.47,1.49,1.49,0,0,0-.48-1.13,1.69,1.69,0,0,0-1.19-.46,2,2,0,0,0-1.45.67,1.9,1.9,0,0,0-.63,1.41.33.33,0,0,0,.37.37Z"/><path class="cls-1" d="M279.54,361.6a.37.37,0,0,1-.14-.28.48.48,0,0,1,.14-.31.93.93,0,0,1,.43-.23,3.56,3.56,0,0,0,1.29-.58,1.44,1.44,0,0,0,.35-1.11V347.26a1.73,1.73,0,0,0-.33-1.21,2.39,2.39,0,0,0-1.26-.56c-.4-.07-.6-.25-.6-.55a.36.36,0,0,1,.16-.27.62.62,0,0,1,.39-.12c.59,0,1.25,0,2,.11.15,0,.38,0,.69,0s.59,0,.87,0a14.2,14.2,0,0,0,1.45-.11c1-.09,1.74-.13,2.24-.13a9.7,9.7,0,0,1,4.74.9,3.17,3.17,0,0,1,1.55,3,3.44,3.44,0,0,1-.35,1.5,3.53,3.53,0,0,1-.95,1.21,4.39,4.39,0,0,1-1.9,1,.11.11,0,0,0-.1.13.12.12,0,0,0,.1.13,7.21,7.21,0,0,1,3,1.3,3.44,3.44,0,0,1,1.17,2.91,4.81,4.81,0,0,1-.43,2.18,3.81,3.81,0,0,1-1,1.3,7.82,7.82,0,0,1-1.33.84,10.69,10.69,0,0,1-4.55.83c-.36,0-.92,0-1.69-.06s-1.42-.05-1.87-.05-1.19,0-1.85.08c-.86,0-1.48,0-1.84,0A.63.63,0,0,1,279.54,361.6Zm8.3-9.77a3,3,0,0,0,1-.54,2.32,2.32,0,0,0,.57-.85,3.66,3.66,0,0,0,.27-1.52,3.88,3.88,0,0,0-.66-2.46,2.46,2.46,0,0,0-2.05-.82,1.63,1.63,0,0,0-1.05.28,1,1,0,0,0-.33.82v4.34a.78.78,0,0,0,.33.69,1.27,1.27,0,0,0,.71.22A4,4,0,0,0,287.84,351.83Zm.83,8a3.26,3.26,0,0,0,1.09-1.28,3.89,3.89,0,0,0,.4-1.79,3.7,3.7,0,0,0-1.3-3,2.32,2.32,0,0,0-.82-.4,4.11,4.11,0,0,0-1.23-.17,1.54,1.54,0,0,0-.83.23.72.72,0,0,0-.37.63v4.57c0,1.11.53,1.67,1.59,1.67A2.59,2.59,0,0,0,288.67,359.79Z"/><path class="cls-1" d="M298.22,361.21a5.1,5.1,0,0,1-1.75-2,6.42,6.42,0,0,1-.64-2.91,6,6,0,0,1,.75-3,5.85,5.85,0,0,1,2.07-2.15,5.42,5.42,0,0,1,2.85-.79,4.33,4.33,0,0,1,2,.47,3.53,3.53,0,0,1,1.43,1.3,3.33,3.33,0,0,1,.52,1.82,1.15,1.15,0,0,1-.19.75.77.77,0,0,1-.62.24h-5.2a.66.66,0,0,0-.53.2,1.17,1.17,0,0,0-.17.71,3.56,3.56,0,0,0,1,2.53,3.18,3.18,0,0,0,2.42,1,3.32,3.32,0,0,0,1.35-.27,6.45,6.45,0,0,0,1.3-.8.83.83,0,0,1,.37-.21c.17,0,.26.12.26.34a1.83,1.83,0,0,1-.21.78,4.09,4.09,0,0,1-1.62,1.9,5,5,0,0,1-2.85.81A4.47,4.47,0,0,1,298.22,361.21Zm2.78-7.38c.4,0,.71,0,.94,0a2.47,2.47,0,0,0,.6-.11.45.45,0,0,0,.21-.25,1.41,1.41,0,0,0,.07-.47,1.49,1.49,0,0,0-.48-1.13,1.62,1.62,0,0,0-1.18-.46,2,2,0,0,0-1.46.66,1.92,1.92,0,0,0-.62,1.42.32.32,0,0,0,.36.36Z"/><path class="cls-1" d="M305.84,361.4a.46.46,0,0,1,.12-.35,1.12,1.12,0,0,1,.37-.22,1.79,1.79,0,0,0,.62-.38,8.4,8.4,0,0,0,.79-.92l2.39-3.28a.67.67,0,0,0,.16-.34.78.78,0,0,0-.13-.33l-2-2.89a9.53,9.53,0,0,0-.68-.91,1.56,1.56,0,0,0-.6-.39.9.9,0,0,1-.37-.19.49.49,0,0,1-.12-.36c0-.2.21-.31.62-.31.18,0,.63,0,1.36.08a8.29,8.29,0,0,0,1.24.08c.35,0,.76,0,1.25-.05a9.5,9.5,0,0,1,1.38-.08,1,1,0,0,1,.43.08.29.29,0,0,1,.09.49,1.26,1.26,0,0,1-.26.14,1.07,1.07,0,0,1-.24.09,2.73,2.73,0,0,0-.54.26.43.43,0,0,0-.18.37,2,2,0,0,0,.33.8l1.2,1.75c.09.12.17.12.23,0l.81-1.38a2.49,2.49,0,0,0,.34-1.15.63.63,0,0,0-.47-.59l-.23-.09a.67.67,0,0,1-.24-.16.37.37,0,0,1-.08-.25.27.27,0,0,1,.21-.26,1.25,1.25,0,0,1,.42-.08l.83,0c.23,0,.51,0,.86,0l.8-.06.86-.05c.42,0,.63.11.63.31a.45.45,0,0,1-.12.33,1.08,1.08,0,0,1-.38.22,1.93,1.93,0,0,0-.63.38,5.4,5.4,0,0,0-.8.89l-1.87,2.5a.86.86,0,0,0-.16.34.67.67,0,0,0,.16.34l2.18,3.43a4.23,4.23,0,0,0,.78.93,3.07,3.07,0,0,0,.92.58.85.85,0,0,1,.37.19.48.48,0,0,1,.12.35c0,.21-.21.31-.63.31l-1.53-.07a10.79,10.79,0,0,0-1.46-.08c-.33,0-.78,0-1.37,0a14.75,14.75,0,0,1-1.56.08,1,1,0,0,1-.46-.09.29.29,0,0,1-.17-.25.32.32,0,0,1,.15-.3,2.06,2.06,0,0,1,.45-.19,1.15,1.15,0,0,0,.56-.33,1,1,0,0,0,.19-.66,1.68,1.68,0,0,0-.05-.48,1.3,1.3,0,0,0-.26-.46l-1.32-2-.08,0-.08,0-1.22,2.16a2,2,0,0,0-.37,1,.79.79,0,0,0,.47.79,1.44,1.44,0,0,1,.44.19.3.3,0,0,1,.13.27c0,.23-.2.34-.62.34s-.65,0-.92,0l-.67,0c-.29,0-.9,0-1.82.08C306.05,361.69,305.84,361.59,305.84,361.4Z"/><path class="cls-1" d="M291,409.59a.28.28,0,0,1,.13-.24,1.8,1.8,0,0,1,.31-.14l.29-.09a2.57,2.57,0,0,0,1.08-.75,2.5,2.5,0,0,0,.53-1.3q.46-3.65,1-10.66a7.73,7.73,0,0,0,0-.89,1.23,1.23,0,0,0-.63-1.19,4.47,4.47,0,0,0-1.45-.6c-.45-.12-.68-.31-.68-.55s.23-.39.7-.39l1.93,0,1.26.06,1.75,0a.78.78,0,0,1,.63.47c.33.94.55,1.57.67,1.9l3.82,9.12a.22.22,0,0,0,.15.12c.06,0,.11,0,.14-.12l3.72-8.63c.22-1.19.4-2,.52-2.39a.41.41,0,0,1,.42-.34h1.11l2.27-.15a18.58,18.58,0,0,1,1.87-.13c.43,0,.65.13.65.39a.36.36,0,0,1-.15.31,1.59,1.59,0,0,1-.45.21l-.73.31a2.77,2.77,0,0,0-1,.78,1.83,1.83,0,0,0-.24,1.22c.14,3.4.29,6.35.46,8.87l.16,2.49c.07.82.7,1.38,1.9,1.69a2.13,2.13,0,0,1,.47.21.35.35,0,0,1,.15.31.34.34,0,0,1-.15.29.71.71,0,0,1-.39.1c-.64,0-1.35,0-2.11-.08l-1.9-.05-1.71.05c-.68.06-1.34.08-2,.08a.81.81,0,0,1-.43-.1.31.31,0,0,1-.17-.26c0-.28.21-.46.63-.55a2.73,2.73,0,0,0,1.32-.56,1.4,1.4,0,0,0,.34-1.13q-.07-1.64-.18-5.22l-.16-4.14c0-.12,0-.18-.08-.18s-.13.07-.18.21l-5,11.8a.38.38,0,0,1-.37.31.41.41,0,0,1-.39-.26c-.62-1.43-1.39-3.15-2.31-5.14q-2.13-4.68-2.91-6.63c-.05-.13-.12-.19-.18-.19s-.23.12-.26.37C295,400,295,403,295,407.17a1.55,1.55,0,0,0,.48,1.18,3.06,3.06,0,0,0,1.47.69c.49.11.73.28.73.52a.32.32,0,0,1-.21.29,1,1,0,0,1-.44.1c-.54,0-1.05,0-1.53-.05s-.83,0-1.12,0-1.09,0-2.24.08l-.54,0Q291,410,291,409.59Z"/><path class="cls-1" d="M315.29,409.52a2.22,2.22,0,0,1-.78-1.7,2.12,2.12,0,0,1,.53-1.47,5,5,0,0,1,1.68-1.08l2.31-1a1.63,1.63,0,0,0,.64-.42,1.32,1.32,0,0,0,.12-.67l0-1.49a1.92,1.92,0,0,0-.26-1.17,1,1,0,0,0-.85-.41,1.92,1.92,0,0,0-.67.14,1.73,1.73,0,0,0-.53.33.77.77,0,0,0-.16.54,2.53,2.53,0,0,0,0,.38,2.42,2.42,0,0,1,0,.38c0,.17-.29.39-.87.65a3.71,3.71,0,0,1-1.44.39.44.44,0,0,1-.34-.16.61.61,0,0,1-.13-.39,1.36,1.36,0,0,1,.29-.81,5.47,5.47,0,0,1,.94-.93,10.05,10.05,0,0,1,2.28-1.41,5.47,5.47,0,0,1,2.14-.57,2.89,2.89,0,0,1,2.21.9,3.28,3.28,0,0,1,.8,2.38l-.13,5.25a1.78,1.78,0,0,0,.21,1,.68.68,0,0,0,.57.42,1.2,1.2,0,0,0,.86-.34.23.23,0,0,1,.16-.08.28.28,0,0,1,.22.1.26.26,0,0,1,.09.19,1.31,1.31,0,0,1-.47.81,3,3,0,0,1-2.18,1,2.51,2.51,0,0,1-1.33-.35,3.7,3.7,0,0,1-1.09-1.13h-.05a7.18,7.18,0,0,1-1.55,1.14,3.37,3.37,0,0,1-1.47.34A2.6,2.6,0,0,1,315.29,409.52Zm4.21-1.36a1.25,1.25,0,0,0,.18-.68l.08-1.87c0-.28-.09-.42-.26-.42a.65.65,0,0,0-.31.11,3.39,3.39,0,0,0-1.16.78,1.83,1.83,0,0,0-.32,1.17,1.45,1.45,0,0,0,.28,1,.92.92,0,0,0,.68.31A1,1,0,0,0,319.5,408.16Z"/><path class="cls-1" d="M325.86,409.86a.29.29,0,0,1-.14-.27.39.39,0,0,1,.14-.33,1.06,1.06,0,0,1,.45-.19,1.86,1.86,0,0,0,.77-.39.85.85,0,0,0,.19-.6v-6a2.05,2.05,0,0,0-.16-.92,1,1,0,0,0-.62-.46.44.44,0,0,1-.33-.47.4.4,0,0,1,.31-.44,16.7,16.7,0,0,0,1.83-.53,17.2,17.2,0,0,0,1.71-.69,1.19,1.19,0,0,1,.59-.29c.16,0,.24.1.24.29l-.08,2.05c0,.16,0,.24.1.24a7.19,7.19,0,0,1,1.56-1.6,2.92,2.92,0,0,1,1.75-.66,2,2,0,0,1,1.26.32,1.12,1.12,0,0,1,.4.9,2.33,2.33,0,0,1-.48,1.31,1.31,1.31,0,0,1-1,.69,2.49,2.49,0,0,1-1-.36l-.43-.2a1.54,1.54,0,0,0-.53-.14c-1.11,0-1.67.82-1.67,2.47v4.24a.91.91,0,0,0,.31.75,3.1,3.1,0,0,0,1.07.47c.38.1.57.28.57.52a.32.32,0,0,1-.13.26.48.48,0,0,1-.31.1,15.56,15.56,0,0,1-1.67-.08l-1.45-.05c-.3,0-.74,0-1.33.05a12,12,0,0,1-1.51.08A.68.68,0,0,1,325.86,409.86Z"/><path class="cls-1" d="M339,409.38a3.3,3.3,0,0,1-.87-2.47v-6a.36.36,0,0,0-.18-.34,1.57,1.57,0,0,0-.63-.13H337c-.1,0-.19-.09-.28-.28a1.29,1.29,0,0,1-.13-.55.26.26,0,0,1,.16-.26,14.4,14.4,0,0,0,3.79-2.65l.18-.15.24-.14a.56.56,0,0,1,.23-.05c.17,0,.29,0,.34.1a.67.67,0,0,1,.05.42l-.16,1.53v.11c0,.29.21.44.63.44h3.09s.11.06.16.18a.93.93,0,0,1,.08.34,2.25,2.25,0,0,1-.11.71c-.07.22-.15.33-.23.33h-2.42a1.71,1.71,0,0,0-.82.14.56.56,0,0,0-.22.51v4.91a3,3,0,0,0,.44,1.77,1.44,1.44,0,0,0,1.23.6,3.68,3.68,0,0,0,.92-.09,3.27,3.27,0,0,0,.54-.2l.28-.13.15-.05a.23.23,0,0,1,.21.15.78.78,0,0,1,.08.37c0,.12-.2.33-.59.61a6.29,6.29,0,0,1-1.47.77,5,5,0,0,1-1.79.34A3.5,3.5,0,0,1,339,409.38Z"/><path class="cls-1" d="M346.33,409.86a.3.3,0,0,1-.13-.25c0-.26.16-.43.47-.52a2.58,2.58,0,0,0,1-.35.69.69,0,0,0,.26-.61v-5.61a2.24,2.24,0,0,0-.26-1.25,1.14,1.14,0,0,0-.86-.47.32.32,0,0,1-.23-.16.59.59,0,0,1-.08-.31.47.47,0,0,1,.09-.28.37.37,0,0,1,.2-.16,10.66,10.66,0,0,0,2.07-.57c.59-.25,1.25-.54,2-.89a1.33,1.33,0,0,1,.52-.2.37.37,0,0,1,.25.09.29.29,0,0,1,.09.22l-.11,1c-.15,1.32-.23,2.27-.23,2.86v5.75a.7.7,0,0,0,.26.57,3,3,0,0,0,1,.41,1.25,1.25,0,0,1,.35.19.39.39,0,0,1,.12.31c0,.22-.14.34-.4.34s-.89,0-1.58-.06l-1.48-.05c-.3,0-.76,0-1.38.05a13.58,13.58,0,0,1-1.56.08A.52.52,0,0,1,346.33,409.86Zm1.72-13.4a2,2,0,0,1-.6-1.43,2,2,0,0,1,.6-1.48,1.94,1.94,0,0,1,1.43-.6,2,2,0,0,1,1.49.6,2,2,0,0,1,.61,1.48,1.93,1.93,0,0,1-.61,1.43,2,2,0,0,1-1.49.6A1.94,1.94,0,0,1,348.05,396.46Z"/><path class="cls-1" d="M366.37,399.4a.71.71,0,0,1,.11.41,1.37,1.37,0,0,1-.1.46,2.69,2.69,0,0,1-.24.48.43.43,0,0,1-.33.18h-.71a1.5,1.5,0,0,0-.91.21.66.66,0,0,0-.11.35c0,.15,0,.44,0,.87a4.87,4.87,0,0,1-.68,2.5,5.26,5.26,0,0,1-1.86,1.83,4.89,4.89,0,0,1-2.53.69,5.09,5.09,0,0,1-1.74-.34,1.38,1.38,0,0,0-.37.35.61.61,0,0,0-.15.35q0,.42.78.63a19.4,19.4,0,0,0,2.91.36,11.29,11.29,0,0,1,4.09.86,2,2,0,0,1,1.27,1.87,4.69,4.69,0,0,1-1,2.78,8,8,0,0,1-2.62,2.26,6.55,6.55,0,0,1-3.21.89,8.17,8.17,0,0,1-3.95-.8,2.41,2.41,0,0,1-1.43-2.17,3.32,3.32,0,0,1,.2-1.28,2.48,2.48,0,0,1,.81-.93c.28-.19.58-.4.89-.63l.65-.51a2.48,2.48,0,0,1-1.85-2.37,1.25,1.25,0,0,1,.7-1,15.37,15.37,0,0,0,1.38-1.09,4.86,4.86,0,0,1-1.54-1.52,3.72,3.72,0,0,1-.59-2,3.81,3.81,0,0,1,.73-2.29,4.9,4.9,0,0,1,1.94-1.58,5.94,5.94,0,0,1,2.58-.57,8.86,8.86,0,0,1,2,.28c.48.11.86.17,1.12.21a11,11,0,0,0,2.08.21c.22,0,.51,0,.85-.05l.58,0A.35.35,0,0,1,366.37,399.4Zm-4,13.07a2.6,2.6,0,0,0-1-.43,18.92,18.92,0,0,0-2.07-.32,13.9,13.9,0,0,1-1.84-.26,3.87,3.87,0,0,0-1.13,1,1.93,1.93,0,0,0-.38,1.17,2.17,2.17,0,0,0,.88,1.77,3.59,3.59,0,0,0,2.27.7,3.66,3.66,0,0,0,2.54-.7,3.55,3.55,0,0,0,.77-1.06,2.78,2.78,0,0,0,.27-1.18A.89.89,0,0,0,362.34,412.47Zm-1.76-7.15a5.1,5.1,0,0,0,.49-2.44,4.37,4.37,0,0,0-.53-2.31,1.57,1.57,0,0,0-1.36-.89,1.51,1.51,0,0,0-1.29.9,4.24,4.24,0,0,0-.53,2.22,4.8,4.8,0,0,0,.56,2.43,1.59,1.59,0,0,0,1.36,1A1.46,1.46,0,0,0,360.58,405.32Z"/><path class="cls-1" d="M367,409.85a.31.31,0,0,1-.17-.26c0-.21.2-.38.6-.52a2.62,2.62,0,0,0,.76-.34.8.8,0,0,0,.23-.65v-5.95c0-.87-.27-1.36-.81-1.46-.19,0-.28-.19-.28-.47s.08-.39.26-.44c.6-.14,1.26-.33,2-.57a13.27,13.27,0,0,0,1.77-.73,1.17,1.17,0,0,1,.47-.21c.15,0,.23.11.23.31l-.05.52c0,.63-.08.95-.08,1a.88.88,0,0,0,.05.39,8.23,8.23,0,0,1,1.86-1.36,4.63,4.63,0,0,1,2-.44,2.94,2.94,0,0,1,2.31,1,3.94,3.94,0,0,1,.89,2.7v5.72a.77.77,0,0,0,.24.65,2.42,2.42,0,0,0,.75.34c.35.12.52.29.52.52a.32.32,0,0,1-.13.26.48.48,0,0,1-.31.1,11.6,11.6,0,0,1-1.48-.08c-.56,0-1-.05-1.28-.05s-.72,0-1.27.05a10.89,10.89,0,0,1-1.46.08.48.48,0,0,1-.31-.1.32.32,0,0,1-.13-.26c0-.23.17-.4.52-.52a2.16,2.16,0,0,0,.7-.34.83.83,0,0,0,.21-.65v-5.17a2.46,2.46,0,0,0-.44-1.55,1.57,1.57,0,0,0-1.22-.59,2.78,2.78,0,0,0-1,.17,4.63,4.63,0,0,0-.94.51.62.62,0,0,0-.21.49v6.14a.81.81,0,0,0,.21.64,2.6,2.6,0,0,0,.73.35c.35.12.52.29.52.52a.32.32,0,0,1-.13.26.48.48,0,0,1-.31.1,9.89,9.89,0,0,1-1.4-.08c-.56,0-1-.05-1.25-.05s-.74,0-1.33.05a12,12,0,0,1-1.51.08A.64.64,0,0,1,367,409.85Z"/><path class="cls-1" d="M381.2,416.76a1.42,1.42,0,0,1-.6-1.17,1.88,1.88,0,0,1,.27-1,.88.88,0,0,1,.8-.44,5.5,5.5,0,0,1,.8.13,3.42,3.42,0,0,0,.86.13.91.91,0,0,0,.52-.17,2.79,2.79,0,0,0,.39-.56c.17-.28.36-.61.57-1s.45-.91.73-1.55a3.37,3.37,0,0,0,.31-1.25,2.18,2.18,0,0,0-.12-.69c-.07-.23-.16-.45-.24-.66l-3.2-7.25a4.87,4.87,0,0,0-.57-1,1.66,1.66,0,0,0-.73-.52,1,1,0,0,1-.38-.23.48.48,0,0,1-.11-.34c0-.19.21-.28.65-.28s1,0,1.58.05l.91.05c.37,0,.81,0,1.33-.05s1.09-.05,1.51-.05a1.07,1.07,0,0,1,.41.07.28.28,0,0,1,.18.26.35.35,0,0,1-.11.28,1.06,1.06,0,0,1-.28.15l-.2.09a1.06,1.06,0,0,0-.46.35,1.17,1.17,0,0,0-.14.64,3.13,3.13,0,0,0,.28,1.2l1.62,3.92c0,.06,0,.08.07.08s.06,0,.08-.08l1.33-4a3.05,3.05,0,0,0,.21-1,1.1,1.1,0,0,0-.25-.71,1.3,1.3,0,0,0-.56-.39,1.88,1.88,0,0,1-.46-.2.39.39,0,0,1-.14-.32.28.28,0,0,1,.18-.26,1.09,1.09,0,0,1,.42-.07l1.12.05.78.05.86-.05.91-.05c.41,0,.62.09.62.28a.56.56,0,0,1-.1.35,1,1,0,0,1-.37.22,2.08,2.08,0,0,0-.88.58,3.24,3.24,0,0,0-.65,1l-3.88,9.3q-.82,2-2.13,5.05a2.33,2.33,0,0,1-.95,1.14,2.74,2.74,0,0,1-1.47.39A2.05,2.05,0,0,1,381.2,416.76Z"/><circle class="cls-1" cx="219.18" cy="165.4" r="5.19"/><circle class="cls-1" cx="161.1" cy="285.04" r="5.19"/><circle class="cls-1" cx="271.18" cy="356.11" r="5.19"/><circle class="cls-1" cx="283.34" cy="403.8" r="5.19"/><circle class="cls-1" cx="5.19" cy="379.45" r="5.19"/></g></g></svg>